<svg width="903" height="390" fill="none" xmlns="http://www.w3.org/2000/svg"><path d="M66.816 89h-16.32V59.432H22.08V89H5.76V19.064h16.32v29.232h28.416V19.064h16.32V89zm34.738-50.544c3.297 0 6.305.512 9.024 1.536 2.753 1.024 5.105 2.512 7.057 4.464 1.983 1.952 3.52 4.352 4.608 7.2 1.12 2.816 1.68 6.016 1.68 9.6 0 1.12-.048 2.032-.144 2.736-.096.704-.272 1.264-.529 1.68a2 2 0 01-1.056.864c-.415.16-.959.24-1.632.24H91.859c.48 4.16 1.744 7.184 3.791 9.072 2.048 1.856 4.688 2.784 7.92 2.784 1.728 0 3.216-.208 4.465-.624 1.248-.416 2.351-.88 3.311-1.392.992-.512 1.888-.976 2.689-1.392a5.72 5.72 0 012.591-.624c1.184 0 2.08.432 2.688 1.296l4.321 5.328c-1.536 1.76-3.2 3.2-4.993 4.32a26.637 26.637 0 01-5.471 2.592 28.992 28.992 0 01-5.617 1.248 39.03 39.03 0 01-5.328.384c-3.487 0-6.767-.56-9.84-1.68A23.131 23.131 0 0184.371 83c-2.272-2.24-4.08-5.024-5.424-8.352-1.313-3.328-1.969-7.2-1.969-11.616 0-3.328.56-6.48 1.68-9.456 1.153-2.976 2.784-5.584 4.897-7.824 2.143-2.24 4.72-4.016 7.727-5.328 3.04-1.312 6.465-1.968 10.272-1.968zm.289 10.272c-2.849 0-5.073.816-6.672 2.448-1.6 1.6-2.657 3.92-3.169 6.96h18.576c0-1.184-.16-2.336-.479-3.456a7.677 7.677 0 00-1.489-2.976c-.671-.896-1.567-1.616-2.688-2.16-1.12-.544-2.48-.816-4.079-.816zm47.898-31.584V89h-14.88V17.144h14.88zm13.935 87.648V39.224h9.216c.928 0 1.696.208 2.304.624.64.416 1.088 1.04 1.344 1.872l1.104 3.648a26.009 26.009 0 013.072-2.88c1.12-.864 2.304-1.6 3.552-2.208a19.38 19.38 0 014.08-1.488c1.472-.352 3.072-.528 4.8-.528 2.592 0 4.992.576 7.2 1.728 2.208 1.152 4.112 2.816 5.712 4.992 1.6 2.176 2.848 4.848 3.744 8.016.928 3.136 1.392 6.704 1.392 10.704 0 3.744-.528 7.2-1.584 10.368-1.024 3.168-2.48 5.92-4.368 8.256-1.856 2.336-4.096 4.16-6.72 5.472-2.592 1.312-5.472 1.968-8.64 1.968-2.592 0-4.768-.368-6.528-1.104a17.723 17.723 0 01-4.8-2.976v19.104h-14.88zm24.288-55.152c-1.088 0-2.08.112-2.976.336-.864.192-1.68.48-2.448.864a9.116 9.116 0 00-2.064 1.488c-.64.576-1.28 1.248-1.92 2.016v21.12c1.12 1.248 2.336 2.128 3.648 2.64 1.312.48 2.688.72 4.128.72 1.376 0 2.64-.272 3.792-.816 1.152-.544 2.144-1.408 2.976-2.592.864-1.216 1.536-2.784 2.016-4.704s.72-4.256.72-7.008c0-2.624-.192-4.832-.576-6.624-.384-1.792-.928-3.232-1.632-4.32-.672-1.12-1.488-1.92-2.448-2.4s-2.032-.72-3.216-.72zm48.492-10.416V89h-14.88V39.224h14.88zm1.728-13.632c0 1.184-.24 2.304-.72 3.36a9.167 9.167 0 01-1.968 2.736 10.192 10.192 0 01-2.928 1.872 9.112 9.112 0 01-3.504.672 8.635 8.635 0 01-3.408-.672c-1.056-.48-2-1.104-2.832-1.872-.8-.8-1.44-1.712-1.92-2.736a8.514 8.514 0 01-.672-3.36c0-1.216.224-2.352.672-3.408a9.403 9.403 0 011.92-2.784 9.287 9.287 0 012.832-1.872 8.635 8.635 0 013.408-.672c1.248 0 2.416.224 3.504.672a8.996 8.996 0 012.928 1.872 8.984 8.984 0 011.968 2.784c.48 1.056.72 2.192.72 3.408zM250.391 89V39.224h9.216c.928 0 1.696.208 2.304.624.64.416 1.088 1.04 1.344 1.872l.864 2.88a36.152 36.152 0 012.976-2.496 16.793 16.793 0 013.264-1.92 18.17 18.17 0 013.792-1.248c1.376-.32 2.864-.48 4.464-.48 2.72 0 5.12.48 7.2 1.44 2.112.928 3.888 2.24 5.328 3.936 1.44 1.664 2.528 3.664 3.264 6 .736 2.304 1.104 4.816 1.104 7.536V89h-14.88V57.368c0-2.432-.56-4.32-1.68-5.664-1.12-1.376-2.768-2.064-4.944-2.064-1.632 0-3.168.352-4.608 1.056-1.44.704-2.816 1.648-4.128 2.832V89h-14.88zm75.176-50.64c2.112 0 4.096.208 5.952.624 1.888.416 3.632 1.008 5.232 1.776h15.024v5.424c0 .832-.24 1.488-.72 1.968-.448.48-1.232.848-2.352 1.104l-3.648.816a14.94 14.94 0 01.672 4.464c0 2.496-.528 4.736-1.584 6.72-1.024 1.984-2.448 3.68-4.272 5.088-1.792 1.376-3.92 2.448-6.384 3.216-2.464.736-5.104 1.104-7.92 1.104-1.568 0-3.04-.096-4.416-.288-1.088.64-1.632 1.376-1.632 2.208 0 .832.432 1.44 1.296 1.824.896.352 2.064.608 3.504.768a92.47 92.47 0 004.944.288c1.856.032 3.744.144 5.664.336 1.92.16 3.808.448 5.664.864 1.856.416 3.504 1.088 4.944 2.016 1.44.928 2.592 2.176 3.456 3.744.896 1.536 1.344 3.504 1.344 5.904 0 2.24-.544 4.432-1.632 6.576-1.088 2.144-2.688 4.048-4.8 5.712-2.112 1.664-4.704 2.992-7.776 3.984-3.072 1.024-6.592 1.536-10.56 1.536-3.904 0-7.28-.368-10.128-1.104-2.816-.736-5.168-1.712-7.056-2.928-1.856-1.184-3.232-2.56-4.128-4.128-.896-1.568-1.344-3.2-1.344-4.896 0-2.208.672-4.064 2.016-5.568 1.344-1.536 3.184-2.736 5.52-3.6a8.427 8.427 0 01-2.688-2.832c-.672-1.152-1.008-2.608-1.008-4.368 0-.736.128-1.504.384-2.304a8.436 8.436 0 011.2-2.4c.544-.768 1.232-1.504 2.064-2.208.832-.704 1.824-1.328 2.976-1.872-2.592-1.376-4.64-3.2-6.144-5.472-1.472-2.272-2.208-4.912-2.208-7.92 0-2.496.528-4.736 1.584-6.72a15.042 15.042 0 014.32-5.088c1.856-1.408 4.032-2.48 6.528-3.216 2.496-.768 5.2-1.152 8.112-1.152zm11.04 52.464c0-.8-.256-1.44-.768-1.92-.48-.48-1.152-.864-2.016-1.152-.832-.288-1.824-.496-2.976-.624a56.497 56.497 0 00-3.648-.288 157.05 157.05 0 00-4.08-.144 59.561 59.561 0 01-4.176-.336c-.928.64-1.696 1.36-2.304 2.16-.576.768-.864 1.648-.864 2.64 0 .704.144 1.344.432 1.92.32.576.864 1.072 1.632 1.488.768.416 1.792.736 3.072.96 1.312.256 2.96.384 4.944.384 2.144 0 3.904-.128 5.28-.384 1.376-.256 2.464-.608 3.264-1.056.832-.448 1.408-.992 1.728-1.632.32-.608.48-1.28.48-2.016zm-11.04-29.328c2.464 0 4.24-.608 5.328-1.824 1.12-1.248 1.68-2.848 1.68-4.8 0-2.016-.56-3.6-1.68-4.752-1.088-1.152-2.864-1.728-5.328-1.728-2.464 0-4.256.576-5.376 1.728-1.088 1.152-1.632 2.736-1.632 4.752 0 .96.128 1.84.384 2.64.288.8.72 1.504 1.296 2.112.576.576 1.296 1.04 2.16 1.392.896.32 1.952.48 3.168.48zm71.308-14.112h2.592c2.4 0 4.128-.752 5.184-2.256l15.744-22.848c.864-1.248 1.84-2.096 2.928-2.544 1.12-.448 2.48-.672 4.08-.672h14.112l-20.736 28.272c-.736 1.024-1.504 1.872-2.304 2.544-.8.672-1.616 1.232-2.448 1.68a11.657 11.657 0 013.312 1.872c1.024.768 1.952 1.808 2.784 3.12L443.243 89h-14.496c-.928 0-1.728-.064-2.4-.192-.64-.128-1.2-.32-1.68-.576a5.23 5.23 0 01-1.248-.912 10.68 10.68 0 01-1.008-1.296l-15.84-24.336c-.576-.896-1.312-1.52-2.208-1.872-.864-.384-2.048-.576-3.552-.576h-3.936V89h-16.224V19.064h16.224v28.32zm69.588-8.16V89h-14.881V39.224h14.881zm1.727-13.632c0 1.184-.24 2.304-.72 3.36a9.167 9.167 0 01-1.968 2.736 10.2 10.2 0 01-2.927 1.872 9.12 9.12 0 01-3.505.672 8.635 8.635 0 01-3.408-.672c-1.056-.48-2-1.104-2.832-1.872-.8-.8-1.44-1.712-1.92-2.736a8.514 8.514 0 01-.672-3.36c0-1.216.224-2.352.672-3.408a9.403 9.403 0 011.92-2.784 9.287 9.287 0 012.832-1.872 8.635 8.635 0 013.408-.672 9.12 9.12 0 013.505.672 9.002 9.002 0 012.927 1.872 8.984 8.984 0 011.968 2.784c.48 1.056.72 2.192.72 3.408zM515.342 89c-.928 0-1.712-.208-2.352-.624-.608-.416-1.04-1.04-1.296-1.872l-1.152-3.792a29.18 29.18 0 01-3.12 2.88 20.265 20.265 0 01-3.552 2.256 18.018 18.018 0 01-4.08 1.392c-1.44.352-3.008.528-4.704.528-2.592 0-4.992-.576-7.2-1.728-2.208-1.152-4.112-2.816-5.712-4.992-1.6-2.176-2.864-4.832-3.792-7.968-.896-3.168-1.344-6.768-1.344-10.8 0-3.712.512-7.152 1.536-10.32 1.024-3.2 2.464-5.952 4.32-8.256 1.888-2.336 4.144-4.16 6.768-5.472 2.624-1.312 5.52-1.968 8.688-1.968 2.56 0 4.72.384 6.48 1.152a18.145 18.145 0 014.848 2.928v-25.2h14.88V89h-9.216zM500.27 78.344c1.088 0 2.064-.096 2.928-.288a11.085 11.085 0 002.448-.912 9.98 9.98 0 002.064-1.44 16.864 16.864 0 001.968-2.016v-21.12c-1.152-1.248-2.384-2.112-3.696-2.592a10.883 10.883 0 00-4.08-.768c-1.376 0-2.64.272-3.792.816-1.152.544-2.16 1.424-3.024 2.64-.832 1.184-1.488 2.736-1.968 4.656-.48 1.92-.72 4.24-.72 6.96 0 2.624.192 4.832.576 6.624.384 1.792.912 3.248 1.584 4.368.704 1.088 1.536 1.872 2.496 2.352.96.48 2.032.72 3.216.72zm68.167-28.224c-.384.608-.8 1.04-1.248 1.296-.416.256-.96.384-1.632.384a5.54 5.54 0 01-2.112-.432 95.739 95.739 0 00-2.304-1.008c-.8-.352-1.712-.672-2.736-.96-1.024-.32-2.192-.48-3.504-.48-1.888 0-3.344.368-4.368 1.104-.992.704-1.488 1.696-1.488 2.976 0 .928.32 1.696.96 2.304.672.608 1.552 1.152 2.64 1.632 1.088.448 2.32.88 3.696 1.296 1.376.416 2.784.88 4.224 1.392 1.44.512 2.848 1.12 4.224 1.824a14.89 14.89 0 013.696 2.544c1.088.992 1.952 2.208 2.592 3.648.672 1.44 1.008 3.168 1.008 5.184 0 2.464-.448 4.736-1.344 6.816-.896 2.08-2.24 3.872-4.032 5.376-1.76 1.504-3.952 2.672-6.576 3.504-2.592.832-5.584 1.248-8.976 1.248-1.696 0-3.392-.16-5.088-.48a36.172 36.172 0 01-4.944-1.296 28.577 28.577 0 01-4.368-1.92c-1.344-.768-2.496-1.584-3.456-2.448l3.456-5.472c.416-.64.912-1.136 1.488-1.488.576-.384 1.328-.576 2.256-.576.864 0 1.632.192 2.304.576.704.384 1.456.8 2.256 1.248.8.448 1.728.864 2.784 1.248 1.088.384 2.448.576 4.08.576 1.152 0 2.128-.112 2.928-.336.8-.256 1.44-.592 1.92-1.008.48-.416.832-.88 1.056-1.392.224-.512.336-1.04.336-1.584 0-.992-.336-1.808-1.008-2.448-.672-.64-1.552-1.184-2.64-1.632-1.088-.48-2.336-.912-3.744-1.296a92.665 92.665 0 01-4.224-1.392 38.059 38.059 0 01-4.272-1.824 15.602 15.602 0 01-3.696-2.736c-1.088-1.12-1.968-2.48-2.64-4.08-.672-1.6-1.008-3.536-1.008-5.808 0-2.112.4-4.112 1.2-6 .832-1.92 2.064-3.6 3.696-5.04 1.632-1.44 3.68-2.576 6.144-3.408 2.464-.864 5.344-1.296 8.64-1.296 1.792 0 3.52.16 5.184.48 1.696.32 3.28.768 4.752 1.344a21.69 21.69 0 014.032 2.064 18.474 18.474 0 013.216 2.544l-3.36 5.232zM0 143.224h11.904c1.056 0 1.968.24 2.736.72.768.48 1.232 1.104 1.392 1.872l4.992 22.32c.384 1.696.736 3.344 1.056 4.944.32 1.6.608 3.184.864 4.752a261.43 261.43 0 011.392-4.704 134.51 134.51 0 001.488-4.992l6.24-22.368c.192-.736.656-1.344 1.392-1.824.736-.512 1.584-.768 2.544-.768h6.624c1.056 0 1.952.256 2.688.768.768.48 1.248 1.088 1.44 1.824l5.952 22.368c.448 1.696.896 3.344 1.344 4.944.48 1.6.928 3.216 1.344 4.848.256-1.6.56-3.184.912-4.752.384-1.6.784-3.28 1.2-5.04l5.28-22.32c.16-.768.608-1.392 1.344-1.872.768-.48 1.632-.72 2.592-.72h11.328L62.592 193H50.496c-.64 0-1.184-.192-1.632-.576-.448-.384-.8-1.024-1.056-1.92l-7.104-24.816c-.32-1.12-.624-2.224-.912-3.312a60.17 60.17 0 01-.768-3.264c-.224 1.12-.48 2.24-.768 3.36a46.805 46.805 0 01-.912 3.312l-7.2 24.72c-.48 1.664-1.536 2.496-3.168 2.496h-11.52L0 143.224zm101.134 0V193h-14.88v-49.776h14.88zm1.728-13.632c0 1.184-.24 2.304-.72 3.36a9.167 9.167 0 01-1.968 2.736 10.197 10.197 0 01-2.928 1.872 9.112 9.112 0 01-3.504.672 8.635 8.635 0 01-3.408-.672c-1.056-.48-2-1.104-2.832-1.872-.8-.8-1.44-1.712-1.92-2.736a8.514 8.514 0 01-.672-3.36c0-1.216.224-2.352.672-3.408a9.403 9.403 0 011.92-2.784 9.287 9.287 0 012.832-1.872 8.635 8.635 0 013.408-.672c1.248 0 2.416.224 3.504.672a9 9 0 012.928 1.872 8.984 8.984 0 011.968 2.784c.48 1.056.72 2.192.72 3.408zm29.679 64.176c-2.368 0-4.464-.336-6.288-1.008-1.792-.704-3.312-1.68-4.56-2.928-1.216-1.28-2.144-2.816-2.784-4.608-.64-1.792-.96-3.792-.96-6v-25.728h-4.224c-.768 0-1.424-.24-1.968-.72-.544-.512-.816-1.248-.816-2.208v-5.808l7.92-1.536 2.928-12.144c.384-1.536 1.472-2.304 3.264-2.304h7.776v14.544h12.096v10.176h-12.096v24.72c0 1.152.272 2.112.816 2.88.576.736 1.392 1.104 2.448 1.104.544 0 .992-.048 1.344-.144a7.45 7.45 0 00.96-.384c.288-.16.544-.288.768-.384.256-.128.544-.192.864-.192.448 0 .8.112 1.056.336.288.192.576.512.864.96l4.512 7.056c-1.92 1.44-4.08 2.528-6.48 3.264-2.4.704-4.88 1.056-7.44 1.056zm22.885-.768v-71.856h14.88v26.448a23.788 23.788 0 015.808-3.696c2.112-.96 4.624-1.44 7.536-1.44 2.72 0 5.12.48 7.2 1.44 2.112.928 3.888 2.24 5.328 3.936 1.44 1.664 2.528 3.664 3.264 6 .736 2.304 1.104 4.816 1.104 7.536V193h-14.88v-31.632c0-2.432-.56-4.32-1.68-5.664-1.12-1.376-2.768-2.064-4.944-2.064-1.632 0-3.168.352-4.608 1.056-1.44.704-2.816 1.648-4.128 2.832V193h-14.88zm125.082-18.096c.384 0 .768.08 1.152.24.384.128.752.368 1.104.72l6.432 6.768c-2.816 3.68-6.352 6.464-10.608 8.352-4.224 1.856-9.232 2.784-15.024 2.784-5.312 0-10.08-.896-14.304-2.688-4.192-1.824-7.76-4.32-10.704-7.488-2.912-3.2-5.152-6.976-6.72-11.328-1.568-4.384-2.352-9.136-2.352-14.256 0-5.216.896-10 2.688-14.352 1.792-4.384 4.288-8.16 7.488-11.328 3.232-3.168 7.088-5.632 11.568-7.392 4.48-1.76 9.424-2.64 14.832-2.64 2.624 0 5.088.24 7.392.72 2.336.448 4.512 1.088 6.528 1.92 2.016.8 3.872 1.776 5.568 2.928a25.987 25.987 0 014.512 3.744l-5.472 7.344a7.67 7.67 0 01-1.248 1.248c-.48.352-1.152.528-2.016.528a3.6 3.6 0 01-1.632-.384 22.13 22.13 0 01-1.632-.912 41.916 41.916 0 00-1.92-1.2c-.672-.448-1.488-.848-2.448-1.2-.928-.384-2.032-.704-3.312-.96-1.248-.256-2.72-.384-4.416-.384-2.944 0-5.632.528-8.064 1.584a17.516 17.516 0 00-6.288 4.464c-1.728 1.92-3.088 4.256-4.08 7.008-.96 2.752-1.44 5.84-1.44 9.264 0 3.584.48 6.768 1.44 9.552.992 2.784 2.32 5.136 3.984 7.056 1.696 1.888 3.664 3.328 5.904 4.32 2.24.992 4.64 1.488 7.2 1.488a38.73 38.73 0 004.032-.192 17.246 17.246 0 003.36-.768c1.056-.352 2.048-.8 2.976-1.344.96-.576 1.92-1.28 2.88-2.112.384-.32.8-.576 1.248-.768a3.076 3.076 0 011.392-.336zM332.898 193c-1.408 0-2.48-.192-3.216-.576-.704-.384-1.296-1.184-1.776-2.4l-1.056-2.736a47.97 47.97 0 01-3.6 2.784 23.757 23.757 0 01-3.6 2.064 17.084 17.084 0 01-3.936 1.2c-1.376.288-2.912.432-4.608.432-2.272 0-4.336-.288-6.192-.864-1.856-.608-3.44-1.488-4.752-2.64-1.28-1.152-2.272-2.576-2.976-4.272-.704-1.728-1.056-3.712-1.056-5.952 0-1.76.448-3.568 1.344-5.424.896-1.856 2.448-3.536 4.656-5.04 2.208-1.536 5.184-2.816 8.928-3.84 3.744-1.024 8.464-1.6 14.16-1.728v-2.112c0-2.912-.608-5.008-1.824-6.288-1.184-1.312-2.88-1.968-5.088-1.968-1.76 0-3.2.192-4.32.576-1.12.384-2.128.816-3.024 1.296-.864.48-1.712.912-2.544 1.296-.832.384-1.824.576-2.976.576-1.024 0-1.904-.24-2.64-.72a5.862 5.862 0 01-1.68-1.872l-2.688-4.656c3.008-2.656 6.336-4.624 9.984-5.904 3.68-1.312 7.616-1.968 11.808-1.968 3.008 0 5.712.496 8.112 1.488 2.432.96 4.48 2.32 6.144 4.08 1.696 1.728 2.992 3.792 3.888 6.192.896 2.4 1.344 5.024 1.344 7.872V193h-6.816zm-17.088-9.072c1.92 0 3.6-.336 5.04-1.008 1.44-.672 2.896-1.76 4.368-3.264v-6.912c-2.976.128-5.424.384-7.344.768s-3.44.864-4.56 1.44c-1.12.576-1.904 1.232-2.352 1.968a4.795 4.795 0 00-.624 2.4c0 1.696.464 2.896 1.392 3.6.928.672 2.288 1.008 4.08 1.008zM352.2 193v-49.776h9.216c.928 0 1.696.208 2.304.624.64.416 1.088 1.04 1.344 1.872l.864 2.88a36.152 36.152 0 012.976-2.496 16.793 16.793 0 013.264-1.92 18.17 18.17 0 013.792-1.248c1.376-.32 2.864-.48 4.464-.48 2.72 0 5.12.48 7.2 1.44 2.112.928 3.888 2.24 5.328 3.936 1.44 1.664 2.528 3.664 3.264 6 .736 2.304 1.104 4.816 1.104 7.536V193h-14.88v-31.632c0-2.432-.56-4.32-1.68-5.664-1.12-1.376-2.768-2.064-4.944-2.064-1.632 0-3.168.352-4.608 1.056-1.44.704-2.816 1.648-4.128 2.832V193H352.2zm93.511-37.968c-.448.544-.88.976-1.296 1.296-.416.32-1.008.48-1.776.48a3.951 3.951 0 01-2.016-.528 67.513 67.513 0 00-1.968-1.152c-.736-.448-1.6-.848-2.592-1.2s-2.224-.528-3.696-.528c-1.824 0-3.408.336-4.752 1.008a8.808 8.808 0 00-3.264 2.88c-.864 1.248-1.504 2.784-1.92 4.608-.416 1.792-.624 3.824-.624 6.096 0 4.768.912 8.432 2.736 10.992 1.856 2.56 4.4 3.84 7.632 3.84 1.728 0 3.088-.208 4.08-.624 1.024-.448 1.888-.928 2.592-1.44a775.72 775.72 0 001.92-1.488c.608-.448 1.36-.672 2.256-.672 1.184 0 2.08.432 2.688 1.296l4.32 5.328c-1.536 1.76-3.152 3.2-4.848 4.32a25.67 25.67 0 01-5.232 2.592 26.256 26.256 0 01-5.328 1.248 36.985 36.985 0 01-5.232.384c-3.04 0-5.952-.576-8.736-1.728a21.817 21.817 0 01-7.296-4.992c-2.08-2.208-3.744-4.912-4.992-8.112-1.216-3.2-1.824-6.848-1.824-10.944 0-3.584.528-6.928 1.584-10.032 1.088-3.136 2.672-5.84 4.752-8.112 2.112-2.304 4.704-4.112 7.776-5.424 3.104-1.312 6.688-1.968 10.752-1.968 3.904 0 7.328.624 10.272 1.872 2.944 1.248 5.6 3.072 7.968 5.472l-3.936 5.232zm34.016-12.576c3.296 0 6.304.512 9.024 1.536 2.752 1.024 5.104 2.512 7.056 4.464 1.984 1.952 3.52 4.352 4.608 7.2 1.12 2.816 1.68 6.016 1.68 9.6 0 1.12-.048 2.032-.144 2.736-.096.704-.272 1.264-.528 1.68a2 2 0 01-1.056.864c-.416.16-.96.24-1.632.24h-28.704c.48 4.16 1.744 7.184 3.792 9.072 2.048 1.856 4.688 2.784 7.92 2.784 1.728 0 3.216-.208 4.464-.624 1.248-.416 2.352-.88 3.312-1.392.992-.512 1.888-.976 2.688-1.392a5.727 5.727 0 012.592-.624c1.184 0 2.08.432 2.688 1.296l4.32 5.328c-1.536 1.76-3.2 3.2-4.992 4.32a26.67 26.67 0 01-5.472 2.592 28.966 28.966 0 01-5.616 1.248 39.03 39.03 0 01-5.328.384c-3.488 0-6.768-.56-9.84-1.68a23.131 23.131 0 01-8.016-5.088c-2.272-2.24-4.08-5.024-5.424-8.352-1.312-3.328-1.968-7.2-1.968-11.616 0-3.328.56-6.48 1.68-9.456 1.152-2.976 2.784-5.584 4.896-7.824 2.144-2.24 4.72-4.016 7.728-5.328 3.04-1.312 6.464-1.968 10.272-1.968zm.288 10.272c-2.848 0-5.072.816-6.672 2.448-1.6 1.6-2.656 3.92-3.168 6.96h18.576c0-1.184-.16-2.336-.48-3.456a7.675 7.675 0 00-1.488-2.976c-.672-.896-1.568-1.616-2.688-2.16s-2.48-.816-4.08-.816zM512.554 193v-49.776h8.832c.736 0 1.344.064 1.824.192.512.128.928.336 1.248.624.352.256.608.608.768 1.056.192.448.352.992.48 1.632l.816 4.656c1.824-2.816 3.872-5.04 6.144-6.672 2.272-1.632 4.752-2.448 7.44-2.448 2.272 0 4.096.544 5.472 1.632l-1.92 10.944c-.128.672-.384 1.152-.768 1.44-.384.256-.896.384-1.536.384-.544 0-1.184-.064-1.92-.192-.736-.16-1.664-.24-2.784-.24-3.904 0-6.976 2.08-9.216 6.24V193h-14.88z" fill="#fff"/><path d="M216 353c0-2.583.542-4.958 1.625-7.125 1.167-2.25 2.583-4.125 4.25-5.625 3.5-3.25 7.167-4.875 11-4.875 3.333 0 5 1.708 5 5.125 0 8.667 2.875 14.708 8.625 18.125 2.083 1.25 4.25 1.875 6.5 1.875s4.167-.25 5.75-.75a13.195 13.195 0 004.375-2.375c3-2.417 4.5-5.292 4.5-8.625s-.75-6.375-2.25-9.125c-1.5-2.833-3.375-5.792-5.625-8.875l-7.125-10c-10-13.333-15-25.625-15-36.875 0-9.333 3.958-17.792 11.875-25.375 9-8.583 20.542-12.875 34.625-12.875 12.333 0 21.958 3.042 28.875 9.125 5.667 4.917 8.5 10.542 8.5 16.875 0 6.583-2.5 11.833-7.5 15.75-4.5 3.5-9 4.792-13.5 3.875-2-.417-3.542-1.417-4.625-3-1.083-1.667-1.292-3.542-.625-5.625s1-4.25 1-6.5-.417-4.333-1.25-6.25c-.833-1.917-1.958-3.542-3.375-4.875-2.917-2.75-6-4.125-9.25-4.125-3.167 0-5.792.375-7.875 1.125-2.083.667-3.917 1.667-5.5 3-3.25 3-4.875 6.708-4.875 11.125 0 4.333.75 8.083 2.25 11.25s3.333 6.333 5.5 9.5a224.009 224.009 0 007.25 9.625 97.8 97.8 0 017.125 10.25c5.25 8.417 7.875 15.833 7.875 22.25 0 6.333-1.333 11.667-4 16-2.667 4.25-6.125 7.917-10.375 11-9.083 6.75-19.25 10.125-30.5 10.125-10.75 0-19.25-2.583-25.5-7.75-5.167-4.333-7.75-9.458-7.75-15.375zm211.31-83.75c-4.833 0-13.667 7-26.5 21-9.583 10.917-16.542 19.125-20.875 24.625l-11.25 14.25c-4.833 9.167-8.625 16.792-11.375 22.875l-6.75 14.5c-1.75 3.583-3.292 6.125-4.625 7.625-1.25 1.417-3 2.125-5.25 2.125-2.167 0-4.292-.417-6.375-1.25-2-.75-3.75-1.75-5.25-3-3.167-2.667-4.75-5.583-4.75-8.75 0-1.25.917-3.708 2.75-7.375l4.75-10.125c1.5-3 3.25-6.833 5.25-11.5l7-17.125c9.833-24.583 14.75-40.458 14.75-47.625 0-3.833-1.25-6.667-3.75-8.5l-2.5-1.75c-.833-.583-1.25-1.583-1.25-3 0-1.5.542-2.917 1.625-4.25 1.167-1.333 2.667-2.5 4.5-3.5 3.75-1.917 7.5-2.875 11.25-2.875 3.833 0 6.833.417 9 1.25s4.042 1.958 5.625 3.375c3.167 2.917 4.75 5.958 4.75 9.125s-.417 6.375-1.25 9.625a100.885 100.885 0 01-3.125 9.75 161.962 161.962 0 01-4 9.5c-3.333 7.167-5.417 11.583-6.25 13.25-.75 1.583-.958 2.167-.625 1.75 15.25-19.75 24.417-31.417 27.5-35 6.417-7.417 11.417-12.5 15-15.25 6.583-4.917 12.792-7.375 18.625-7.375 5.917 0 10.625 1.833 14.125 5.5s5.25 8.5 5.25 14.5c0 5.25-1.333 11.417-4 18.5s-4.458 12.042-5.375 14.875l18.375-24.25 10.25-12.25c6.167-6.917 11.583-11.458 16.25-13.625s8.458-3.25 11.375-3.25c3 0 5.917.542 8.75 1.625 2.917 1.083 5.375 2.625 7.375 4.625 4.25 4.083 6.375 9.5 6.375 16.25 0 6.5-1.5 13.167-4.5 20S512.56 300.583 510.31 305a382.555 382.555 0 00-6.5 13.125c-6.083 13.25-9.125 23.083-9.125 29.5 0 4.5 1.833 6.75 5.5 6.75 3.5 0 6.667-.75 9.5-2.25 2.917-1.5 4.792-2.25 5.625-2.25 1.75 0 2.625.875 2.625 2.625 0 7.417-3.792 13.625-11.375 18.625-5.083 3.417-9.75 5.125-14 5.125-4.167 0-7.542-.5-10.125-1.5s-4.917-2.583-7-4.75c-4.667-4.833-7-10.875-7-18.125s.917-13.917 2.75-20 4-11.958 6.5-17.625c2.5-5.75 5-11 7.5-15.75 2.583-4.833 4.542-8.667 5.875-11.5 2.667-5.833 4-10.125 4-12.875 0-3.25-1.708-4.875-5.125-4.875-4.5 0-12.583 7.458-24.25 22.375-8.833 11.583-14.958 19.917-18.375 25l-8.625 12.5c-4.833 9.167-8.542 16.792-11.125 22.875l-6.375 14.5c-1.583 3.583-2.958 6.125-4.125 7.625-1.167 1.417-2.792 2.125-4.875 2.125a19.24 19.24 0 01-6.125-1c-1.917-.667-3.583-1.542-5-2.625-3.25-2.417-4.875-4.958-4.875-7.625 0-2.75.875-6.458 2.625-11.125 1.833-4.75 4.083-10.042 6.75-15.875l17.5-37c6.25-13.75 9.375-22.458 9.375-26.125 0-3.75-1.708-5.625-5.125-5.625zm12.375 35.25c.083 0 .125-.042.125-.125l.125-.25c-.167.167-.25.292-.25.375zm172.185-88.125a24.799 24.799 0 01-6.25 4.75 22.925 22.925 0 01-7.375 2.25c-2.583.25-5.042-.167-7.375-1.25-2.25-1.083-4.208-2.625-5.875-4.625-3.583-4.167-5.375-8.375-5.375-12.625s.667-7.417 2-9.5c1.417-2.167 3.167-3.917 5.25-5.25 4-2.583 7.75-3.875 11.25-3.875 3.583 0 6.333.25 8.25.75 2 .5 3.833 1.333 5.5 2.5 4.083 2.75 6.125 6.125 6.125 10.125 0 3.917-.583 7.208-1.75 9.875-1.083 2.583-2.542 4.875-4.375 6.875zm-25.625 135.25c2.167 0 3.25 1.417 3.25 4.25 0 3.75-1.708 7.625-5.125 11.625-5 5.833-11.708 8.75-20.125 8.75-9.667 0-16.292-3.917-19.875-11.75-1.333-2.75-2-6.083-2-10s.667-8.25 2-13c1.417-4.833 3.125-9.875 5.125-15.125a369.534 369.534 0 016.75-16.125l6.625-15.75c4.833-11.75 7.25-19.5 7.25-23.25s-.417-6.208-1.25-7.375c-.75-1.25-1.583-2.208-2.5-2.875l-2.5-1.75c-.833-.583-1.25-1.583-1.25-3 0-1.5.542-2.917 1.625-4.25 1.167-1.333 2.667-2.5 4.5-3.5 3.75-1.917 8.125-2.875 13.125-2.875 12.25 0 18.375 3.208 18.375 9.625 0 7.5-1.958 16.083-5.875 25.75-3.917 9.583-7.25 17.333-10 23.25l-7.5 17.25c-5.5 12.667-8.25 21.792-8.25 27.375 0 3.667 1.833 5.5 5.5 5.5 3.583 0 6.292-.458 8.125-1.375 1.833-.917 3.167-1.375 4-1.375zM626.305 370c-2.083-2.167-3.792-4.917-5.125-8.25-1.25-3.417-1.875-7.333-1.875-11.75 0-4.5 1-10.5 3-18 2.083-7.5 4.708-16.042 7.875-25.625l10.5-31.125c14.917-43.333 23.542-76.833 25.875-100.5.75-7 4.167-10.5 10.25-10.5 3.833 0 7 .917 9.5 2.75 4.833 3.667 7.167 7.75 7 12.25-.167 4.5-.958 10-2.375 16.5-1.417 6.417-3.25 13.458-5.5 21.125-2.25 7.583-4.833 15.625-7.75 24.125l-17.25 50.75c-9.917 28.833-14.875 47.458-14.875 55.875 0 4.5 1.833 6.75 5.5 6.75 3.5 0 6.667-.75 9.5-2.25 2.917-1.5 4.792-2.25 5.625-2.25 1.75 0 2.625.875 2.625 2.625 0 7.417-3.792 13.625-11.375 18.625-5.083 3.417-9.75 5.125-14 5.125-4.167 0-7.542-.5-10.125-1.5s-4.917-2.583-7-4.75zm69.185-38.75c.333-7.25 1.542-14.167 3.625-20.75a98.29 98.29 0 018.375-19.25c3.5-6.25 7.583-12.125 12.25-17.625 4.75-5.583 9.875-10.458 15.375-14.625 11.917-8.917 23.958-13.375 36.125-13.375 14.25 0 23.75 5.875 28.5 17.625 1.667 4 2.458 8.75 2.375 14.25-.083 5.417-1.125 10.458-3.125 15.125-2 4.583-4.792 8.792-8.375 12.625-3.5 3.75-7.708 7.125-12.625 10.125-4.833 3-10.125 5.542-15.875 7.625-11.833 4.167-24.5 6.333-38 6.5-.333 1.167-.542 2.917-.625 5.25-.083 2.333.167 4.958.75 7.875.583 2.833 1.583 5.375 3 7.625 3 5 7.333 7.5 13 7.5 9.667 0 19.083-2.833 28.25-8.5 3.25-1.917 5.875-3.875 7.875-5.875 2.083-2.083 3.875-3.125 5.375-3.125s2.792.917 3.875 2.75c1.167 1.75 1.75 3.75 1.75 6 0 4.417-1.25 8.25-3.75 11.5-10.5 10.5-26.125 15.75-46.875 15.75-12.25 0-22.083-3.667-29.5-11-8.333-8.333-12.25-19.667-11.75-34zm73-69c-8.75 0-17.167 6-25.25 18-6.833 10.333-12.333 22.583-16.5 36.75 13.917-1.417 26-6.917 36.25-16.5 9.417-9 14.125-17.625 14.125-25.875s-2.875-12.375-8.625-12.375z" fill="#F8EF24"/><path d="M217.625 345.875l-2.663-1.381-.01.02-.01.019 2.683 1.342zm4.25-5.625l2.007 2.23.017-.016.017-.016-2.041-2.198zm24.625 18.375l1.544-2.573-.012-.006-1.532 2.579zm16.625-1.25l-1.882-2.336-.01.008 1.892 2.328zm2.25-17.75l-2.651 1.404.008.016.009.017 2.634-1.437zm-5.625-8.875l-2.443 1.741.01.014.01.013 2.423-1.768zm-7.125-10l2.443-1.741-.021-.03-.022-.029-2.4 1.8zM249.5 258.5l-2.07-2.171-.005.005 2.075 2.166zm63.5-3.75l-1.981 2.253.007.006.008.007L313 254.75zm1 32.625l1.842 2.368.008-.006-1.85-2.362zm-13.5 3.875l-.612 2.937.013.003.599-2.94zm-4.625-3l-2.515 1.635.019.03.02.029 2.476-1.694zm-4.25-23.25l-2.058 2.183.002.002 2.056-2.185zm-17.125-3l.914 2.857.052-.016.05-.018L274.5 262zm-5.5 3l-1.932-2.295-.053.044-.05.047L269 265zm2.875 31.875l-2.476 1.694.015.022.015.022 2.446-1.738zm7.25 9.625l2.348-1.867-2.348 1.867zm7.125 10.25l-2.567 1.552.011.018.011.018 2.545-1.588zm3.875 38.25l2.541 1.594.007-.011.007-.011-2.555-1.572zm-10.375 11l-1.762-2.428-.014.01-.013.01L279.75 366zm-56 2.375l-1.928 2.299.008.006.009.007 1.911-2.312zM219 353c0-2.149.447-4.061 1.308-5.783l-5.366-2.684c-1.306 2.611-1.942 5.45-1.942 8.467h6zm1.288-5.744c1.022-1.971 2.228-3.547 3.594-4.776l-4.014-4.46c-1.967 1.771-3.595 3.945-4.906 6.474l5.326 2.762zm3.628-4.808c3.088-2.867 6.057-4.073 8.959-4.073v-6c-4.765 0-9.129 2.044-13.041 5.677l4.082 4.396zm8.959-4.073c1.185 0 1.527.299 1.603.376.088.091.397.485.397 1.749h6c0-2.152-.525-4.321-2.103-5.939-1.591-1.631-3.749-2.186-5.897-2.186v6zm2 2.125c0 9.367 3.162 16.586 10.093 20.704l3.064-5.158c-4.569-2.715-7.157-7.58-7.157-15.546h-6zm10.082 20.697c2.511 1.507 5.206 2.303 8.043 2.303v-6c-1.663 0-3.301-.454-4.957-1.447l-3.086 5.144zM253 363.5c2.455 0 4.695-.271 6.653-.889l-1.806-5.722c-1.209.382-2.802.611-4.847.611v6zm6.653-.889a16.198 16.198 0 005.364-2.908l-3.784-4.656a10.193 10.193 0 01-3.386 1.842l1.806 5.722zm5.354-2.9c3.583-2.886 5.618-6.572 5.618-10.961h-6c0 2.278-.965 4.342-3.382 6.289l3.764 4.672zm5.618-10.961c0-3.802-.861-7.343-2.616-10.562l-5.268 2.874c1.245 2.281 1.884 4.823 1.884 7.688h6zm-2.599-10.529c-1.578-2.981-3.533-6.061-5.853-9.239l-4.846 3.536c2.18 2.989 3.975 5.825 5.397 8.511l5.302-2.808zm-5.833-9.212l-7.125-10-4.886 3.482 7.125 10 4.886-3.482zm-7.168-10.059c-9.79-13.053-14.4-24.72-14.4-35.075h-6c0 12.145 5.39 25.061 15.6 38.675l4.8-3.6zm-14.4-35.075c0-8.372 3.512-16.084 10.95-23.209l-4.15-4.332c-8.396 8.042-12.8 17.247-12.8 27.541h6zm10.945-23.204c8.367-7.98 19.132-12.046 32.555-12.046v-6c-14.744 0-27.062 4.517-36.695 13.704l4.14 4.342zm32.555-12.046c11.854 0 20.687 2.919 26.894 8.378l3.962-4.506c-7.627-6.708-18.044-9.872-30.856-9.872v6zm26.909 8.391c5.143 4.463 7.466 9.307 7.466 14.609h6c0-7.365-3.344-13.77-9.534-19.141l-3.932 4.532zm7.466 14.609c0 5.7-2.106 10.064-6.35 13.388l3.7 4.724c5.756-4.509 8.65-10.646 8.65-18.112h-6zm-6.342 13.382c-3.99 3.103-7.619 4.004-11.059 3.303l-1.198 5.88c5.56 1.132 10.931-.55 15.941-4.447l-3.684-4.736zm-11.046 3.306c-1.296-.27-2.146-.857-2.761-1.757l-4.952 3.388c1.551 2.267 3.785 3.68 6.489 4.243l1.224-5.874zm-2.722-1.698c-.539-.829-.706-1.752-.283-3.076l-5.714-1.828c-.91 2.843-.661 5.67.967 8.174l5.03-3.27zm-.283-3.076a24.192 24.192 0 001.143-7.414h-6c0 1.949-.288 3.806-.857 5.586l5.714 1.828zm1.143-7.414c0-2.63-.489-5.124-1.499-7.446l-5.502 2.392c.657 1.511 1.001 3.184 1.001 5.054h6zm-1.499-7.446c-.983-2.262-2.335-4.231-4.07-5.864l-4.112 4.37c1.099 1.034 1.997 2.315 2.68 3.886l5.502-2.392zm-4.068-5.862c-3.337-3.146-7.124-4.942-11.308-4.942v6c2.316 0 4.695.954 7.192 3.308l4.116-4.366zm-11.308-4.942c-3.377 0-6.374.396-8.891 1.302l2.032 5.646c1.65-.594 3.902-.948 6.859-.948v-6zm-8.789 1.268c-2.435.779-4.619 1.963-6.518 3.562l3.864 4.59c1.268-1.067 2.75-1.883 4.482-2.438l-1.828-5.714zm-6.621 3.653c-3.864 3.567-5.84 8.074-5.84 13.329h6c0-3.578 1.274-6.488 3.91-8.921l-4.07-4.408zm-5.84 13.329c0 4.675.809 8.883 2.539 12.534l5.422-2.568c-1.27-2.682-1.961-5.974-1.961-9.966h-6zm2.539 12.534c1.573 3.322 3.488 6.625 5.735 9.91l4.952-3.388c-2.086-3.049-3.838-6.079-5.265-9.09l-5.422 2.568zm5.765 9.954a227.968 227.968 0 007.348 9.754l4.696-3.734a219.853 219.853 0 01-7.152-9.496l-4.892 3.476zm7.348 9.754a94.64 94.64 0 016.906 9.935l5.134-3.104a100.556 100.556 0 00-7.344-10.565l-4.696 3.734zm6.928 9.971c5.102 8.18 7.42 15.034 7.42 20.662h6c0-7.206-2.932-15.184-8.33-23.838l-5.09 3.176zm7.42 20.662c0 5.913-1.243 10.67-3.555 14.428l5.11 3.144c3.021-4.909 4.445-10.819 4.445-17.572h-6zm-3.541 14.406c-2.453 3.909-5.642 7.297-9.596 10.166l3.524 4.856c4.546-3.298 8.274-7.243 11.154-11.834l-5.082-3.188zm-9.623 10.186c-8.57 6.368-18.11 9.533-28.711 9.533v6c11.899 0 22.692-3.585 32.289-10.717l-3.578-4.816zm-28.711 9.533c-10.281 0-18.03-2.467-23.589-7.062l-3.822 4.624c6.941 5.738 16.192 8.438 27.411 8.438v-6zm-23.572-7.049C221.084 362.224 219 357.9 219 353h-6c0 6.934 3.082 12.859 8.822 17.674l3.856-4.598zM400.81 290.25l-2.211-2.027-.022.024-.022.024 2.255 1.979zm-20.875 24.625l2.355 1.859.001-.002-2.356-1.857zm-11.25 14.25l-2.355-1.859-.17.216-.129.244 2.654 1.399zM357.31 352l2.72 1.266.007-.015.007-.015L357.31 352zm-6.75 14.5l2.696 1.317.012-.026.012-.025-2.72-1.266zm-4.625 7.625l-2.242-1.993-.008.008 2.25 1.985zM334.31 375l1.114-2.785-.03-.013-.031-.011L334.31 375zm-5.25-3l-1.932 2.295.006.005.005.005L329.06 372zm-2-16.125l2.683 1.342.017-.034.016-.034-2.716-1.274zm4.75-10.125l-2.683-1.342-.017.034-.016.034 2.716 1.274zm5.25-11.5l2.757 1.182.01-.023.01-.024-2.777-1.135zm7-17.125l2.777 1.135.004-.01.004-.011-2.785-1.114zm11-56.125l1.774-2.419-.027-.02-.027-.019-1.72 2.458zm-2.5-1.75l1.72-2.458-1.72 2.458zm.375-7.25l-2.258-1.976-.036.042-.034.042 2.328 1.892zm4.5-3.5l-1.365-2.671-.036.018-.036.019 1.437 2.634zm20.25-1.625l-1.077 2.8 1.077-2.8zm5.625 3.375l2.032-2.207-.015-.014-.017-.015-2 2.236zm3.5 18.75l2.901.763.003-.009.002-.009-2.906-.745zm-3.125 9.75l2.8 1.077.005-.012.004-.012-2.809-1.053zm-4 9.5l2.72 1.265.006-.012-2.726-1.253zm-6.25 13.25l-2.683-1.342-.015.029-.013.029 2.711 1.284zm-.625 1.75l2.343 1.874.016-.02.016-.021-2.375-1.833zm27.5-35l-2.269-1.963-.005.006 2.274 1.957zm15-15.25l-1.795-2.404-.016.012-.015.012 1.826 2.38zm28.625 46l-2.854-.923 5.245 2.735-2.391-1.812zm18.375-24.25l-2.301-1.925-.046.055-.044.058 2.391 1.812zm10.25-12.25l-2.239-1.996-.032.035-.03.036 2.301 1.925zm16.25-13.625l-1.263-2.721 1.263 2.721zm20.125-1.625l-1.071 2.802.013.005.013.005 1.045-2.812zm7.375 4.625l-2.121 2.121.021.022.022.02 2.078-2.163zm-6 53.125l2.662 1.382.006-.01.005-.01L510.31 305zm-6.5 13.125l-2.713-1.28-.007.014-.006.014 2.726 1.252zm5.875 34l-1.372-2.668-.016.008-.016.009 1.404 2.651zm-3.125 19l-1.651-2.505-.011.008-.012.007 1.674 2.49zM475.435 370l2.163-2.079-.005-.005-2.158 2.084zm2.25-55.75l2.745 1.211.003-.007.003-.008-2.751-1.196zm7.5-15.75l-2.646-1.414-.004.008-.005.009 2.655 1.397zm5.875-11.5l2.714 1.277.008-.015.006-.015L491.06 287zm-25.375 4.625l-2.363-1.848-.011.014-.012.015 2.386 1.819zm-18.375 25l2.469 1.704.011-.015.01-.015-2.49-1.674zm-8.625 12.5l-2.469-1.704-.102.147-.083.158 2.654 1.399zM427.56 352l2.746 1.207.008-.017.007-.017L427.56 352zm-6.375 14.5l2.744 1.212.002-.005-2.746-1.207zm-4.125 7.625l2.316 1.907.026-.032.026-.033-2.368-1.842zm-11 1.125l-.986 2.833.019.007.018.006.949-2.846zm-5-2.625l1.822-2.383-.016-.012-.016-.012-1.79 2.407zm-2.25-18.75l-2.799-1.08-.005.013-.005.014 2.809 1.053zM405.56 338l-2.712-1.283-.008.018-.008.018L405.56 338zm17.5-37l2.712 1.283.01-.021.009-.021L423.06 301zm16.625 3.5h-3v3h3v-3zm.125-.125l-2.683-1.342-.317.634v.708h3zm.125-.25l2.683 1.342-4.804-3.463 2.121 2.121zM427.31 266.25c-1.884 0-3.834.665-5.743 1.642-1.944.996-4.072 2.436-6.37 4.257-4.597 3.643-10.137 9.024-16.598 16.074l4.422 4.054c6.372-6.95 11.666-12.069 15.902-15.426 2.119-1.679 3.907-2.864 5.38-3.618 1.508-.773 2.474-.983 3.007-.983v-6zm-28.755 22.021c-9.589 10.924-16.591 19.182-20.976 24.747l4.712 3.714c4.282-5.435 11.196-13.593 20.774-24.503l-4.51-3.958zm-20.975 24.745l-11.25 14.25 4.71 3.718 11.25-14.25-4.71-3.718zm-11.549 14.71c-4.848 9.194-8.67 16.878-11.455 23.038l5.468 2.472c2.715-6.007 6.476-13.573 11.295-22.712l-5.308-2.798zm-11.441 23.008l-6.75 14.5 5.44 2.532 6.75-14.5-5.44-2.532zm-6.726 14.449c-1.723 3.53-3.12 5.767-4.171 6.949l4.484 3.986c1.616-1.818 3.302-4.664 5.079-8.301l-5.392-2.634zm-4.179 6.957c-.571.648-1.431 1.11-3 1.11v6c2.931 0 5.571-.954 7.5-3.14l-4.5-3.97zm-3 1.11c-1.771 0-3.519-.339-5.261-1.035l-2.228 5.57c2.425.97 4.927 1.465 7.489 1.465v-6zm-5.322-1.059c-1.714-.643-3.164-1.481-4.382-2.496l-3.842 4.61c1.782 1.485 3.832 2.647 6.118 3.504l2.106-5.618zm-4.371-2.486c-2.712-2.284-3.682-4.428-3.682-6.455h-6c0 4.306 2.197 7.996 5.818 11.045l3.864-4.59zm-3.682-6.455c0 .022.001-.106.084-.444.079-.32.212-.745.414-1.289.407-1.09 1.043-2.516 1.935-4.3l-5.366-2.684c-.941 1.883-1.68 3.519-2.19 4.888-.477 1.278-.877 2.633-.877 3.829h6zm2.466-6.101l4.75-10.125-5.432-2.548-4.75 10.125 5.432 2.548zm4.717-10.057c1.536-3.072 3.312-6.964 5.324-11.66l-5.514-2.364c-1.988 4.637-3.712 8.412-5.176 11.34l5.366 2.684zm5.344-11.707l7-17.125-5.554-2.27-7 17.125 5.554 2.27zm7.008-17.146c4.932-12.328 8.652-22.525 11.143-30.57 2.461-7.947 3.822-14.09 3.822-18.169h-6c0 3.088-1.098 8.466-3.553 16.394-2.425 7.83-6.08 17.862-10.982 30.117l5.57 2.228zM361.81 269.5c0-4.536-1.522-8.386-4.976-10.919l-3.548 4.838c1.546 1.134 2.524 2.951 2.524 6.081h6zm-5.03-10.958l-2.5-1.75-3.44 4.916 2.5 1.75 3.44-4.916zm-2.5-1.75c.029.021.061.05.088.083.025.033.03.049.024.034-.017-.041-.082-.231-.082-.659h-6c0 1.98.606 4.111 2.53 5.458l3.44-4.916zm.03-.542c0-.712.238-1.478.953-2.358l-4.656-3.784c-1.452 1.786-2.297 3.854-2.297 6.142h6zm.883-2.274c.896-1.025 2.101-1.982 3.679-2.842l-2.874-5.268c-2.089 1.14-3.884 2.516-5.321 4.158l4.516 3.952zm3.607-2.805c3.38-1.727 6.665-2.546 9.885-2.546v-6c-4.28 0-8.495 1.098-12.615 3.204l2.73 5.342zm9.885-2.546c3.673 0 6.252.407 7.923 1.05l2.154-5.6c-2.662-1.024-6.084-1.45-10.077-1.45v6zm7.923 1.05c1.859.715 3.413 1.658 4.702 2.811l4-4.472c-1.878-1.68-4.073-2.987-6.548-3.939l-2.154 5.6zm4.67 2.782c2.78 2.561 3.782 4.859 3.782 6.918h6c0-4.274-2.165-8.059-5.718-11.332l-4.064 4.414zm3.782 6.918c0 2.901-.381 5.859-1.156 8.88l5.812 1.49c.892-3.479 1.344-6.938 1.344-10.37h-6zm-1.151 8.862a98.42 98.42 0 01-3.033 9.46l5.618 2.106a103.806 103.806 0 003.217-10.04l-5.802-1.526zm-3.024 9.436a159.772 159.772 0 01-3.926 9.324l5.452 2.506a165.126 165.126 0 004.074-9.676l-5.6-2.154zm-3.92 9.312c-3.341 7.182-5.403 11.554-6.213 13.173l5.366 2.684c.857-1.714 2.961-6.176 6.287-13.327l-5.44-2.53zm-6.241 13.231c-.367.775-.671 1.447-.833 1.9a4.49 4.49 0 00-.158.54 3.254 3.254 0 00-.076.617c-.003.119-.048 1.032.605 1.902a3.006 3.006 0 003.332 1.061c.581-.186.956-.504 1.049-.582.261-.22.446-.45.51-.53l-4.686-3.748c.007-.008.03-.037.069-.08.031-.034.115-.125.242-.231.068-.058.423-.363.987-.543a2.991 2.991 0 013.297 1.053c.644.86.596 1.754.593 1.848a2.684 2.684 0 01-.061.515c-.032.145-.064.229-.053.196.047-.13.222-.541.605-1.35l-5.422-2.568zm4.461 4.867c15.276-19.784 24.381-31.369 27.399-34.876l-4.548-3.914c-3.149 3.66-12.377 15.408-27.601 35.124l4.75 3.666zm27.394-34.87c6.401-7.399 11.233-12.282 14.557-14.833l-3.652-4.76c-3.843 2.949-9.01 8.232-15.443 15.667l4.538 3.926zm14.526-14.809c6.271-4.684 11.861-6.779 16.83-6.779v-6c-6.697 0-13.524 2.821-20.42 7.971l3.59 4.808zm16.83-6.779c5.246 0 9.116 1.598 11.955 4.571l4.34-4.142c-4.161-4.36-9.708-6.429-16.295-6.429v6zm11.955 4.571c2.871 3.008 4.42 7.049 4.42 12.429h6c0-6.62-1.951-12.246-6.08-16.571l-4.34 4.142zm4.42 12.429c0 4.767-1.217 10.561-3.808 17.443l5.616 2.114c2.742-7.285 4.192-13.824 4.192-19.557h-6zm-3.808 17.443c-2.665 7.081-4.48 12.1-5.421 15.009l5.708 1.846c.893-2.757 2.661-7.655 5.329-14.741l-5.616-2.114zm-.176 17.744l18.375-24.25-4.782-3.624-18.375 24.25 4.782 3.624zm18.285-24.137l10.25-12.25-4.602-3.85-10.25 12.25 4.602 3.85zm10.188-12.179c6.078-6.816 11.167-10.993 15.274-12.9l-2.526-5.442c-5.226 2.426-10.971 7.333-17.226 14.35l4.478 3.992zm15.274-12.9c4.529-2.102 7.847-2.971 10.112-2.971v-6c-3.568 0-7.833 1.298-12.638 3.529l2.526 5.442zm10.112-2.971c2.63 0 5.183.473 7.679 1.427l2.142-5.604a27.293 27.293 0 00-9.821-1.823v6zm7.705 1.437c2.554.949 4.633 2.269 6.299 3.934l4.242-4.242c-2.334-2.335-5.171-4.098-8.451-5.316l-2.09 5.624zm6.342 3.976c3.573 3.434 5.453 8.024 5.453 14.087h6c0-7.437-2.37-13.68-7.297-18.413l-4.156 4.326zm5.453 14.087c0 6.028-1.389 12.285-4.247 18.794l5.494 2.412c3.142-7.157 4.753-14.234 4.753-21.206h-6zm-4.247 18.794c-2.987 6.804-5.587 12.372-7.801 16.719l5.346 2.724c2.286-4.487 4.936-10.168 7.949-17.031l-5.494-2.412zm-7.79 16.699a384.845 384.845 0 00-6.551 13.227l5.426 2.56a382.098 382.098 0 016.449-13.023l-5.324-2.764zm-6.564 13.255c-6.091 13.267-9.399 23.624-9.399 30.752h6c0-5.705 2.776-15.015 8.851-28.248l-5.452-2.504zm-9.399 30.752c0 2.58.513 5.072 2.049 6.958 1.632 2.002 3.974 2.792 6.451 2.792v-6c-1.19 0-1.598-.335-1.799-.583-.298-.364-.701-1.247-.701-3.167h-6zm8.5 9.75c3.943 0 7.599-.849 10.904-2.599l-2.808-5.302c-2.362 1.25-5.039 1.901-8.096 1.901v6zm10.872-2.582c1.419-.73 2.523-1.245 3.336-1.57.406-.163.7-.262.897-.316.23-.064.204-.032.02-.032v-6c-1.056 0-2.218.406-3.145.777-1.063.425-2.354 1.035-3.852 1.805l2.744 5.336zm4.253-1.918c.196 0 .246.026.2.01a.967.967 0 01-.353-.232.967.967 0 01-.232-.353c-.016-.046.01.004.01.2h6c0-1.337-.336-2.892-1.535-4.09-1.198-1.199-2.753-1.535-4.09-1.535v6zm-.375-.375c0 6.174-3.069 11.533-10.026 16.12l3.302 5.01c8.209-5.413 12.724-12.471 12.724-21.13h-6zm-10.049 16.135c-4.796 3.224-8.881 4.615-12.326 4.615v6c5.055 0 10.304-2.026 15.674-5.635l-3.348-4.98zm-12.326 4.615c-3.965 0-6.932-.481-9.042-1.298l-2.166 5.596c3.057 1.183 6.839 1.702 11.208 1.702v-6zm-9.042-1.298c-2.142-.829-4.114-2.153-5.92-4.031l-4.326 4.158c2.361 2.455 5.055 4.298 8.08 5.469l2.166-5.596zm-5.925-4.036c-4.081-4.227-6.158-9.501-6.158-16.041h-6c0 7.96 2.59 14.769 7.842 20.209l4.316-4.168zm-6.158-16.041c0-6.997.885-13.368 2.622-19.134l-5.744-1.732c-1.929 6.401-2.878 13.363-2.878 20.866h6zm2.622-19.134a150 150 0 016.373-17.28l-5.49-2.422a155.775 155.775 0 00-6.627 17.97l5.744 1.732zm6.379-17.295c2.475-5.693 4.944-10.874 7.404-15.549l-5.31-2.794c-2.54 4.825-5.071 10.144-7.596 15.951l5.502 2.392zm7.395-15.532c2.592-4.85 4.578-8.735 5.943-11.637l-5.428-2.554c-1.302 2.765-3.233 6.547-5.807 11.363l5.292 2.828zm5.957-11.667c2.669-5.837 4.272-10.657 4.272-14.122h-6c0 2.035-1.064 5.799-3.728 11.628l5.456 2.494zm4.272-14.122c0-2.127-.566-4.263-2.214-5.83-1.619-1.54-3.777-2.045-5.911-2.045v6c1.282 0 1.687.308 1.776.392.061.059.349.36.349 1.483h6zm-8.125-7.875c-1.901 0-3.801.765-5.577 1.818-1.819 1.078-3.788 2.627-5.895 4.571-4.216 3.89-9.268 9.629-15.141 17.138l4.726 3.696c5.794-7.408 10.616-12.856 14.484-16.424 1.935-1.786 3.56-3.034 4.886-3.82 1.37-.812 2.168-.979 2.517-.979v-6zm-26.636 23.556c-8.833 11.584-15.007 19.98-18.479 25.145l4.98 3.348c3.362-5.002 9.438-13.272 18.271-24.855l-4.772-3.638zm-18.458 25.115l-8.625 12.5 4.938 3.408 8.625-12.5-4.938-3.408zm-8.81 12.805c-4.853 9.204-8.603 16.911-11.232 23.101l5.522 2.346c2.538-5.976 6.204-13.52 11.018-22.649l-5.308-2.798zm-11.217 23.067l-6.375 14.5 5.492 2.414 6.375-14.5-5.492-2.414zm-6.373 14.495c-1.566 3.543-2.82 5.801-3.749 6.995l4.736 3.684c1.405-1.806 2.9-4.631 4.501-8.255l-5.488-2.424zm-3.697 6.93c-.515.626-1.236 1.032-2.559 1.032v6c2.843 0 5.373-1.01 7.191-3.218l-4.632-3.814zm-2.559 1.032c-1.757 0-3.479-.28-5.176-.846l-1.898 5.692a22.259 22.259 0 007.074 1.154v-6zm-5.139-.833c-1.657-.577-3.032-1.31-4.164-2.175l-3.644 4.766c1.702 1.302 3.66 2.318 5.836 3.075l1.972-5.666zm-4.196-2.199c-2.897-2.154-3.665-3.914-3.665-5.218h-6c0 4.029 2.482 7.353 6.085 10.032l3.58-4.814zM399.185 365c0-2.208.725-5.514 2.434-10.072l-5.618-2.106c-1.791 4.775-2.816 8.886-2.816 12.178h6zm2.424-10.045c1.807-4.681 4.032-9.916 6.679-15.708l-5.456-2.494c-2.686 5.875-4.961 11.223-6.821 16.042l5.598 2.16zm6.663-15.672l17.5-37-5.424-2.566-17.5 37 5.424 2.566zm17.519-37.042c3.141-6.909 5.522-12.607 7.124-17.071 1.554-4.331 2.52-7.877 2.52-10.295h-6c0 1.249-.597 3.89-2.167 8.268-1.523 4.244-3.83 9.775-6.939 16.616l5.462 2.482zm9.644-27.366c0-2.272-.512-4.536-2.064-6.239-1.6-1.757-3.815-2.386-6.061-2.386v6c1.17 0 1.518.308 1.626.427.156.171.499.72.499 2.198h6zm4.25 32.625c.504 0 1.433-.128 2.215-.91.782-.782.91-1.711.91-2.215h-6c0-.421.107-1.287.847-2.028a2.878 2.878 0 012.028-.847v6zm2.808-1.783l.125-.25-5.366-2.684-.125.25 5.366 2.684zm-4.679-3.713a4.444 4.444 0 00-.563.676 3.289 3.289 0 00-.566 1.82h6c0 .468-.114.831-.199 1.044a2.6 2.6 0 01-.242.464 2.129 2.129 0 01-.141.187c-.028.033-.046.05-.047.051l-4.242-4.242zm174.056-85.629l2.168 2.074.022-.023.021-.024-2.211-2.027zm-6.25 4.75l1.342 2.683.037-.019.038-.02-1.417-2.644zm-7.375 2.25l.289 2.986.048-.005.047-.006-.384-2.975zm-7.375-1.25l-1.301 2.703.019.009.019.009 1.263-2.721zm-5.875-4.625l2.305-1.921-.015-.017-.015-.018-2.275 1.956zm-3.375-22.125l-2.511-1.642-.008.013-.008.012 2.527 1.617zm5.25-5.25l1.617 2.527.011-.007-1.628-2.52zm19.5-3.125l-.757 2.903.015.004.014.003.728-2.91zm5.5 2.5l-1.72 2.458.022.015.022.015 1.676-2.488zm4.375 20l-2.748-1.202-.01.021-.009.021 2.767 1.16zm-31.875 158l2.278 1.952.003-.004-2.281-1.948zm-40-3l2.728-1.248-.014-.031-.015-.03-2.699 1.309zm0-23l-2.879-.844-.005.017-.004.016 2.888.811zm5.125-15.125l-2.794-1.092-.005.012-.004.012 2.803 1.068zm6.75-16.125l2.74 1.222.013-.029.012-.03-2.765-1.163zm6.625-15.75l2.765 1.163.005-.011.004-.011-2.774-1.141zm6-30.625l-2.572 1.543.061.103.07.098 2.441-1.744zm-2.5-2.875l1.765-2.426-.022-.016-.023-.016-1.72 2.458zm-2.5-1.75l1.72-2.458-1.72 2.458zm.375-7.25l-2.258-1.976-.036.042-.034.042 2.328 1.892zm4.5-3.5l-1.365-2.671-.036.018-.036.019 1.437 2.634zM594.37 281l2.777 1.135.003-.008-2.78-1.127zm-10 23.25l-2.72-1.264-.016.033-.015.035 2.751 1.196zm-7.5 17.25l-2.751-1.196-.001.001 2.752 1.195zm32.832-107.199a21.812 21.812 0 01-5.499 4.18l2.834 5.288a27.786 27.786 0 007.001-5.32l-4.336-4.148zm-5.424 4.141a19.968 19.968 0 01-6.417 1.958l.768 5.95a25.932 25.932 0 008.333-2.542l-2.684-5.366zm-6.322 1.947c-2.056.199-3.978-.129-5.823-.985l-2.526 5.442c2.822 1.31 5.817 1.816 8.927 1.515l-.578-5.972zm-5.785-.967c-1.847-.889-3.467-2.158-4.871-3.843l-4.61 3.842c1.93 2.315 4.226 4.13 6.879 5.407l2.602-5.406zm-4.901-3.878c-3.256-3.785-4.65-7.326-4.65-10.669h-6c0 5.157 2.189 10.033 6.1 14.581l4.55-3.912zm-4.65-10.669c0-4.04.653-6.517 1.527-7.883l-5.054-3.234c-1.792 2.801-2.473 6.657-2.473 11.117h6zm1.511-7.858c1.196-1.829 2.647-3.271 4.356-4.365l-3.234-5.054c-2.457 1.573-4.506 3.631-6.144 6.135l5.022 3.284zm4.367-4.372c3.684-2.379 6.873-3.395 9.622-3.395v-6c-4.251 0-8.562 1.568-12.878 4.355l3.256 5.04zm9.622-3.395c3.498 0 5.947.25 7.493.653l1.514-5.806c-2.287-.597-5.338-.847-9.007-.847v6zm7.522.66a13.492 13.492 0 014.508 2.048l3.44-4.916a19.448 19.448 0 00-6.492-2.952l-1.456 5.82zm4.552 2.078c3.473 2.339 4.801 4.871 4.801 7.637h6c0-5.234-2.755-9.452-7.449-12.613l-3.352 4.976zm4.801 7.637c0 3.638-.544 6.492-1.498 8.673l5.496 2.404c1.38-3.152 2.002-6.882 2.002-11.077h-6zm-1.517 8.715c-.954 2.275-2.227 4.271-3.819 6.008l4.422 4.054c2.075-2.263 3.718-4.85 4.931-7.742l-5.534-2.32zm-27.233 146.285c.219 0 .269.036.223.016a.477.477 0 01-.169-.131c-.024-.032.028.02.086.247.059.23.11.591.11 1.118h6c0-1.714-.313-3.55-1.429-5.01-1.233-1.612-3.027-2.24-4.821-2.24v6zm.25 1.25c0 2.794-1.268 6.003-4.406 9.677l4.562 3.896c3.695-4.326 5.844-8.867 5.844-13.573h-6zm-4.403 9.673c-4.371 5.1-10.212 7.702-17.847 7.702v6c9.198 0 16.774-3.231 22.403-9.798l-4.556-3.904zm-17.847 7.702c-4.432 0-7.946-.897-10.692-2.52-2.723-1.61-4.886-4.049-6.455-7.478l-5.456 2.496c2.015 4.405 4.956 7.84 8.858 10.147 3.879 2.293 8.51 3.355 13.745 3.355v-6zm-17.176-10.059c-1.087-2.244-1.699-5.104-1.699-8.691h-6c0 4.247.722 8.053 2.301 11.309l5.398-2.618zm-1.699-8.691c0-3.582.611-7.638 1.888-12.189l-5.776-1.622c-1.39 4.949-2.112 9.56-2.112 13.811h6zm1.879-12.156c1.392-4.75 3.074-9.716 5.049-14.901l-5.606-2.136c-2.025 5.315-3.76 10.432-5.201 15.349l5.758 1.688zm5.04-14.877a367.616 367.616 0 016.696-15.995l-5.48-2.444a373.412 373.412 0 00-6.804 16.255l5.588 2.184zm6.721-16.054l6.625-15.75-5.53-2.326-6.625 15.75 5.53 2.326zm6.634-15.772c2.434-5.916 4.283-10.881 5.527-14.873 1.219-3.908 1.949-7.155 1.949-9.518h-6c0 1.387-.479 3.89-1.676 7.732-1.172 3.758-2.949 8.543-5.348 14.377l5.548 2.282zm7.476-24.391c0-1.968-.108-3.702-.355-5.158-.236-1.392-.645-2.829-1.454-3.961l-4.882 3.488c-.005-.007.06.085.152.351.089.26.184.627.269 1.125.17 1.003.27 2.373.27 4.155h6zm-1.678-8.918c-.9-1.501-1.986-2.797-3.307-3.758l-3.53 4.852c.512.373 1.093.993 1.693 1.992l5.144-3.086zm-3.352-3.79l-2.5-1.75-3.44 4.916 2.5 1.75 3.44-4.916zm-2.5-1.75c.029.021.061.05.088.083.025.033.03.049.024.034-.017-.041-.082-.231-.082-.659h-6c0 1.98.605 4.111 2.53 5.458l3.44-4.916zm.03-.542c0-.712.238-1.478.953-2.358l-4.656-3.784c-1.452 1.786-2.297 3.854-2.297 6.142h6zm.883-2.274c.896-1.025 2.101-1.982 3.679-2.842l-2.874-5.268c-2.089 1.14-3.884 2.516-5.321 4.158l4.516 3.952zm3.607-2.805c3.255-1.663 7.146-2.546 11.76-2.546v-6c-5.386 0-10.245 1.034-14.49 3.204l2.73 5.342zm11.76-2.546c5.961 0 9.971.797 12.389 2.064 1.165.61 1.877 1.285 2.307 1.961.422.663.679 1.493.679 2.6h6c0-2.101-.508-4.079-1.617-5.822-1.102-1.73-2.687-3.06-4.585-4.054-3.706-1.942-8.884-2.749-15.173-2.749v6zm15.375 6.625c0 6.995-1.831 15.185-5.655 24.623l5.56 2.254c4.009-9.895 6.095-18.872 6.095-26.877h-6zm-5.652 24.615c-3.908 9.562-7.221 17.264-9.943 23.121l5.44 2.528c2.778-5.976 6.132-13.774 10.057-23.379l-5.554-2.27zm-9.974 23.189l-7.5 17.25 5.502 2.392 7.5-17.25-5.502-2.392zm-7.501 17.251c-5.49 12.645-8.498 22.293-8.498 28.57h6c0-4.89 2.492-13.492 8.002-26.18l-5.504-2.39zm-8.498 28.57c0 2.296.576 4.569 2.254 6.246 1.677 1.678 3.95 2.254 6.246 2.254v-6c-1.371 0-1.848-.341-2.004-.496-.155-.156-.496-.633-.496-2.004h-6zm8.5 8.5c3.75 0 7.013-.465 9.467-1.692l-2.684-5.366c-1.213.606-3.366 1.058-6.783 1.058v6zm9.467-1.692c.846-.423 1.509-.706 2.008-.877.539-.185.717-.181.65-.181v-6c-.9 0-1.805.233-2.6.507-.835.286-1.754.691-2.742 1.185l2.684 5.366zm37.593 6.067l-2.817 1.031.015.042.017.041 2.785-1.114zm1.125-29.75l-2.891-.803-.004.015-.004.015 2.899.773zm7.875-25.625l-2.843-.959-.003.009-.003.009 2.849.941zm10.5-31.125l-2.837-.976-.003.008-.003.009 2.843.959zm25.875-100.5l-2.983-.32-.001.013-.002.013 2.986.294zm19.75-7.75l1.813-2.39-.019-.015-.02-.014-1.774 2.419zm4.625 28.75l2.929.647.002-.008-2.931-.639zm-5.5 21.125l2.876.853.003-.008-2.879-.845zM677.68 241l-2.838-.974-.002.009 2.84.965zm-17.25 50.75l2.837.976.003-.011-2.84-.965zm.125 60.375l-1.372-2.668-.016.008-.016.009 1.404 2.651zm-3.125 19l-1.651-2.505-.011.008-.012.007 1.674 2.49zm-28.963-3.204c-1.768-1.84-3.284-4.242-4.502-7.285l-5.57 2.228c1.449 3.624 3.35 6.722 5.747 9.215l4.325-4.158zm-4.47-7.202c-1.106-3.024-1.692-6.581-1.692-10.719h-6c0 4.695.664 8.972 2.058 12.781l5.634-2.062zM622.305 350c0-4.117.925-9.825 2.899-17.227l-5.798-1.546c-2.026 7.598-3.101 13.89-3.101 18.773h6zm2.891-17.197c2.067-7.442 4.677-15.937 7.833-25.487l-5.698-1.882c-3.177 9.616-5.817 18.205-7.917 25.763l5.782 1.606zm7.827-25.469l10.5-31.125-5.686-1.918-10.5 31.125 5.686 1.918zm10.494-31.108c14.936-43.39 23.655-77.158 26.024-101.182l-5.972-.588c-2.298 23.309-10.829 56.541-25.726 99.818l5.674 1.952zm26.021-101.156c.334-3.117 1.218-5.002 2.289-6.099 1.012-1.038 2.535-1.721 4.978-1.721v-6c-3.641 0-6.868 1.067-9.272 3.529-2.346 2.403-3.545 5.768-3.961 9.651l5.966.64zm7.267-7.82c3.349 0 5.852.795 7.726 2.169l3.548-4.838c-3.126-2.292-6.956-3.331-11.274-3.331v6zm7.687 2.14c4.35 3.3 5.934 6.546 5.815 9.749l5.996.222c.215-5.797-2.868-10.718-8.185-14.751l-3.626 4.78zm5.815 9.749c-.158 4.26-.913 9.572-2.308 15.972l5.862 1.278c1.439-6.6 2.266-12.288 2.442-17.028l-5.996-.222zm-2.306 15.964c-1.4 6.338-3.215 13.313-5.45 20.927l5.758 1.69c2.265-7.719 4.116-14.828 5.55-21.323l-5.858-1.294zm-5.447 20.919c-2.237 7.538-4.807 15.539-7.712 24.004l5.676 1.948c2.928-8.535 5.525-16.617 7.788-24.246l-5.752-1.706zm-7.714 24.013l-17.25 50.75 5.68 1.93 17.25-50.75-5.68-1.93zm-17.247 50.739c-4.97 14.45-8.714 26.389-11.218 35.798-2.483 9.325-3.82 16.418-3.82 21.053h6c0-3.782 1.142-10.21 3.618-19.509 2.453-9.217 6.147-21.007 11.094-35.39l-5.674-1.952zm-15.038 56.851c0 2.58.513 5.072 2.049 6.958 1.632 2.002 3.974 2.792 6.451 2.792v-6c-1.19 0-1.598-.335-1.799-.583-.298-.364-.701-1.247-.701-3.167h-6zm8.5 9.75c3.943 0 7.599-.849 10.904-2.599l-2.808-5.302c-2.362 1.25-5.039 1.901-8.096 1.901v6zm10.872-2.582c1.419-.73 2.523-1.245 3.336-1.57.406-.163.7-.262.897-.316.23-.064.204-.032.02-.032v-6c-1.056 0-2.218.406-3.145.777-1.063.425-2.354 1.035-3.852 1.805l2.744 5.336zm4.253-1.918c.196 0 .246.026.2.01a.967.967 0 01-.353-.232.967.967 0 01-.232-.353c-.016-.046.01.004.01.2h6c0-1.337-.336-2.892-1.535-4.09-1.198-1.199-2.753-1.535-4.09-1.535v6zm-.375-.375c0 6.174-3.069 11.533-10.026 16.12l3.302 5.01c8.209-5.413 12.724-12.471 12.724-21.13h-6zm-10.049 16.135c-4.796 3.224-8.881 4.615-12.326 4.615v6c5.055 0 10.304-2.026 15.674-5.635l-3.348-4.98zm-12.326 4.615c-3.965 0-6.932-.481-9.042-1.298l-2.166 5.596c3.057 1.183 6.839 1.702 11.208 1.702v-6zm-9.042-1.298c-2.142-.829-4.114-2.153-5.921-4.031l-4.325 4.158c2.361 2.455 5.055 4.298 8.08 5.469l2.166-5.596zm61.102-40.702l-2.997-.138-.001.017v.016l2.998.105zm3.625-20.75l2.86.905.003-.01-2.863-.895zm8.375-19.25l2.609 1.481.004-.008.005-.007-2.618-1.466zm12.25-17.625l-2.285-1.944-.003.003 2.288 1.941zM735.115 259l-1.797-2.402-.007.005-.008.006 1.812 2.391zm64.625 4.25l-2.781 1.124.006.015.006.015 2.769-1.154zm2.375 14.25l3 .046v-.001l-3-.045zm-3.125 15.125l2.75 1.2.004-.009.003-.009-2.757-1.182zm-8.375 12.625l-2.192-2.049-.001.002 2.193 2.047zm-12.625 10.125l-1.563-2.561-.009.006-.01.006 1.582 2.549zM762.115 323l.996 2.83.013-.005.013-.004-1.022-2.821zm-38 6.5l-.037-3-2.234.028-.614 2.148 2.885.824zm.125 13.125l-2.942.588.002.009.002.008 2.938-.605zm3 7.625l2.572-1.543-.016-.028-.017-.027-2.539 1.598zm41.25-1l-1.524-2.584-.027.016-.026.016 1.577 2.552zm7.875-5.875l2.121 2.121-2.121-2.121zm9.25-.375l-2.583 1.526.042.07.045.068 2.496-1.664zm-2 17.5l2.121 2.121.138-.137.119-.155-2.378-1.829zm-76.375 4.75l-2.121 2.121.006.006.006.006 2.109-2.133zm36-85l-2.488-1.676-.007.011-.007.01 2.502 1.655zM726.74 317l-2.878-.846-1.26 4.283 4.442-.452-.304-2.985zm36.25-16.5l2.049 2.191.012-.011.012-.011-2.073-2.169zm-64.503 30.888c.322-7.003 1.487-13.661 3.488-19.983l-5.72-1.81c-2.166 6.844-3.417 14.02-3.762 21.517l5.994.276zm3.491-19.993a95.343 95.343 0 018.121-18.664l-5.218-2.962a101.324 101.324 0 00-8.629 19.836l5.726 1.79zm8.13-18.679a107.988 107.988 0 0111.92-17.15l-4.576-3.882a114.144 114.144 0 00-12.58 18.1l5.236 2.932zm11.917-17.147c4.618-5.428 9.586-10.15 14.902-14.178l-3.624-4.782c-5.684 4.306-10.966 9.333-15.848 15.072l4.57 3.888zm14.887-14.167c11.517-8.617 22.943-12.777 34.328-12.777v-6c-12.948 0-25.605 4.757-37.922 13.973l3.594 4.804zm34.328-12.777c6.719 0 12.073 1.384 16.235 3.958 4.135 2.557 7.314 6.425 9.484 11.791l5.562-2.248c-2.58-6.384-6.526-11.329-11.891-14.646-5.338-3.302-11.859-4.855-19.39-4.855v6zm25.731 15.779c1.472 3.533 2.223 7.855 2.144 13.051l6 .09c.088-5.804-.744-10.982-2.606-15.449l-5.538 2.308zm2.144 13.05c-.077 5.052-1.046 9.705-2.882 13.989l5.514 2.364c2.164-5.05 3.279-10.48 3.368-16.261l-6-.092zm-2.875 13.971c-1.857 4.256-4.455 8.18-7.817 11.776l4.384 4.098c3.804-4.07 6.79-8.563 8.933-13.474l-5.5-2.4zm-7.818 11.778c-3.293 3.528-7.282 6.736-11.995 9.611l3.126 5.122c5.121-3.125 9.548-6.667 13.255-10.639l-4.386-4.094zm-12.014 9.623c-4.644 2.882-9.746 5.336-15.315 7.353l2.044 5.642c5.931-2.149 11.412-4.779 16.435-7.897l-3.164-5.098zm-15.289 7.344c-11.503 4.05-23.843 6.167-37.041 6.33l.074 6c13.802-.171 26.795-2.387 38.959-6.67l-1.992-5.66zm-39.889 8.506c-.436 1.526-.653 3.57-.738 5.967l5.996.214c.081-2.27.281-3.725.512-4.533l-5.77-1.648zm-.738 5.967c-.094 2.62.189 5.484.806 8.57l5.884-1.176c-.55-2.747-.767-5.133-.694-7.18l-5.996-.214zm.81 8.587c.649 3.155 1.775 6.038 3.399 8.618l5.078-3.196c-1.209-1.92-2.083-4.12-2.601-6.632l-5.876 1.21zm3.366 8.563c3.522 5.872 8.815 8.957 15.572 8.957v-6c-4.576 0-7.95-1.915-10.428-6.043l-5.144 3.086zm15.572 8.957c10.286 0 20.243-3.023 29.827-8.948l-3.154-5.104c-8.749 5.409-17.626 8.052-26.673 8.052v6zm29.774-8.916c3.4-2.005 6.245-4.111 8.472-6.338l-4.242-4.242c-1.773 1.773-4.178 3.584-7.278 5.412l3.048 5.168zm8.472-6.338c1.996-1.995 3.034-2.246 3.254-2.246v-6c-2.78 0-5.325 1.833-7.496 4.004l4.242 4.242zm3.254-2.246c.092 0 .189.014.357.134.206.146.538.47.935 1.142l5.166-3.052c-1.373-2.323-3.483-4.224-6.458-4.224v6zm1.379 1.414c.815 1.222 1.246 2.635 1.246 4.336h6c0-2.799-.735-5.386-2.254-7.664l-4.992 3.328zm1.246 4.336c0 3.809-1.063 6.987-3.128 9.671l4.756 3.658c2.935-3.816 4.372-8.305 4.372-13.329h-6zm-2.871 9.379c-9.745 9.745-24.479 14.871-44.754 14.871v6c21.225 0 37.741-5.374 48.996-16.629l-4.242-4.242zM736.74 373.25c-11.608 0-20.633-3.451-27.391-10.133l-4.218 4.266c8.075 7.985 18.717 11.867 31.609 11.867v-6zm-27.379-10.121c-7.62-7.621-11.351-18.078-10.873-31.774l-5.996-.21c-.522 14.971 3.58 27.18 12.627 36.226l4.242-4.242zM768.49 259.25c-10.265 0-19.467 7.044-27.738 19.324l4.976 3.352c7.895-11.72 15.527-16.676 22.762-16.676v-6zm-27.752 19.345c-7.027 10.625-12.641 23.158-16.876 37.559l5.756 1.692c4.098-13.933 9.484-25.9 16.124-35.941l-5.004-3.31zm-13.694 41.39c14.571-1.484 27.267-7.264 37.995-17.294l-4.098-4.382c-9.772 9.136-21.243 14.356-34.505 15.706l.608 5.97zm38.019-17.316c9.675-9.247 15.052-18.606 15.052-28.044h-6c0 7.062-4.039 14.953-13.198 23.706l4.146 4.338zm15.052-28.044c0-4.381-.747-8.201-2.695-10.997-2.086-2.992-5.237-4.378-8.93-4.378v6c2.057 0 3.218.677 4.008 1.809.926 1.33 1.617 3.697 1.617 7.566h6z" fill="#F8EF24"/></svg>