<svg width="109" height="126" fill="none" xmlns="http://www.w3.org/2000/svg"><path d="M105.403 84.603c.257-.827-.566-1.034-.874-1.499.463-1.137-.462-1.602-1.079-2.17-1.182-1.448-2.929-1.551-4.574-2.016h-.668c-1.13-.517-2.261-1.034-3.546-1.034-.463-.31-.925-.62-1.542-.517-.36-.155-.668-.361-1.028-.516-.308-.207-.668-.414-.976-.62l-.463-.466c-.257-1.085-1.336-1.808-1.079-3.049.668-4.651 3.495-8.062 6.63-11.266 6.732-6.926 7.965-15.35 6.269-24.498 0-.517 0-1.085-.462-1.498-.052-.517-.052-1.086-.617-1.344-.36-.414-.308-1.137-1.028-1.24 0-.155-.051-.31-.102-.466-.103-.878-.771-1.24-1.44-1.602-.36-.568-.976-.517-1.49-.568-1.079-.827-2.107-.414-3.135.051-1.079 0-1.695.776-2.21 1.55-1.438 2.275-3.34 3.929-5.704 5.014l-.308.155c-.514 0-1.028.052-1.593.052L82.38 36.9c-.309-.362-.668-.466-1.08-.362-.462-.207-.976-.465-1.439-.672l-.514-.517c-.05-.413-.102-.827-.513-1.033-.309-.362-.617-.776-.925-1.137-.206-.31-.412-.569-.566-.879a85.342 85.342 0 01-1.49-3.1c-1.233-4.032-1.799-8.322-4.111-11.991-.412-1.344-1.182-2.43-2.159-3.411-.257-.672-.616-1.189-1.439-1.137a5.93 5.93 0 00-2.107-2.119c-.205-.31-.462-.62-.668-.93-.36-.93-1.49-.93-2.055-1.55l-2.467-1.551c-.36-.155-.668-.362-1.028-.517-.925-.672-1.902-1.137-3.032-.982-.36-.207-.668-.465-1.028-.672v.104h-.051V4.34c-.72-.723-1.593-.93-2.57-.93-.154-.052-.308-.052-.514-.052-2.158-.93-4.06-.62-5.704 1.034-.309.517-.617 1.085-.977 1.602.052 1.24-.36 2.532.412 3.67h.051c-.051.516-.103 1.085.36 1.498.41 2.326 1.439 4.496 2.26 6.719-.05.155-.05.31 0 .517-.153 1.757.31 3.566-.564 5.22-1.131 1.498-2.416 2.79-4.112 3.617-.873 0-1.696 0-2.57.052-.513 0-1.027-.052-1.54-.052-.618-.723-1.389-.413-2.16-.413a13.466 13.466 0 00-1.438-.104c-.411-.516-1.028-.413-1.593-.413-1.182 0-2.364-.052-3.546-.052-2.21-.827-4.471-.672-6.681.052-.514 0-1.028 0-1.542.052-.874.155-1.696.361-2.57.516h-.513c-1.182.362-2.364.672-3.598 1.034-3.34.93-6.27 2.688-8.736 5.168L6.835 34.11c-.874.465-1.542 1.188-2.056 2.067-.41.207-.514.569-.514.982-.668.362-1.027.879-.925 1.654-.154.31-.308.672-.462.982-.463.62-.77 1.292-.565 2.067-.052.775-.257 1.55.41 2.17.155.104.36.414.566.724.206.62.565 1.137 1.336 1.137.617.827 1.593.879 2.518 1.086 3.29.775 6.733 1.292 9.456 3.617.052.362.206.724.566.879.205.517.36 1.033.565 1.602v.517c.051.051.051.103.103.155-.052-.052-.052-.104-.103-.155 0 1.395-.052 2.739-.052 4.134-.05.155-.102.259-.102.414l-.463 1.085c-.154.362-.308.724-.514 1.034-.154.31-.36.672-.514.982-.616.361-.976.93-1.027 1.602-1.645 2.067-2.93 4.341-4.06 6.719-.617.516-.874 1.292-1.08 2.067-.77.93-1.284 1.964-1.49 3.152-.154.362-.308.724-.462 1.034-.309.465-.566.93-.514 1.55l-.463 1.55c0 .156-.051.363-.051.518-.257.827-.771 1.653-.514 2.584 0 1.033-.668 2.015-.103 3.1 0 1.086-.205 2.171.411 3.153.206.517-.051 1.137.514 1.55.206.931.411 1.861 1.182 2.533 2.056 3.463 4.06 3.825 6.835 1.137 1.388-1.344 2.724-2.79 4.111-4.186 2.724-2.688 7.915-3.411 12.643 2.067.513 1.034 1.027 2.016 1.541 3.05.36 1.188.72 2.428 1.08 3.617.719 2.946 1.387 5.84 2.107 8.786.513 1.395.976 2.739 1.49 4.135a6.31 6.31 0 001.542 2.584c.719 1.602 1.747 2.997 3.134 4.134 2.621 3.153 5.808 5.582 9.765 6.77 6.167 1.913 9.97-1.498 8.942-7.855-.463-2.894-1.182-5.737-1.696-8.579-1.44-8.166 4.008-13.593 12.18-12.145 3.186.568 6.372 1.136 9.558 1.602 5.705.827 11.203.723 16.137-2.894 3.186-1.654 5.961-3.722 7.195-7.288.616-.878.411-1.809.411-2.687zM36.642 28.27c0-.052 0-.052 0 0 0-.052 0-.052 0 0zm36.744-.775c.052.103.154.206.206.258-.103-.052-.206-.155-.206-.258zm4.728 8.062c0-.052 0-.103-.051-.103h.102c.052.051 0 .051-.05.103zm19.683 51.268c0-.052 0-.155-.052-.207.103.052.103.156.052.207.051 0 .051 0 0 0zM52.676 17.882h-.154c.05-.052.102-.104.154-.104v.104zM91.99 83h-.103v-.104c.051 0 .103.052.103.104zM54.166 14.316v.103c-.051-.052-.051-.103-.051-.103h.051zm-1.593-1.55c0-.052 0-.052 0 0zM40.239 33.334v.103c-.051 0-.103-.052-.154-.052.103-.051.103-.051.154-.051zM13.053 84.55c-.051 0 0 0 0 0z" fill="#F8EF24"/></svg>