<svg width="617" height="126" fill="none" xmlns="http://www.w3.org/2000/svg"><path d="M171.859 73.688c0 2.078-.539 3.945-1.617 5.601-1.062 1.656-2.625 2.953-4.687 3.89-2.063.938-4.508 1.407-7.336 1.407-3.391 0-6.188-.64-8.391-1.922a11.324 11.324 0 01-3.82-3.68c-.969-1.546-1.453-3.046-1.453-4.5 0-.843.289-1.562.867-2.156.594-.61 1.344-.914 2.25-.914.734 0 1.351.234 1.851.703.516.469.954 1.164 1.313 2.086.437 1.094.906 2.008 1.406 2.742.516.735 1.235 1.344 2.156 1.828.922.47 2.133.704 3.633.704 2.063 0 3.735-.477 5.016-1.43 1.297-.969 1.945-2.172 1.945-3.61 0-1.14-.351-2.062-1.054-2.765-.688-.719-1.586-1.266-2.696-1.64-1.094-.376-2.562-.774-4.406-1.196-2.469-.578-4.539-1.25-6.211-2.016-1.656-.78-2.977-1.836-3.961-3.164-.969-1.343-1.453-3.008-1.453-4.992 0-1.89.516-3.57 1.547-5.039 1.031-1.469 2.523-2.594 4.476-3.375 1.954-.797 4.25-1.195 6.891-1.195 2.109 0 3.93.265 5.461.797 1.547.515 2.828 1.21 3.844 2.086 1.015.859 1.758 1.765 2.226 2.718.469.953.703 1.883.703 2.79 0 .827-.297 1.577-.89 2.25-.578.656-1.305.984-2.18.984-.797 0-1.406-.196-1.828-.586-.406-.407-.852-1.063-1.336-1.969-.625-1.297-1.375-2.305-2.25-3.023C161 54.367 159.594 54 157.656 54c-1.797 0-3.25.398-4.359 1.195-1.094.782-1.641 1.727-1.641 2.836 0 .688.188 1.282.563 1.782.375.5.89.93 1.547 1.289.656.359 1.32.64 1.992.843.672.203 1.781.5 3.328.89 1.937.454 3.687.954 5.25 1.5 1.578.548 2.914 1.212 4.008 1.993a8.034 8.034 0 012.578 2.977c.625 1.187.937 2.648.937 4.382zm3.554-3.891V53.273c0-1.406.312-2.46.937-3.164.641-.703 1.477-1.054 2.508-1.054 1.078 0 1.93.351 2.555 1.054.64.703.96 1.758.96 3.164v16.899c0 1.922.211 3.531.633 4.828.438 1.281 1.203 2.281 2.297 3 1.094.703 2.625 1.055 4.594 1.055 2.719 0 4.641-.72 5.766-2.157 1.125-1.453 1.687-3.648 1.687-6.585v-17.04c0-1.421.313-2.476.938-3.164.625-.703 1.46-1.054 2.507-1.054 1.047 0 1.891.351 2.532 1.054.656.688.984 1.743.984 3.164v16.524c0 2.687-.266 4.93-.797 6.726-.516 1.797-1.5 3.375-2.953 4.735-1.25 1.156-2.703 2-4.359 2.531-1.657.531-3.594.797-5.813.797-2.641 0-4.914-.281-6.82-.844-1.906-.578-3.461-1.46-4.664-2.648-1.203-1.203-2.086-2.735-2.649-4.594-.562-1.875-.843-4.11-.843-6.703zm43.092-16.57l13.383 20.25V53.039c0-1.328.281-2.32.843-2.977.578-.671 1.352-1.007 2.321-1.007 1 0 1.789.336 2.367 1.008.578.656.867 1.648.867 2.976v27.023c0 3.016-1.25 4.524-3.75 4.524a4.781 4.781 0 01-1.688-.281 4.121 4.121 0 01-1.406-.844 8.594 8.594 0 01-1.219-1.36c-.375-.53-.75-1.07-1.125-1.617L216.044 60.47v20.133c0 1.312-.305 2.304-.914 2.976-.61.672-1.391 1.008-2.344 1.008-.984 0-1.773-.336-2.367-1.008-.594-.687-.891-1.68-.891-2.976V54.094c0-1.125.125-2.008.375-2.649.297-.703.789-1.273 1.477-1.71a3.965 3.965 0 012.226-.68c.625 0 1.157.101 1.594.304.453.203.844.477 1.172.82.344.344.687.79 1.031 1.337.36.547.727 1.117 1.102 1.71zm51.108 20.46c0 2.079-.54 3.946-1.618 5.602-1.062 1.656-2.625 2.953-4.687 3.89-2.063.938-4.508 1.407-7.336 1.407-3.391 0-6.188-.64-8.391-1.922a11.324 11.324 0 01-3.82-3.68c-.969-1.546-1.453-3.046-1.453-4.5 0-.843.289-1.562.867-2.156.594-.61 1.344-.914 2.25-.914.734 0 1.352.234 1.852.703.515.469.953 1.164 1.312 2.086.438 1.094.906 2.008 1.406 2.742.516.735 1.235 1.344 2.157 1.828.921.47 2.132.704 3.632.704 2.063 0 3.735-.477 5.016-1.43 1.297-.969 1.945-2.172 1.945-3.61 0-1.14-.351-2.062-1.054-2.765-.688-.719-1.586-1.266-2.696-1.64-1.093-.376-2.562-.774-4.406-1.196-2.469-.578-4.539-1.25-6.211-2.016-1.656-.78-2.976-1.836-3.961-3.164-.969-1.343-1.453-3.008-1.453-4.992 0-1.89.516-3.57 1.547-5.039 1.031-1.469 2.523-2.594 4.477-3.375 1.953-.797 4.25-1.195 6.89-1.195 2.11 0 3.93.265 5.461.797 1.547.515 2.828 1.21 3.844 2.086 1.015.859 1.758 1.765 2.226 2.718.469.953.704 1.883.704 2.79 0 .827-.297 1.577-.891 2.25-.578.656-1.305.984-2.18.984-.797 0-1.406-.196-1.828-.586-.406-.407-.851-1.063-1.336-1.969-.625-1.297-1.375-2.305-2.25-3.023-.875-.735-2.281-1.102-4.219-1.102-1.796 0-3.25.398-4.359 1.195-1.094.782-1.641 1.727-1.641 2.836 0 .688.188 1.282.563 1.782.375.5.891.93 1.547 1.289.656.359 1.32.64 1.992.843.672.203 1.781.5 3.328.89 1.938.454 3.688.954 5.25 1.5 1.578.548 2.914 1.212 4.008 1.993a8.025 8.025 0 012.578 2.977c.625 1.187.938 2.648.938 4.382zm10.514-20.414v9.844h15.023v-9.844c0-1.406.313-2.46.938-3.164.64-.703 1.476-1.054 2.507-1.054 1.047 0 1.891.351 2.532 1.054.656.688.984 1.743.984 3.164v27.07c0 1.423-.328 2.485-.984 3.188-.657.703-1.5 1.055-2.532 1.055-1.047 0-1.882-.352-2.507-1.055-.625-.719-.938-1.781-.938-3.187V68.789h-15.023v11.555c0 1.422-.329 2.484-.985 3.187-.656.703-1.5 1.055-2.531 1.055-1.047 0-1.883-.352-2.508-1.055-.625-.719-.937-1.781-.937-3.187v-27.07c0-1.407.304-2.462.914-3.165.625-.703 1.468-1.054 2.531-1.054 1.047 0 1.891.351 2.531 1.054.656.688.985 1.743.985 3.164zm27.342 27.07v-27.07c0-1.406.32-2.46.961-3.164.64-.703 1.468-1.054 2.484-1.054 1.047 0 1.891.351 2.531 1.054.657.688.985 1.743.985 3.164v27.07c0 1.423-.328 2.485-.985 3.188-.64.703-1.484 1.055-2.531 1.055-1 0-1.828-.352-2.484-1.055-.641-.719-.961-1.781-.961-3.187zm21.436-27.116l13.383 20.25V53.039c0-1.328.281-2.32.843-2.977.578-.671 1.352-1.007 2.321-1.007 1 0 1.789.336 2.367 1.008.578.656.867 1.648.867 2.976v27.023c0 3.016-1.25 4.524-3.75 4.524a4.781 4.781 0 01-1.688-.281 4.121 4.121 0 01-1.406-.844 8.594 8.594 0 01-1.219-1.36c-.375-.53-.75-1.07-1.125-1.617L326.444 60.47v20.133c0 1.312-.305 2.304-.914 2.976-.61.672-1.391 1.008-2.344 1.008-.984 0-1.773-.336-2.367-1.008-.594-.687-.891-1.68-.891-2.976V54.094c0-1.125.125-2.008.375-2.649.297-.703.789-1.273 1.477-1.71a3.965 3.965 0 012.226-.68c.625 0 1.157.101 1.594.304.453.203.844.477 1.172.82.344.344.687.79 1.031 1.337.36.547.727 1.117 1.102 1.71zm47.639 1.78h-15.68v8.438h14.438c1.062 0 1.851.242 2.367.727.531.469.797 1.094.797 1.875 0 .781-.258 1.422-.774 1.922-.515.484-1.312.726-2.39.726h-14.438v9.774h16.219c1.094 0 1.914.258 2.461.773.562.5.843 1.172.843 2.016 0 .812-.281 1.476-.843 1.992-.547.5-1.367.75-2.461.75h-18.914c-1.516 0-2.61-.336-3.282-1.008-.656-.672-.984-1.758-.984-3.258V53.906c0-1 .149-1.812.445-2.437a2.714 2.714 0 011.383-1.383c.641-.297 1.453-.445 2.438-.445h18.375c1.109 0 1.929.25 2.461.75.547.484.82 1.125.82 1.922 0 .812-.273 1.468-.82 1.968-.532.485-1.352.727-2.461.727zm23.583-1.734V65.32l13.664-14.25c.656-.687 1.211-1.195 1.664-1.523.468-.328 1.086-.492 1.851-.492 1 0 1.805.297 2.414.89.625.578.938 1.29.938 2.133 0 1.016-.524 2.024-1.571 3.024l-8.46 8.015 9.75 13.969c.687.969 1.203 1.82 1.546 2.555.344.718.516 1.421.516 2.109 0 .766-.305 1.43-.914 1.992-.594.563-1.406.844-2.438.844-.968 0-1.757-.203-2.367-.61a5.472 5.472 0 01-1.547-1.663 108.84 108.84 0 01-1.125-1.876l-8.226-12.656-5.695 5.461v7.102c0 1.437-.329 2.508-.985 3.21-.656.688-1.5 1.032-2.531 1.032a3.401 3.401 0 01-1.711-.469 3.285 3.285 0 01-1.266-1.265c-.218-.438-.351-.946-.398-1.524-.047-.578-.07-1.414-.07-2.508V53.273c0-1.406.304-2.46.914-3.164.625-.703 1.468-1.054 2.531-1.054 1.047 0 1.891.351 2.531 1.054.656.688.985 1.743.985 3.164zm26.404 27.07v-27.07c0-1.406.321-2.46.961-3.164.641-.703 1.469-1.054 2.485-1.054 1.046 0 1.89.351 2.531 1.054.656.688.984 1.743.984 3.164v27.07c0 1.423-.328 2.485-.984 3.188-.641.703-1.485 1.055-2.531 1.055-1 0-1.829-.352-2.485-1.055-.64-.719-.961-1.781-.961-3.187zm16.678-30.702h9.071c2.359 0 4.383.218 6.07.656 1.688.437 3.219 1.258 4.594 2.46 3.578 3.063 5.367 7.72 5.367 13.97 0 2.062-.18 3.945-.539 5.648-.359 1.703-.914 3.242-1.664 4.617a14.389 14.389 0 01-2.883 3.656 11.936 11.936 0 01-3.023 1.993 13.69 13.69 0 01-3.539 1.054c-1.25.203-2.665.305-4.243.305h-9.07c-1.266 0-2.219-.188-2.859-.563-.641-.39-1.063-.93-1.266-1.617-.187-.703-.281-1.61-.281-2.718V53.906c0-1.5.336-2.586 1.008-3.258.671-.671 1.757-1.007 3.257-1.007zm2.696 5.507v23.32h5.273c1.156 0 2.063-.03 2.719-.093a8.497 8.497 0 002.039-.469 5.56 5.56 0 001.828-1.054c2.328-1.97 3.492-5.36 3.492-10.172 0-3.39-.515-5.93-1.547-7.618-1.015-1.687-2.273-2.757-3.773-3.21-1.5-.47-3.313-.704-5.438-.704h-4.593zm52.233 18.54c0 2.078-.54 3.945-1.618 5.601-1.062 1.656-2.625 2.953-4.687 3.89-2.063.938-4.508 1.407-7.336 1.407-3.391 0-6.188-.64-8.391-1.922a11.324 11.324 0 01-3.82-3.68c-.969-1.546-1.453-3.046-1.453-4.5 0-.843.289-1.562.867-2.156.594-.61 1.344-.914 2.25-.914.734 0 1.352.234 1.852.703.515.469.953 1.164 1.312 2.086.438 1.094.906 2.008 1.406 2.742.516.735 1.235 1.344 2.157 1.828.921.47 2.132.704 3.632.704 2.063 0 3.735-.477 5.016-1.43 1.297-.969 1.945-2.172 1.945-3.61 0-1.14-.351-2.062-1.054-2.765-.688-.719-1.586-1.266-2.696-1.64-1.093-.376-2.562-.774-4.406-1.196-2.469-.578-4.539-1.25-6.211-2.016-1.656-.78-2.976-1.836-3.961-3.164-.969-1.343-1.453-3.008-1.453-4.992 0-1.89.516-3.57 1.547-5.039 1.031-1.469 2.523-2.594 4.477-3.375 1.953-.797 4.25-1.195 6.89-1.195 2.11 0 3.93.265 5.461.797 1.547.515 2.828 1.21 3.844 2.086 1.015.859 1.758 1.765 2.226 2.718.469.953.704 1.883.704 2.79 0 .827-.297 1.577-.891 2.25-.578.656-1.305.984-2.18.984-.797 0-1.406-.196-1.828-.586-.406-.407-.851-1.063-1.336-1.969-.625-1.297-1.375-2.305-2.25-3.023-.875-.735-2.281-1.102-4.219-1.102-1.796 0-3.25.398-4.359 1.195-1.094.782-1.641 1.727-1.641 2.836 0 .688.188 1.282.563 1.782.375.5.891.93 1.547 1.289.656.359 1.32.64 1.992.843.672.203 1.781.5 3.328.89 1.938.454 3.688.954 5.25 1.5 1.578.548 2.914 1.212 4.008 1.993a8.025 8.025 0 012.578 2.977c.625 1.187.938 2.648.938 4.382z" fill="#004B8D"/><path d="M105.403 84.603c.257-.827-.566-1.034-.874-1.499.463-1.137-.462-1.602-1.079-2.17-1.182-1.448-2.929-1.551-4.574-2.016h-.668c-1.13-.517-2.261-1.034-3.546-1.034-.463-.31-.925-.62-1.542-.517-.36-.155-.668-.361-1.028-.516-.308-.207-.668-.414-.976-.62l-.463-.466c-.257-1.085-1.336-1.808-1.079-3.049.668-4.651 3.495-8.062 6.63-11.266 6.732-6.926 7.965-15.35 6.269-24.498 0-.517 0-1.085-.462-1.498-.052-.517-.052-1.086-.617-1.344-.36-.414-.308-1.137-1.028-1.24 0-.155-.051-.31-.102-.466-.103-.878-.771-1.24-1.44-1.602-.36-.568-.976-.517-1.49-.568-1.079-.827-2.107-.414-3.135.051-1.079 0-1.695.776-2.21 1.55-1.438 2.275-3.34 3.929-5.704 5.014l-.308.155c-.514 0-1.028.052-1.593.052L82.38 36.9c-.309-.362-.668-.466-1.08-.362-.462-.207-.976-.465-1.439-.672l-.514-.517c-.05-.413-.102-.827-.513-1.033-.309-.362-.617-.776-.925-1.137-.206-.31-.412-.569-.566-.879a85.342 85.342 0 01-1.49-3.1c-1.233-4.032-1.799-8.322-4.111-11.991-.412-1.344-1.182-2.43-2.159-3.411-.257-.672-.616-1.189-1.439-1.137a5.93 5.93 0 00-2.107-2.119c-.205-.31-.462-.62-.668-.93-.36-.93-1.49-.93-2.055-1.55l-2.467-1.551c-.36-.155-.668-.362-1.028-.517-.925-.672-1.902-1.137-3.032-.982-.36-.207-.668-.465-1.028-.672v.104h-.051V4.34c-.72-.723-1.593-.93-2.57-.93-.154-.052-.308-.052-.514-.052-2.158-.93-4.06-.62-5.704 1.034-.309.517-.617 1.085-.977 1.602.052 1.24-.36 2.532.412 3.67h.051c-.051.516-.103 1.085.36 1.498.41 2.326 1.439 4.496 2.26 6.719-.05.155-.05.31 0 .517-.153 1.757.31 3.566-.564 5.22-1.131 1.498-2.416 2.79-4.112 3.617-.873 0-1.696 0-2.57.052-.513 0-1.027-.052-1.54-.052-.618-.723-1.389-.413-2.16-.413a13.466 13.466 0 00-1.438-.104c-.411-.516-1.028-.413-1.593-.413-1.182 0-2.364-.052-3.546-.052-2.21-.827-4.471-.672-6.681.052-.514 0-1.028 0-1.542.052-.874.155-1.696.361-2.57.516h-.513c-1.182.362-2.364.672-3.598 1.034-3.34.93-6.27 2.688-8.736 5.168L6.835 34.11c-.874.465-1.542 1.188-2.056 2.067-.41.207-.514.569-.514.982-.668.362-1.027.879-.925 1.654-.154.31-.308.672-.462.982-.463.62-.77 1.292-.565 2.067-.052.775-.257 1.55.41 2.17.155.104.36.414.566.724.206.62.565 1.137 1.336 1.137.617.827 1.593.879 2.518 1.086 3.29.775 6.733 1.292 9.456 3.617.052.362.206.724.566.879.205.517.36 1.033.565 1.602v.517c.051.051.051.103.103.155-.052-.052-.052-.104-.103-.155 0 1.395-.052 2.739-.052 4.134-.05.155-.102.259-.102.414l-.463 1.085c-.154.362-.308.724-.514 1.034-.154.31-.36.672-.514.982-.616.361-.976.93-1.027 1.602-1.645 2.067-2.93 4.341-4.06 6.719-.617.516-.874 1.292-1.08 2.067-.77.93-1.284 1.964-1.49 3.152-.154.362-.308.724-.462 1.034-.309.465-.566.93-.514 1.55l-.463 1.55c0 .156-.051.363-.051.518-.257.827-.771 1.653-.514 2.584 0 1.033-.668 2.015-.103 3.1 0 1.086-.205 2.171.411 3.153.206.517-.051 1.137.514 1.55.206.931.411 1.861 1.182 2.533 2.056 3.463 4.06 3.825 6.835 1.137 1.388-1.344 2.724-2.79 4.111-4.186 2.724-2.688 7.915-3.411 12.643 2.067.513 1.034 1.027 2.016 1.541 3.05.36 1.188.72 2.428 1.08 3.617.719 2.946 1.387 5.84 2.107 8.786.513 1.395.976 2.739 1.49 4.135a6.31 6.31 0 001.542 2.584c.719 1.602 1.747 2.997 3.134 4.134 2.621 3.153 5.808 5.582 9.765 6.77 6.167 1.913 9.97-1.498 8.942-7.855-.463-2.894-1.182-5.737-1.696-8.579-1.44-8.166 4.008-13.593 12.18-12.145 3.186.568 6.372 1.136 9.558 1.602 5.705.827 11.203.723 16.137-2.894 3.186-1.654 5.961-3.722 7.195-7.288.616-.878.411-1.809.411-2.687zM36.642 28.27c0-.052 0-.052 0 0 0-.052 0-.052 0 0zm36.744-.775c.052.103.154.206.206.258-.103-.052-.206-.155-.206-.258zm4.728 8.062c0-.052 0-.103-.051-.103h.102c.052.051 0 .051-.05.103zm19.683 51.268c0-.052 0-.155-.052-.207.103.052.103.156.052.207.051 0 .051 0 0 0zM52.676 17.882h-.154c.05-.052.102-.104.154-.104v.104zM91.99 83h-.103v-.104c.051 0 .103.052.103.104zM54.166 14.316v.103c-.051-.052-.051-.103-.051-.103h.051zm-1.593-1.55c0-.052 0-.052 0 0zM40.239 33.334v.103c-.051 0-.103-.052-.154-.052.103-.051.103-.051.154-.051zM13.053 84.55c-.051 0 0 0 0 0z" fill="#F8EF24"/></svg>