<svg width="903" height="390" viewBox="0 0 903 390" fill="none" xmlns="http://www.w3.org/2000/svg">
<path d="M66.816 89H50.496V59.432H22.08V89H5.76V19.064H22.08V48.296H50.496V19.064H66.816V89ZM101.554 38.456C104.851 38.456 107.859 38.968 110.578 39.992C113.331 41.016 115.683 42.504 117.635 44.456C119.618 46.408 121.155 48.808 122.243 51.656C123.363 54.472 123.923 57.672 123.923 61.256C123.923 62.376 123.875 63.288 123.779 63.992C123.683 64.696 123.507 65.256 123.25 65.672C122.994 66.088 122.642 66.376 122.194 66.536C121.779 66.696 121.235 66.776 120.562 66.776H91.8585C92.3385 70.936 93.6025 73.96 95.6505 75.848C97.6985 77.704 100.338 78.632 103.57 78.632C105.298 78.632 106.786 78.424 108.035 78.008C109.283 77.592 110.386 77.128 111.346 76.616C112.338 76.104 113.234 75.64 114.035 75.224C114.866 74.808 115.73 74.6 116.626 74.6C117.81 74.6 118.706 75.032 119.314 75.896L123.635 81.224C122.099 82.984 120.435 84.424 118.642 85.544C116.883 86.632 115.059 87.496 113.171 88.136C111.314 88.744 109.442 89.16 107.554 89.384C105.698 89.64 103.922 89.768 102.226 89.768C98.7385 89.768 95.4585 89.208 92.3865 88.088C89.3465 86.936 86.6745 85.24 84.3705 83C82.0985 80.76 80.2905 77.976 78.9465 74.648C77.6345 71.32 76.9785 67.448 76.9785 63.032C76.9785 59.704 77.5385 56.552 78.6585 53.576C79.8105 50.6 81.4425 47.992 83.5545 45.752C85.6985 43.512 88.2745 41.736 91.2825 40.424C94.3225 39.112 97.7465 38.456 101.554 38.456ZM101.843 48.728C98.9945 48.728 96.7705 49.544 95.1705 51.176C93.5705 52.776 92.5145 55.096 92.0025 58.136H110.578C110.578 56.952 110.418 55.8 110.099 54.68C109.811 53.56 109.314 52.568 108.61 51.704C107.939 50.808 107.043 50.088 105.922 49.544C104.802 49 103.442 48.728 101.843 48.728ZM149.741 17.144V89H134.861V17.144H149.741ZM163.676 104.792V39.224H172.892C173.82 39.224 174.588 39.432 175.196 39.848C175.836 40.264 176.284 40.888 176.54 41.72L177.644 45.368C178.604 44.312 179.628 43.352 180.716 42.488C181.836 41.624 183.02 40.888 184.268 40.28C185.548 39.64 186.908 39.144 188.348 38.792C189.82 38.44 191.42 38.264 193.148 38.264C195.74 38.264 198.14 38.84 200.348 39.992C202.556 41.144 204.46 42.808 206.06 44.984C207.66 47.16 208.908 49.832 209.804 53C210.732 56.136 211.196 59.704 211.196 63.704C211.196 67.448 210.668 70.904 209.612 74.072C208.588 77.24 207.132 79.992 205.244 82.328C203.388 84.664 201.148 86.488 198.524 87.8C195.932 89.112 193.052 89.768 189.884 89.768C187.292 89.768 185.116 89.4 183.356 88.664C181.596 87.928 179.996 86.936 178.556 85.688V104.792H163.676ZM187.964 49.64C186.876 49.64 185.884 49.752 184.988 49.976C184.124 50.168 183.308 50.456 182.54 50.84C181.804 51.224 181.116 51.72 180.476 52.328C179.836 52.904 179.196 53.576 178.556 54.344V75.464C179.676 76.712 180.892 77.592 182.204 78.104C183.516 78.584 184.892 78.824 186.332 78.824C187.708 78.824 188.972 78.552 190.124 78.008C191.276 77.464 192.268 76.6 193.1 75.416C193.964 74.2 194.636 72.632 195.116 70.712C195.596 68.792 195.836 66.456 195.836 63.704C195.836 61.08 195.644 58.872 195.26 57.08C194.876 55.288 194.332 53.848 193.628 52.76C192.956 51.64 192.14 50.84 191.18 50.36C190.22 49.88 189.148 49.64 187.964 49.64ZM236.456 39.224V89H221.576V39.224H236.456ZM238.184 25.592C238.184 26.776 237.944 27.896 237.464 28.952C236.984 29.976 236.328 30.888 235.496 31.688C234.664 32.456 233.688 33.08 232.568 33.56C231.48 34.008 230.312 34.232 229.064 34.232C227.848 34.232 226.712 34.008 225.656 33.56C224.6 33.08 223.656 32.456 222.824 31.688C222.024 30.888 221.384 29.976 220.904 28.952C220.456 27.896 220.232 26.776 220.232 25.592C220.232 24.376 220.456 23.24 220.904 22.184C221.384 21.128 222.024 20.2 222.824 19.4C223.656 18.6 224.6 17.976 225.656 17.528C226.712 17.08 227.848 16.856 229.064 16.856C230.312 16.856 231.48 17.08 232.568 17.528C233.688 17.976 234.664 18.6 235.496 19.4C236.328 20.2 236.984 21.128 237.464 22.184C237.944 23.24 238.184 24.376 238.184 25.592ZM250.391 89V39.224H259.607C260.535 39.224 261.303 39.432 261.911 39.848C262.551 40.264 262.999 40.888 263.255 41.72L264.119 44.6C265.079 43.704 266.071 42.872 267.095 42.104C268.119 41.336 269.207 40.696 270.359 40.184C271.543 39.64 272.807 39.224 274.151 38.936C275.527 38.616 277.015 38.456 278.615 38.456C281.335 38.456 283.735 38.936 285.815 39.896C287.927 40.824 289.703 42.136 291.143 43.832C292.583 45.496 293.671 47.496 294.407 49.832C295.143 52.136 295.511 54.648 295.511 57.368V89H280.631V57.368C280.631 54.936 280.071 53.048 278.951 51.704C277.831 50.328 276.183 49.64 274.007 49.64C272.375 49.64 270.839 49.992 269.399 50.696C267.959 51.4 266.583 52.344 265.271 53.528V89H250.391ZM325.567 38.36C327.679 38.36 329.663 38.568 331.519 38.984C333.407 39.4 335.151 39.992 336.751 40.76H351.775V46.184C351.775 47.016 351.535 47.672 351.055 48.152C350.607 48.632 349.823 49 348.703 49.256L345.055 50.072C345.503 51.512 345.727 53 345.727 54.536C345.727 57.032 345.199 59.272 344.143 61.256C343.119 63.24 341.695 64.936 339.871 66.344C338.079 67.72 335.951 68.792 333.487 69.56C331.023 70.296 328.383 70.664 325.567 70.664C323.999 70.664 322.527 70.568 321.151 70.376C320.063 71.016 319.519 71.752 319.519 72.584C319.519 73.416 319.951 74.024 320.815 74.408C321.711 74.76 322.879 75.016 324.319 75.176C325.759 75.304 327.407 75.4 329.263 75.464C331.119 75.496 333.007 75.608 334.927 75.8C336.847 75.96 338.735 76.248 340.591 76.664C342.447 77.08 344.095 77.752 345.535 78.68C346.975 79.608 348.127 80.856 348.991 82.424C349.887 83.96 350.335 85.928 350.335 88.328C350.335 90.568 349.791 92.76 348.703 94.904C347.615 97.048 346.015 98.952 343.903 100.616C341.791 102.28 339.199 103.608 336.127 104.6C333.055 105.624 329.535 106.136 325.567 106.136C321.663 106.136 318.287 105.768 315.439 105.032C312.623 104.296 310.271 103.32 308.383 102.104C306.527 100.92 305.151 99.544 304.255 97.976C303.359 96.408 302.911 94.776 302.911 93.08C302.911 90.872 303.583 89.016 304.927 87.512C306.271 85.976 308.111 84.776 310.447 83.912C309.327 83.176 308.431 82.232 307.759 81.08C307.087 79.928 306.751 78.472 306.751 76.712C306.751 75.976 306.879 75.208 307.135 74.408C307.391 73.576 307.791 72.776 308.335 72.008C308.879 71.24 309.567 70.504 310.399 69.8C311.231 69.096 312.223 68.472 313.375 67.928C310.783 66.552 308.735 64.728 307.231 62.456C305.759 60.184 305.023 57.544 305.023 54.536C305.023 52.04 305.551 49.8 306.607 47.816C307.663 45.8 309.103 44.104 310.927 42.728C312.783 41.32 314.959 40.248 317.455 39.512C319.951 38.744 322.655 38.36 325.567 38.36ZM336.607 90.824C336.607 90.024 336.351 89.384 335.839 88.904C335.359 88.424 334.687 88.04 333.823 87.752C332.991 87.464 331.999 87.256 330.847 87.128C329.727 87 328.511 86.904 327.199 86.84C325.887 86.776 324.527 86.728 323.119 86.696C321.711 86.632 320.319 86.52 318.943 86.36C318.015 87 317.247 87.72 316.639 88.52C316.063 89.288 315.775 90.168 315.775 91.16C315.775 91.864 315.919 92.504 316.207 93.08C316.527 93.656 317.071 94.152 317.839 94.568C318.607 94.984 319.631 95.304 320.911 95.528C322.223 95.784 323.871 95.912 325.855 95.912C327.999 95.912 329.759 95.784 331.135 95.528C332.511 95.272 333.599 94.92 334.399 94.472C335.231 94.024 335.807 93.48 336.127 92.84C336.447 92.232 336.607 91.56 336.607 90.824ZM325.567 61.496C328.031 61.496 329.807 60.888 330.895 59.672C332.015 58.424 332.575 56.824 332.575 54.872C332.575 52.856 332.015 51.272 330.895 50.12C329.807 48.968 328.031 48.392 325.567 48.392C323.103 48.392 321.311 48.968 320.191 50.12C319.103 51.272 318.559 52.856 318.559 54.872C318.559 55.832 318.687 56.712 318.943 57.512C319.231 58.312 319.663 59.016 320.239 59.624C320.815 60.2 321.535 60.664 322.399 61.016C323.295 61.336 324.351 61.496 325.567 61.496ZM396.875 47.384H399.467C401.867 47.384 403.595 46.632 404.651 45.128L420.395 22.28C421.259 21.032 422.235 20.184 423.323 19.736C424.443 19.288 425.803 19.064 427.403 19.064H441.515L420.779 47.336C420.043 48.36 419.275 49.208 418.475 49.88C417.675 50.552 416.859 51.112 416.027 51.56C417.243 52.008 418.347 52.632 419.339 53.432C420.363 54.2 421.291 55.24 422.123 56.552L443.243 89H428.747C427.819 89 427.019 88.936 426.347 88.808C425.707 88.68 425.147 88.488 424.667 88.232C424.187 87.976 423.771 87.672 423.419 87.32C423.067 86.936 422.731 86.504 422.411 86.024L406.571 61.688C405.995 60.792 405.259 60.168 404.363 59.816C403.499 59.432 402.315 59.24 400.811 59.24H396.875V89H380.651V19.064H396.875V47.384ZM466.463 39.224V89H451.582V39.224H466.463ZM468.19 25.592C468.19 26.776 467.95 27.896 467.47 28.952C466.99 29.976 466.334 30.888 465.502 31.688C464.67 32.456 463.694 33.08 462.575 33.56C461.486 34.008 460.318 34.232 459.07 34.232C457.854 34.232 456.718 34.008 455.662 33.56C454.606 33.08 453.662 32.456 452.83 31.688C452.03 30.888 451.39 29.976 450.91 28.952C450.462 27.896 450.238 26.776 450.238 25.592C450.238 24.376 450.462 23.24 450.91 22.184C451.39 21.128 452.03 20.2 452.83 19.4C453.662 18.6 454.606 17.976 455.662 17.528C456.718 17.08 457.854 16.856 459.07 16.856C460.318 16.856 461.486 17.08 462.575 17.528C463.694 17.976 464.67 18.6 465.502 19.4C466.334 20.2 466.99 21.128 467.47 22.184C467.95 23.24 468.19 24.376 468.19 25.592ZM515.342 89C514.414 89 513.63 88.792 512.99 88.376C512.382 87.96 511.95 87.336 511.694 86.504L510.542 82.712C509.55 83.768 508.51 84.728 507.422 85.592C506.334 86.456 505.15 87.208 503.87 87.848C502.622 88.456 501.262 88.92 499.79 89.24C498.35 89.592 496.782 89.768 495.086 89.768C492.494 89.768 490.094 89.192 487.886 88.04C485.678 86.888 483.774 85.224 482.174 83.048C480.574 80.872 479.31 78.216 478.382 75.08C477.486 71.912 477.038 68.312 477.038 64.28C477.038 60.568 477.55 57.128 478.574 53.96C479.598 50.76 481.038 48.008 482.894 45.704C484.782 43.368 487.038 41.544 489.662 40.232C492.286 38.92 495.182 38.264 498.35 38.264C500.91 38.264 503.07 38.648 504.83 39.416C506.622 40.152 508.238 41.128 509.678 42.344V17.144H524.558V89H515.342ZM500.27 78.344C501.358 78.344 502.334 78.248 503.198 78.056C504.094 77.832 504.91 77.528 505.646 77.144C506.382 76.76 507.07 76.28 507.71 75.704C508.382 75.128 509.038 74.456 509.678 73.688V52.568C508.526 51.32 507.294 50.456 505.982 49.976C504.702 49.464 503.342 49.208 501.902 49.208C500.526 49.208 499.262 49.48 498.11 50.024C496.958 50.568 495.95 51.448 495.086 52.664C494.254 53.848 493.598 55.4 493.118 57.32C492.638 59.24 492.398 61.56 492.398 64.28C492.398 66.904 492.59 69.112 492.974 70.904C493.358 72.696 493.886 74.152 494.558 75.272C495.262 76.36 496.094 77.144 497.054 77.624C498.014 78.104 499.086 78.344 500.27 78.344ZM568.437 50.12C568.053 50.728 567.637 51.16 567.189 51.416C566.773 51.672 566.229 51.8 565.557 51.8C564.853 51.8 564.149 51.656 563.445 51.368C562.741 51.048 561.973 50.712 561.141 50.36C560.341 50.008 559.429 49.688 558.405 49.4C557.381 49.08 556.213 48.92 554.901 48.92C553.013 48.92 551.557 49.288 550.533 50.024C549.541 50.728 549.045 51.72 549.045 53C549.045 53.928 549.365 54.696 550.005 55.304C550.677 55.912 551.557 56.456 552.645 56.936C553.733 57.384 554.965 57.816 556.341 58.232C557.717 58.648 559.125 59.112 560.565 59.624C562.005 60.136 563.413 60.744 564.789 61.448C566.165 62.12 567.397 62.968 568.485 63.992C569.573 64.984 570.437 66.2 571.077 67.64C571.749 69.08 572.085 70.808 572.085 72.824C572.085 75.288 571.637 77.56 570.741 79.64C569.845 81.72 568.501 83.512 566.709 85.016C564.949 86.52 562.757 87.688 560.133 88.52C557.541 89.352 554.549 89.768 551.157 89.768C549.461 89.768 547.765 89.608 546.069 89.288C544.373 88.968 542.725 88.536 541.125 87.992C539.557 87.448 538.101 86.808 536.757 86.072C535.413 85.304 534.261 84.488 533.301 83.624L536.757 78.152C537.173 77.512 537.669 77.016 538.245 76.664C538.821 76.28 539.573 76.088 540.501 76.088C541.365 76.088 542.133 76.28 542.805 76.664C543.509 77.048 544.261 77.464 545.061 77.912C545.861 78.36 546.789 78.776 547.845 79.16C548.933 79.544 550.293 79.736 551.925 79.736C553.077 79.736 554.053 79.624 554.853 79.4C555.653 79.144 556.293 78.808 556.773 78.392C557.253 77.976 557.605 77.512 557.829 77C558.053 76.488 558.165 75.96 558.165 75.416C558.165 74.424 557.829 73.608 557.157 72.968C556.485 72.328 555.605 71.784 554.517 71.336C553.429 70.856 552.181 70.424 550.773 70.04C549.397 69.624 547.989 69.16 546.549 68.648C545.109 68.136 543.685 67.528 542.277 66.824C540.901 66.088 539.669 65.176 538.581 64.088C537.493 62.968 536.613 61.608 535.941 60.008C535.269 58.408 534.933 56.472 534.933 54.2C534.933 52.088 535.333 50.088 536.133 48.2C536.965 46.28 538.197 44.6 539.829 43.16C541.461 41.72 543.509 40.584 545.973 39.752C548.437 38.888 551.317 38.456 554.613 38.456C556.405 38.456 558.133 38.616 559.797 38.936C561.493 39.256 563.077 39.704 564.549 40.28C566.021 40.856 567.365 41.544 568.581 42.344C569.797 43.112 570.869 43.96 571.797 44.888L568.437 50.12ZM0 143.224H11.904C12.96 143.224 13.872 143.464 14.64 143.944C15.408 144.424 15.872 145.048 16.032 145.816L21.024 168.136C21.408 169.832 21.76 171.48 22.08 173.08C22.4 174.68 22.688 176.264 22.944 177.832C23.392 176.264 23.856 174.696 24.336 173.128C24.848 171.528 25.344 169.864 25.824 168.136L32.064 145.768C32.256 145.032 32.72 144.424 33.456 143.944C34.192 143.432 35.04 143.176 36 143.176H42.624C43.68 143.176 44.576 143.432 45.312 143.944C46.08 144.424 46.56 145.032 46.752 145.768L52.704 168.136C53.152 169.832 53.6 171.48 54.048 173.08C54.528 174.68 54.976 176.296 55.392 177.928C55.648 176.328 55.952 174.744 56.304 173.176C56.688 171.576 57.088 169.896 57.504 168.136L62.784 145.816C62.944 145.048 63.392 144.424 64.128 143.944C64.896 143.464 65.76 143.224 66.72 143.224H78.048L62.592 193H50.496C49.856 193 49.312 192.808 48.864 192.424C48.416 192.04 48.064 191.4 47.808 190.504L40.704 165.688C40.384 164.568 40.08 163.464 39.792 162.376C39.504 161.288 39.248 160.2 39.024 159.112C38.8 160.232 38.544 161.352 38.256 162.472C38 163.56 37.696 164.664 37.344 165.784L30.144 190.504C29.664 192.168 28.608 193 26.976 193H15.456L0 143.224ZM101.134 143.224V193H86.2537V143.224H101.134ZM102.862 129.592C102.862 130.776 102.622 131.896 102.142 132.952C101.662 133.976 101.006 134.888 100.174 135.688C99.3417 136.456 98.3657 137.08 97.2457 137.56C96.1577 138.008 94.9897 138.232 93.7417 138.232C92.5257 138.232 91.3897 138.008 90.3337 137.56C89.2777 137.08 88.3337 136.456 87.5017 135.688C86.7017 134.888 86.0617 133.976 85.5817 132.952C85.1337 131.896 84.9097 130.776 84.9097 129.592C84.9097 128.376 85.1337 127.24 85.5817 126.184C86.0617 125.128 86.7017 124.2 87.5017 123.4C88.3337 122.6 89.2777 121.976 90.3337 121.528C91.3897 121.08 92.5257 120.856 93.7417 120.856C94.9897 120.856 96.1577 121.08 97.2457 121.528C98.3657 121.976 99.3417 122.6 100.174 123.4C101.006 124.2 101.662 125.128 102.142 126.184C102.622 127.24 102.862 128.376 102.862 129.592ZM132.541 193.768C130.173 193.768 128.077 193.432 126.253 192.76C124.461 192.056 122.941 191.08 121.693 189.832C120.477 188.552 119.549 187.016 118.909 185.224C118.269 183.432 117.949 181.432 117.949 179.224V153.496H113.725C112.957 153.496 112.301 153.256 111.757 152.776C111.213 152.264 110.941 151.528 110.941 150.568V144.76L118.861 143.224L121.789 131.08C122.173 129.544 123.261 128.776 125.053 128.776H132.829V143.32H144.925V153.496H132.829V178.216C132.829 179.368 133.101 180.328 133.645 181.096C134.221 181.832 135.037 182.2 136.093 182.2C136.637 182.2 137.085 182.152 137.437 182.056C137.821 181.928 138.141 181.8 138.397 181.672C138.685 181.512 138.941 181.384 139.165 181.288C139.421 181.16 139.709 181.096 140.029 181.096C140.477 181.096 140.829 181.208 141.085 181.432C141.373 181.624 141.661 181.944 141.949 182.392L146.461 189.448C144.541 190.888 142.381 191.976 139.981 192.712C137.581 193.416 135.101 193.768 132.541 193.768ZM155.426 193V121.144H170.306V147.592C172.098 146.056 174.034 144.824 176.114 143.896C178.226 142.936 180.738 142.456 183.65 142.456C186.37 142.456 188.77 142.936 190.85 143.896C192.962 144.824 194.738 146.136 196.178 147.832C197.618 149.496 198.706 151.496 199.442 153.832C200.178 156.136 200.546 158.648 200.546 161.368V193H185.666V161.368C185.666 158.936 185.106 157.048 183.986 155.704C182.866 154.328 181.218 153.64 179.042 153.64C177.41 153.64 175.874 153.992 174.434 154.696C172.994 155.4 171.618 156.344 170.306 157.528V193H155.426ZM280.508 174.904C280.892 174.904 281.276 174.984 281.66 175.144C282.044 175.272 282.412 175.512 282.764 175.864L289.196 182.632C286.38 186.312 282.844 189.096 278.588 190.984C274.364 192.84 269.356 193.768 263.564 193.768C258.252 193.768 253.484 192.872 249.26 191.08C245.068 189.256 241.5 186.76 238.556 183.592C235.644 180.392 233.404 176.616 231.836 172.264C230.268 167.88 229.484 163.128 229.484 158.008C229.484 152.792 230.38 148.008 232.172 143.656C233.964 139.272 236.46 135.496 239.66 132.328C242.892 129.16 246.748 126.696 251.228 124.936C255.708 123.176 260.652 122.296 266.06 122.296C268.684 122.296 271.148 122.536 273.452 123.016C275.788 123.464 277.964 124.104 279.98 124.936C281.996 125.736 283.852 126.712 285.548 127.864C287.244 128.984 288.748 130.232 290.06 131.608L284.588 138.952C284.236 139.4 283.82 139.816 283.34 140.2C282.86 140.552 282.188 140.728 281.324 140.728C280.748 140.728 280.204 140.6 279.692 140.344C279.18 140.088 278.636 139.784 278.06 139.432C277.484 139.048 276.844 138.648 276.14 138.232C275.468 137.784 274.652 137.384 273.692 137.032C272.764 136.648 271.66 136.328 270.38 136.072C269.132 135.816 267.66 135.688 265.964 135.688C263.02 135.688 260.332 136.216 257.9 137.272C255.468 138.296 253.372 139.784 251.612 141.736C249.884 143.656 248.524 145.992 247.532 148.744C246.572 151.496 246.092 154.584 246.092 158.008C246.092 161.592 246.572 164.776 247.532 167.56C248.524 170.344 249.852 172.696 251.516 174.616C253.212 176.504 255.18 177.944 257.42 178.936C259.66 179.928 262.06 180.424 264.62 180.424C266.092 180.424 267.436 180.36 268.652 180.232C269.868 180.072 270.988 179.816 272.012 179.464C273.068 179.112 274.06 178.664 274.988 178.12C275.948 177.544 276.908 176.84 277.868 176.008C278.252 175.688 278.668 175.432 279.116 175.24C279.564 175.016 280.028 174.904 280.508 174.904ZM332.898 193C331.49 193 330.418 192.808 329.682 192.424C328.978 192.04 328.386 191.24 327.906 190.024L326.85 187.288C325.602 188.344 324.402 189.272 323.25 190.072C322.098 190.872 320.898 191.56 319.65 192.136C318.434 192.68 317.122 193.08 315.714 193.336C314.338 193.624 312.802 193.768 311.106 193.768C308.834 193.768 306.77 193.48 304.914 192.904C303.058 192.296 301.474 191.416 300.162 190.264C298.882 189.112 297.89 187.688 297.186 185.992C296.482 184.264 296.13 182.28 296.13 180.04C296.13 178.28 296.578 176.472 297.474 174.616C298.37 172.76 299.922 171.08 302.13 169.576C304.338 168.04 307.314 166.76 311.058 165.736C314.802 164.712 319.522 164.136 325.218 164.008V161.896C325.218 158.984 324.61 156.888 323.394 155.608C322.21 154.296 320.514 153.64 318.306 153.64C316.546 153.64 315.106 153.832 313.986 154.216C312.866 154.6 311.858 155.032 310.962 155.512C310.098 155.992 309.25 156.424 308.418 156.808C307.586 157.192 306.594 157.384 305.442 157.384C304.418 157.384 303.538 157.144 302.802 156.664C302.098 156.152 301.538 155.528 301.122 154.792L298.434 150.136C301.442 147.48 304.77 145.512 308.418 144.232C312.098 142.92 316.034 142.264 320.226 142.264C323.234 142.264 325.938 142.76 328.338 143.752C330.77 144.712 332.818 146.072 334.482 147.832C336.178 149.56 337.474 151.624 338.37 154.024C339.266 156.424 339.714 159.048 339.714 161.896V193H332.898ZM315.81 183.928C317.73 183.928 319.41 183.592 320.85 182.92C322.29 182.248 323.746 181.16 325.218 179.656V172.744C322.242 172.872 319.794 173.128 317.874 173.512C315.954 173.896 314.434 174.376 313.314 174.952C312.194 175.528 311.41 176.184 310.962 176.92C310.546 177.656 310.338 178.456 310.338 179.32C310.338 181.016 310.802 182.216 311.73 182.92C312.658 183.592 314.018 183.928 315.81 183.928ZM352.2 193V143.224H361.416C362.344 143.224 363.112 143.432 363.72 143.848C364.36 144.264 364.808 144.888 365.064 145.72L365.928 148.6C366.888 147.704 367.88 146.872 368.904 146.104C369.928 145.336 371.016 144.696 372.168 144.184C373.352 143.64 374.616 143.224 375.96 142.936C377.336 142.616 378.824 142.456 380.424 142.456C383.144 142.456 385.544 142.936 387.624 143.896C389.736 144.824 391.512 146.136 392.952 147.832C394.392 149.496 395.48 151.496 396.216 153.832C396.952 156.136 397.32 158.648 397.32 161.368V193H382.44V161.368C382.44 158.936 381.88 157.048 380.76 155.704C379.64 154.328 377.992 153.64 375.816 153.64C374.184 153.64 372.648 153.992 371.208 154.696C369.768 155.4 368.392 156.344 367.08 157.528V193H352.2ZM445.711 155.032C445.263 155.576 444.831 156.008 444.415 156.328C443.999 156.648 443.407 156.808 442.639 156.808C441.903 156.808 441.231 156.632 440.623 156.28C440.047 155.928 439.391 155.544 438.655 155.128C437.919 154.68 437.055 154.28 436.063 153.928C435.071 153.576 433.839 153.4 432.367 153.4C430.543 153.4 428.959 153.736 427.615 154.408C426.303 155.08 425.215 156.04 424.351 157.288C423.487 158.536 422.847 160.072 422.431 161.896C422.015 163.688 421.807 165.72 421.807 167.992C421.807 172.76 422.719 176.424 424.543 178.984C426.399 181.544 428.943 182.824 432.175 182.824C433.903 182.824 435.263 182.616 436.255 182.2C437.279 181.752 438.143 181.272 438.847 180.76C439.551 180.216 440.191 179.72 440.767 179.272C441.375 178.824 442.127 178.6 443.023 178.6C444.207 178.6 445.103 179.032 445.711 179.896L450.031 185.224C448.495 186.984 446.879 188.424 445.183 189.544C443.487 190.632 441.743 191.496 439.951 192.136C438.191 192.744 436.415 193.16 434.623 193.384C432.831 193.64 431.087 193.768 429.391 193.768C426.351 193.768 423.439 193.192 420.655 192.04C417.903 190.888 415.471 189.224 413.359 187.048C411.279 184.84 409.615 182.136 408.367 178.936C407.151 175.736 406.543 172.088 406.543 167.992C406.543 164.408 407.071 161.064 408.127 157.96C409.215 154.824 410.799 152.12 412.879 149.848C414.991 147.544 417.583 145.736 420.655 144.424C423.759 143.112 427.343 142.456 431.407 142.456C435.311 142.456 438.735 143.08 441.679 144.328C444.623 145.576 447.279 147.4 449.647 149.8L445.711 155.032ZM479.727 142.456C483.023 142.456 486.031 142.968 488.751 143.992C491.503 145.016 493.855 146.504 495.807 148.456C497.791 150.408 499.327 152.808 500.415 155.656C501.535 158.472 502.095 161.672 502.095 165.256C502.095 166.376 502.047 167.288 501.951 167.992C501.855 168.696 501.679 169.256 501.423 169.672C501.167 170.088 500.815 170.376 500.367 170.536C499.951 170.696 499.407 170.776 498.735 170.776H470.031C470.511 174.936 471.775 177.96 473.823 179.848C475.871 181.704 478.511 182.632 481.743 182.632C483.471 182.632 484.959 182.424 486.207 182.008C487.455 181.592 488.559 181.128 489.519 180.616C490.511 180.104 491.407 179.64 492.207 179.224C493.039 178.808 493.903 178.6 494.799 178.6C495.983 178.6 496.879 179.032 497.487 179.896L501.807 185.224C500.271 186.984 498.607 188.424 496.815 189.544C495.055 190.632 493.231 191.496 491.343 192.136C489.487 192.744 487.615 193.16 485.727 193.384C483.871 193.64 482.095 193.768 480.399 193.768C476.911 193.768 473.631 193.208 470.559 192.088C467.519 190.936 464.847 189.24 462.543 187C460.271 184.76 458.463 181.976 457.119 178.648C455.807 175.32 455.151 171.448 455.151 167.032C455.151 163.704 455.711 160.552 456.831 157.576C457.983 154.6 459.615 151.992 461.727 149.752C463.871 147.512 466.447 145.736 469.455 144.424C472.495 143.112 475.919 142.456 479.727 142.456ZM480.015 152.728C477.167 152.728 474.943 153.544 473.343 155.176C471.743 156.776 470.687 159.096 470.175 162.136H488.751C488.751 160.952 488.591 159.8 488.271 158.68C487.983 157.56 487.487 156.568 486.783 155.704C486.111 154.808 485.215 154.088 484.095 153.544C482.975 153 481.615 152.728 480.015 152.728ZM512.554 193V143.224H521.386C522.122 143.224 522.73 143.288 523.21 143.416C523.722 143.544 524.138 143.752 524.458 144.04C524.81 144.296 525.066 144.648 525.226 145.096C525.418 145.544 525.578 146.088 525.706 146.728L526.522 151.384C528.346 148.568 530.394 146.344 532.666 144.712C534.938 143.08 537.418 142.264 540.106 142.264C542.378 142.264 544.202 142.808 545.578 143.896L543.658 154.84C543.53 155.512 543.274 155.992 542.89 156.28C542.506 156.536 541.994 156.664 541.354 156.664C540.81 156.664 540.17 156.6 539.434 156.472C538.698 156.312 537.77 156.232 536.65 156.232C532.746 156.232 529.674 158.312 527.434 162.472V193H512.554Z" fill="white"/>
<path d="M216 353C216 350.417 216.542 348.042 217.625 345.875C218.792 343.625 220.208 341.75 221.875 340.25C225.375 337 229.042 335.375 232.875 335.375C236.208 335.375 237.875 337.083 237.875 340.5C237.875 349.167 240.75 355.208 246.5 358.625C248.583 359.875 250.75 360.5 253 360.5C255.25 360.5 257.167 360.25 258.75 359.75C260.333 359.25 261.792 358.458 263.125 357.375C266.125 354.958 267.625 352.083 267.625 348.75C267.625 345.417 266.875 342.375 265.375 339.625C263.875 336.792 262 333.833 259.75 330.75L252.625 320.75C242.625 307.417 237.625 295.125 237.625 283.875C237.625 274.542 241.583 266.083 249.5 258.5C258.5 249.917 270.042 245.625 284.125 245.625C296.458 245.625 306.083 248.667 313 254.75C318.667 259.667 321.5 265.292 321.5 271.625C321.5 278.208 319 283.458 314 287.375C309.5 290.875 305 292.167 300.5 291.25C298.5 290.833 296.958 289.833 295.875 288.25C294.792 286.583 294.583 284.708 295.25 282.625C295.917 280.542 296.25 278.375 296.25 276.125C296.25 273.875 295.833 271.792 295 269.875C294.167 267.958 293.042 266.333 291.625 265C288.708 262.25 285.625 260.875 282.375 260.875C279.208 260.875 276.583 261.25 274.5 262C272.417 262.667 270.583 263.667 269 265C265.75 268 264.125 271.708 264.125 276.125C264.125 280.458 264.875 284.208 266.375 287.375C267.875 290.542 269.708 293.708 271.875 296.875C274.125 300.042 276.542 303.25 279.125 306.5C281.708 309.75 284.083 313.167 286.25 316.75C291.5 325.167 294.125 332.583 294.125 339C294.125 345.333 292.792 350.667 290.125 355C287.458 359.25 284 362.917 279.75 366C270.667 372.75 260.5 376.125 249.25 376.125C238.5 376.125 230 373.542 223.75 368.375C218.583 364.042 216 358.917 216 353ZM427.31 269.25C422.477 269.25 413.643 276.25 400.81 290.25C391.227 301.167 384.268 309.375 379.935 314.875L368.685 329.125C363.852 338.292 360.06 345.917 357.31 352L350.56 366.5C348.81 370.083 347.268 372.625 345.935 374.125C344.685 375.542 342.935 376.25 340.685 376.25C338.518 376.25 336.393 375.833 334.31 375C332.31 374.25 330.56 373.25 329.06 372C325.893 369.333 324.31 366.417 324.31 363.25C324.31 362 325.227 359.542 327.06 355.875L331.81 345.75C333.31 342.75 335.06 338.917 337.06 334.25L344.06 317.125C353.893 292.542 358.81 276.667 358.81 269.5C358.81 265.667 357.56 262.833 355.06 261L352.56 259.25C351.727 258.667 351.31 257.667 351.31 256.25C351.31 254.75 351.852 253.333 352.935 252C354.102 250.667 355.602 249.5 357.435 248.5C361.185 246.583 364.935 245.625 368.685 245.625C372.518 245.625 375.518 246.042 377.685 246.875C379.852 247.708 381.727 248.833 383.31 250.25C386.477 253.167 388.06 256.208 388.06 259.375C388.06 262.542 387.643 265.75 386.81 269C385.977 272.167 384.935 275.417 383.685 278.75C382.435 282 381.102 285.167 379.685 288.25C376.352 295.417 374.268 299.833 373.435 301.5C372.685 303.083 372.477 303.667 372.81 303.25C388.06 283.5 397.227 271.833 400.31 268.25C406.727 260.833 411.727 255.75 415.31 253C421.893 248.083 428.102 245.625 433.935 245.625C439.852 245.625 444.56 247.458 448.06 251.125C451.56 254.792 453.31 259.625 453.31 265.625C453.31 270.875 451.977 277.042 449.31 284.125C446.643 291.208 444.852 296.167 443.935 299L462.31 274.75L472.56 262.5C478.727 255.583 484.143 251.042 488.81 248.875C493.477 246.708 497.268 245.625 500.185 245.625C503.185 245.625 506.102 246.167 508.935 247.25C511.852 248.333 514.31 249.875 516.31 251.875C520.56 255.958 522.685 261.375 522.685 268.125C522.685 274.625 521.185 281.292 518.185 288.125C515.185 294.958 512.56 300.583 510.31 305C508.06 309.333 505.893 313.708 503.81 318.125C497.727 331.375 494.685 341.208 494.685 347.625C494.685 352.125 496.518 354.375 500.185 354.375C503.685 354.375 506.852 353.625 509.685 352.125C512.602 350.625 514.477 349.875 515.31 349.875C517.06 349.875 517.935 350.75 517.935 352.5C517.935 359.917 514.143 366.125 506.56 371.125C501.477 374.542 496.81 376.25 492.56 376.25C488.393 376.25 485.018 375.75 482.435 374.75C479.852 373.75 477.518 372.167 475.435 370C470.768 365.167 468.435 359.125 468.435 351.875C468.435 344.625 469.352 337.958 471.185 331.875C473.018 325.792 475.185 319.917 477.685 314.25C480.185 308.5 482.685 303.25 485.185 298.5C487.768 293.667 489.727 289.833 491.06 287C493.727 281.167 495.06 276.875 495.06 274.125C495.06 270.875 493.352 269.25 489.935 269.25C485.435 269.25 477.352 276.708 465.685 291.625C456.852 303.208 450.727 311.542 447.31 316.625L438.685 329.125C433.852 338.292 430.143 345.917 427.56 352L421.185 366.5C419.602 370.083 418.227 372.625 417.06 374.125C415.893 375.542 414.268 376.25 412.185 376.25C410.102 376.25 408.06 375.917 406.06 375.25C404.143 374.583 402.477 373.708 401.06 372.625C397.81 370.208 396.185 367.667 396.185 365C396.185 362.25 397.06 358.542 398.81 353.875C400.643 349.125 402.893 343.833 405.56 338L423.06 301C429.31 287.25 432.435 278.542 432.435 274.875C432.435 271.125 430.727 269.25 427.31 269.25ZM439.685 304.5C439.768 304.5 439.81 304.458 439.81 304.375L439.935 304.125C439.768 304.292 439.685 304.417 439.685 304.5ZM611.87 216.375C610.037 218.292 607.953 219.875 605.62 221.125C603.287 222.292 600.828 223.042 598.245 223.375C595.662 223.625 593.203 223.208 590.87 222.125C588.62 221.042 586.662 219.5 584.995 217.5C581.412 213.333 579.62 209.125 579.62 204.875C579.62 200.625 580.287 197.458 581.62 195.375C583.037 193.208 584.787 191.458 586.87 190.125C590.87 187.542 594.62 186.25 598.12 186.25C601.703 186.25 604.453 186.5 606.37 187C608.37 187.5 610.203 188.333 611.87 189.5C615.953 192.25 617.995 195.625 617.995 199.625C617.995 203.542 617.412 206.833 616.245 209.5C615.162 212.083 613.703 214.375 611.87 216.375ZM586.245 351.625C588.412 351.625 589.495 353.042 589.495 355.875C589.495 359.625 587.787 363.5 584.37 367.5C579.37 373.333 572.662 376.25 564.245 376.25C554.578 376.25 547.953 372.333 544.37 364.5C543.037 361.75 542.37 358.417 542.37 354.5C542.37 350.583 543.037 346.25 544.37 341.5C545.787 336.667 547.495 331.625 549.495 326.375C551.578 321.042 553.828 315.667 556.245 310.25L562.87 294.5C567.703 282.75 570.12 275 570.12 271.25C570.12 267.5 569.703 265.042 568.87 263.875C568.12 262.625 567.287 261.667 566.37 261L563.87 259.25C563.037 258.667 562.62 257.667 562.62 256.25C562.62 254.75 563.162 253.333 564.245 252C565.412 250.667 566.912 249.5 568.745 248.5C572.495 246.583 576.87 245.625 581.87 245.625C594.12 245.625 600.245 248.833 600.245 255.25C600.245 262.75 598.287 271.333 594.37 281C590.453 290.583 587.12 298.333 584.37 304.25L576.87 321.5C571.37 334.167 568.62 343.292 568.62 348.875C568.62 352.542 570.453 354.375 574.12 354.375C577.703 354.375 580.412 353.917 582.245 353C584.078 352.083 585.412 351.625 586.245 351.625ZM626.305 370C624.222 367.833 622.513 365.083 621.18 361.75C619.93 358.333 619.305 354.417 619.305 350C619.305 345.5 620.305 339.5 622.305 332C624.388 324.5 627.013 315.958 630.18 306.375L640.68 275.25C655.597 231.917 664.222 198.417 666.555 174.75C667.305 167.75 670.722 164.25 676.805 164.25C680.638 164.25 683.805 165.167 686.305 167C691.138 170.667 693.472 174.75 693.305 179.25C693.138 183.75 692.347 189.25 690.93 195.75C689.513 202.167 687.68 209.208 685.43 216.875C683.18 224.458 680.597 232.5 677.68 241L660.43 291.75C650.513 320.583 645.555 339.208 645.555 347.625C645.555 352.125 647.388 354.375 651.055 354.375C654.555 354.375 657.722 353.625 660.555 352.125C663.472 350.625 665.347 349.875 666.18 349.875C667.93 349.875 668.805 350.75 668.805 352.5C668.805 359.917 665.013 366.125 657.43 371.125C652.347 374.542 647.68 376.25 643.43 376.25C639.263 376.25 635.888 375.75 633.305 374.75C630.722 373.75 628.388 372.167 626.305 370ZM695.49 331.25C695.823 324 697.032 317.083 699.115 310.5C701.198 303.833 703.99 297.417 707.49 291.25C710.99 285 715.073 279.125 719.74 273.625C724.49 268.042 729.615 263.167 735.115 259C747.032 250.083 759.073 245.625 771.24 245.625C785.49 245.625 794.99 251.5 799.74 263.25C801.407 267.25 802.198 272 802.115 277.5C802.032 282.917 800.99 287.958 798.99 292.625C796.99 297.208 794.198 301.417 790.615 305.25C787.115 309 782.907 312.375 777.99 315.375C773.157 318.375 767.865 320.917 762.115 323C750.282 327.167 737.615 329.333 724.115 329.5C723.782 330.667 723.573 332.417 723.49 334.75C723.407 337.083 723.657 339.708 724.24 342.625C724.823 345.458 725.823 348 727.24 350.25C730.24 355.25 734.573 357.75 740.24 357.75C749.907 357.75 759.323 354.917 768.49 349.25C771.74 347.333 774.365 345.375 776.365 343.375C778.448 341.292 780.24 340.25 781.74 340.25C783.24 340.25 784.532 341.167 785.615 343C786.782 344.75 787.365 346.75 787.365 349C787.365 353.417 786.115 357.25 783.615 360.5C773.115 371 757.49 376.25 736.74 376.25C724.49 376.25 714.657 372.583 707.24 365.25C698.907 356.917 694.99 345.583 695.49 331.25ZM768.49 262.25C759.74 262.25 751.323 268.25 743.24 280.25C736.407 290.583 730.907 302.833 726.74 317C740.657 315.583 752.74 310.083 762.99 300.5C772.407 291.5 777.115 282.875 777.115 274.625C777.115 266.375 774.24 262.25 768.49 262.25Z" fill="#F8EF24"/>
<path d="M217.625 345.875L214.962 344.494L214.952 344.514L214.942 344.533L217.625 345.875ZM221.875 340.25L223.882 342.48L223.899 342.464L223.916 342.448L221.875 340.25ZM246.5 358.625L248.044 356.052L248.032 356.046L246.5 358.625ZM263.125 357.375L261.243 355.039L261.233 355.047L263.125 357.375ZM265.375 339.625L262.724 341.029L262.732 341.045L262.741 341.062L265.375 339.625ZM259.75 330.75L257.307 332.491L257.317 332.505L257.327 332.518L259.75 330.75ZM252.625 320.75L255.068 319.009L255.047 318.979L255.025 318.95L252.625 320.75ZM249.5 258.5L247.43 256.329L247.425 256.334L249.5 258.5ZM313 254.75L311.019 257.003L311.026 257.009L311.034 257.016L313 254.75ZM314 287.375L315.842 289.743L315.85 289.737L314 287.375ZM300.5 291.25L299.888 294.187L299.901 294.19L300.5 291.25ZM295.875 288.25L293.36 289.885L293.379 289.915L293.399 289.944L295.875 288.25ZM291.625 265L289.567 267.183L289.569 267.185L291.625 265ZM274.5 262L275.414 264.857L275.466 264.841L275.516 264.823L274.5 262ZM269 265L267.068 262.705L267.015 262.749L266.965 262.796L269 265ZM271.875 296.875L269.399 298.569L269.414 298.591L269.429 298.613L271.875 296.875ZM279.125 306.5L281.473 304.633L279.125 306.5ZM286.25 316.75L283.683 318.302L283.694 318.32L283.705 318.338L286.25 316.75ZM290.125 355L292.666 356.594L292.673 356.583L292.68 356.572L290.125 355ZM279.75 366L277.988 363.572L277.974 363.582L277.961 363.592L279.75 366ZM223.75 368.375L221.822 370.674L221.83 370.68L221.839 370.687L223.75 368.375ZM219 353C219 350.851 219.447 348.939 220.308 347.217L214.942 344.533C213.636 347.144 213 349.983 213 353H219ZM220.288 347.256C221.31 345.285 222.516 343.709 223.882 342.48L219.868 338.02C217.901 339.791 216.273 341.965 214.962 344.494L220.288 347.256ZM223.916 342.448C227.004 339.581 229.973 338.375 232.875 338.375V332.375C228.11 332.375 223.746 334.419 219.834 338.052L223.916 342.448ZM232.875 338.375C234.06 338.375 234.402 338.674 234.478 338.751C234.566 338.842 234.875 339.236 234.875 340.5H240.875C240.875 338.348 240.35 336.179 238.772 334.561C237.181 332.93 235.023 332.375 232.875 332.375V338.375ZM234.875 340.5C234.875 349.867 238.037 357.086 244.968 361.204L248.032 356.046C243.463 353.331 240.875 348.466 240.875 340.5H234.875ZM244.957 361.197C247.468 362.704 250.163 363.5 253 363.5V357.5C251.337 357.5 249.699 357.046 248.043 356.053L244.957 361.197ZM253 363.5C255.455 363.5 257.695 363.229 259.653 362.611L257.847 356.889C256.638 357.271 255.045 357.5 253 357.5V363.5ZM259.653 362.611C261.609 361.993 263.401 361.016 265.017 359.703L261.233 355.047C260.183 355.9 259.057 356.507 257.847 356.889L259.653 362.611ZM265.007 359.711C268.59 356.825 270.625 353.139 270.625 348.75H264.625C264.625 351.028 263.66 353.092 261.243 355.039L265.007 359.711ZM270.625 348.75C270.625 344.948 269.764 341.407 268.009 338.188L262.741 341.062C263.986 343.343 264.625 345.885 264.625 348.75H270.625ZM268.026 338.221C266.448 335.24 264.493 332.16 262.173 328.982L257.327 332.518C259.507 335.507 261.302 338.343 262.724 341.029L268.026 338.221ZM262.193 329.009L255.068 319.009L250.182 322.491L257.307 332.491L262.193 329.009ZM255.025 318.95C245.235 305.897 240.625 294.23 240.625 283.875H234.625C234.625 296.02 240.015 308.936 250.225 322.55L255.025 318.95ZM240.625 283.875C240.625 275.503 244.137 267.791 251.575 260.666L247.425 256.334C239.029 264.376 234.625 273.581 234.625 283.875H240.625ZM251.57 260.671C259.937 252.691 270.702 248.625 284.125 248.625V242.625C269.381 242.625 257.063 247.142 247.43 256.329L251.57 260.671ZM284.125 248.625C295.979 248.625 304.812 251.544 311.019 257.003L314.981 252.497C307.354 245.789 296.937 242.625 284.125 242.625V248.625ZM311.034 257.016C316.177 261.479 318.5 266.323 318.5 271.625H324.5C324.5 264.26 321.156 257.855 314.966 252.484L311.034 257.016ZM318.5 271.625C318.5 277.325 316.394 281.689 312.15 285.013L315.85 289.737C321.606 285.228 324.5 279.091 324.5 271.625H318.5ZM312.158 285.007C308.168 288.11 304.539 289.011 301.099 288.31L299.901 294.19C305.461 295.322 310.832 293.64 315.842 289.743L312.158 285.007ZM301.112 288.313C299.816 288.043 298.966 287.456 298.351 286.556L293.399 289.944C294.95 292.211 297.184 293.624 299.888 294.187L301.112 288.313ZM298.39 286.615C297.851 285.786 297.684 284.863 298.107 283.539L292.393 281.711C291.483 284.554 291.732 287.381 293.36 289.885L298.39 286.615ZM298.107 283.539C298.871 281.152 299.25 278.676 299.25 276.125H293.25C293.25 278.074 292.962 279.931 292.393 281.711L298.107 283.539ZM299.25 276.125C299.25 273.495 298.761 271.001 297.751 268.679L292.249 271.071C292.906 272.582 293.25 274.255 293.25 276.125H299.25ZM297.751 268.679C296.768 266.417 295.416 264.448 293.681 262.815L289.569 267.185C290.668 268.219 291.566 269.5 292.249 271.071L297.751 268.679ZM293.683 262.817C290.346 259.671 286.559 257.875 282.375 257.875V263.875C284.691 263.875 287.07 264.829 289.567 267.183L293.683 262.817ZM282.375 257.875C278.998 257.875 276.001 258.271 273.484 259.177L275.516 264.823C277.166 264.229 279.418 263.875 282.375 263.875V257.875ZM273.586 259.143C271.151 259.922 268.967 261.106 267.068 262.705L270.932 267.295C272.2 266.228 273.682 265.412 275.414 264.857L273.586 259.143ZM266.965 262.796C263.101 266.363 261.125 270.87 261.125 276.125H267.125C267.125 272.547 268.399 269.637 271.035 267.204L266.965 262.796ZM261.125 276.125C261.125 280.8 261.934 285.008 263.664 288.659L269.086 286.091C267.816 283.409 267.125 280.117 267.125 276.125H261.125ZM263.664 288.659C265.237 291.981 267.152 295.284 269.399 298.569L274.351 295.181C272.265 292.132 270.513 289.102 269.086 286.091L263.664 288.659ZM269.429 298.613C271.713 301.826 274.162 305.077 276.777 308.367L281.473 304.633C278.921 301.423 276.537 298.257 274.321 295.137L269.429 298.613ZM276.777 308.367C279.28 311.516 281.582 314.827 283.683 318.302L288.817 315.198C286.585 311.506 284.137 307.984 281.473 304.633L276.777 308.367ZM283.705 318.338C288.807 326.518 291.125 333.372 291.125 339H297.125C297.125 331.794 294.193 323.816 288.795 315.162L283.705 318.338ZM291.125 339C291.125 344.913 289.882 349.67 287.57 353.428L292.68 356.572C295.701 351.663 297.125 345.753 297.125 339H291.125ZM287.584 353.406C285.131 357.315 281.942 360.703 277.988 363.572L281.512 368.428C286.058 365.13 289.786 361.185 292.666 356.594L287.584 353.406ZM277.961 363.592C269.391 369.96 259.851 373.125 249.25 373.125V379.125C261.149 379.125 271.942 375.54 281.539 368.408L277.961 363.592ZM249.25 373.125C238.969 373.125 231.22 370.658 225.661 366.063L221.839 370.687C228.78 376.425 238.031 379.125 249.25 379.125V373.125ZM225.678 366.076C221.084 362.224 219 357.9 219 353H213C213 359.934 216.082 365.859 221.822 370.674L225.678 366.076ZM400.81 290.25L398.599 288.223L398.577 288.247L398.555 288.271L400.81 290.25ZM379.935 314.875L382.29 316.734L382.291 316.732L379.935 314.875ZM368.685 329.125L366.33 327.266L366.16 327.482L366.031 327.726L368.685 329.125ZM357.31 352L360.03 353.266L360.037 353.251L360.044 353.236L357.31 352ZM350.56 366.5L353.256 367.817L353.268 367.791L353.28 367.766L350.56 366.5ZM345.935 374.125L343.693 372.132L343.685 372.14L345.935 374.125ZM334.31 375L335.424 372.215L335.394 372.202L335.363 372.191L334.31 375ZM329.06 372L327.128 374.295L327.134 374.3L327.139 374.305L329.06 372ZM327.06 355.875L329.743 357.217L329.76 357.183L329.776 357.149L327.06 355.875ZM331.81 345.75L329.127 344.408L329.11 344.442L329.094 344.476L331.81 345.75ZM337.06 334.25L339.817 335.432L339.827 335.409L339.837 335.385L337.06 334.25ZM344.06 317.125L346.837 318.26L346.841 318.25L346.845 318.239L344.06 317.125ZM355.06 261L356.834 258.581L356.807 258.561L356.78 258.542L355.06 261ZM352.56 259.25L354.28 256.792L352.56 259.25ZM352.935 252L350.677 250.024L350.641 250.066L350.607 250.108L352.935 252ZM357.435 248.5L356.07 245.829L356.034 245.847L355.998 245.866L357.435 248.5ZM377.685 246.875L376.608 249.675L377.685 246.875ZM383.31 250.25L385.342 248.043L385.327 248.029L385.31 248.014L383.31 250.25ZM386.81 269L389.711 269.763L389.714 269.754L389.716 269.745L386.81 269ZM383.685 278.75L386.485 279.827L386.49 279.815L386.494 279.803L383.685 278.75ZM379.685 288.25L382.405 289.515L382.411 289.503L379.685 288.25ZM373.435 301.5L370.752 300.158L370.737 300.187L370.724 300.216L373.435 301.5ZM372.81 303.25L375.153 305.124L375.169 305.104L375.185 305.083L372.81 303.25ZM400.31 268.25L398.041 266.287L398.036 266.293L400.31 268.25ZM415.31 253L413.515 250.596L413.499 250.608L413.484 250.62L415.31 253ZM443.935 299L441.081 298.077L446.326 300.812L443.935 299ZM462.31 274.75L460.009 272.825L459.963 272.88L459.919 272.938L462.31 274.75ZM472.56 262.5L470.321 260.504L470.289 260.539L470.259 260.575L472.56 262.5ZM488.81 248.875L487.547 246.154L488.81 248.875ZM508.935 247.25L507.864 250.052L507.877 250.057L507.89 250.062L508.935 247.25ZM516.31 251.875L514.189 253.996L514.21 254.018L514.232 254.038L516.31 251.875ZM510.31 305L512.972 306.382L512.978 306.372L512.983 306.362L510.31 305ZM503.81 318.125L501.097 316.845L501.09 316.859L501.084 316.873L503.81 318.125ZM509.685 352.125L508.313 349.457L508.297 349.465L508.281 349.474L509.685 352.125ZM506.56 371.125L504.909 368.62L504.898 368.628L504.886 368.635L506.56 371.125ZM475.435 370L477.598 367.921L477.593 367.916L475.435 370ZM477.685 314.25L480.43 315.461L480.433 315.454L480.436 315.446L477.685 314.25ZM485.185 298.5L482.539 297.086L482.535 297.094L482.53 297.103L485.185 298.5ZM491.06 287L493.774 288.277L493.782 288.262L493.788 288.247L491.06 287ZM465.685 291.625L463.322 289.777L463.311 289.791L463.299 289.806L465.685 291.625ZM447.31 316.625L449.779 318.329L449.79 318.314L449.8 318.299L447.31 316.625ZM438.685 329.125L436.216 327.421L436.114 327.568L436.031 327.726L438.685 329.125ZM427.56 352L430.306 353.207L430.314 353.19L430.321 353.173L427.56 352ZM421.185 366.5L423.929 367.712L423.931 367.707L421.185 366.5ZM417.06 374.125L419.376 376.032L419.402 376L419.428 375.967L417.06 374.125ZM406.06 375.25L405.074 378.083L405.093 378.09L405.111 378.096L406.06 375.25ZM401.06 372.625L402.882 370.242L402.866 370.23L402.85 370.218L401.06 372.625ZM398.81 353.875L396.011 352.795L396.006 352.808L396.001 352.822L398.81 353.875ZM405.56 338L402.848 336.717L402.84 336.735L402.832 336.753L405.56 338ZM423.06 301L425.772 302.283L425.782 302.262L425.791 302.241L423.06 301ZM439.685 304.5H436.685V307.5H439.685V304.5ZM439.81 304.375L437.127 303.033L436.81 303.667V304.375H439.81ZM439.935 304.125L442.618 305.467L437.814 302.004L439.935 304.125ZM427.31 266.25C425.426 266.25 423.476 266.915 421.567 267.892C419.623 268.888 417.495 270.328 415.197 272.149C410.6 275.792 405.06 281.173 398.599 288.223L403.021 292.277C409.393 285.327 414.687 280.208 418.923 276.851C421.042 275.172 422.83 273.987 424.303 273.233C425.811 272.46 426.777 272.25 427.31 272.25V266.25ZM398.555 288.271C388.966 299.195 381.964 307.453 377.579 313.018L382.291 316.732C386.573 311.297 393.487 303.139 403.065 292.229L398.555 288.271ZM377.58 313.016L366.33 327.266L371.04 330.984L382.29 316.734L377.58 313.016ZM366.031 327.726C361.183 336.92 357.361 344.604 354.576 350.764L360.044 353.236C362.759 347.229 366.52 339.663 371.339 330.524L366.031 327.726ZM354.59 350.734L347.84 365.234L353.28 367.766L360.03 353.266L354.59 350.734ZM347.864 365.183C346.141 368.713 344.744 370.95 343.693 372.132L348.177 376.118C349.793 374.3 351.479 371.454 353.256 367.817L347.864 365.183ZM343.685 372.14C343.114 372.788 342.254 373.25 340.685 373.25V379.25C343.616 379.25 346.256 378.296 348.185 376.11L343.685 372.14ZM340.685 373.25C338.914 373.25 337.166 372.911 335.424 372.215L333.196 377.785C335.621 378.755 338.123 379.25 340.685 379.25V373.25ZM335.363 372.191C333.649 371.548 332.199 370.71 330.981 369.695L327.139 374.305C328.921 375.79 330.971 376.952 333.257 377.809L335.363 372.191ZM330.992 369.705C328.28 367.421 327.31 365.277 327.31 363.25H321.31C321.31 367.556 323.507 371.246 327.128 374.295L330.992 369.705ZM327.31 363.25C327.31 363.272 327.311 363.144 327.394 362.806C327.473 362.486 327.606 362.061 327.808 361.517C328.215 360.427 328.851 359.001 329.743 357.217L324.377 354.533C323.436 356.416 322.697 358.052 322.187 359.421C321.71 360.699 321.31 362.054 321.31 363.25H327.31ZM329.776 357.149L334.526 347.024L329.094 344.476L324.344 354.601L329.776 357.149ZM334.493 347.092C336.029 344.02 337.805 340.128 339.817 335.432L334.303 333.068C332.315 337.705 330.591 341.48 329.127 344.408L334.493 347.092ZM339.837 335.385L346.837 318.26L341.283 315.99L334.283 333.115L339.837 335.385ZM346.845 318.239C351.777 305.911 355.497 295.714 357.988 287.669C360.449 279.722 361.81 273.579 361.81 269.5H355.81C355.81 272.588 354.712 277.966 352.257 285.894C349.832 293.724 346.177 303.756 341.275 316.011L346.845 318.239ZM361.81 269.5C361.81 264.964 360.288 261.114 356.834 258.581L353.286 263.419C354.832 264.553 355.81 266.37 355.81 269.5H361.81ZM356.78 258.542L354.28 256.792L350.84 261.708L353.34 263.458L356.78 258.542ZM354.28 256.792C354.309 256.813 354.341 256.842 354.368 256.875C354.393 256.908 354.398 256.924 354.392 256.909C354.375 256.868 354.31 256.678 354.31 256.25H348.31C348.31 258.23 348.916 260.361 350.84 261.708L354.28 256.792ZM354.31 256.25C354.31 255.538 354.548 254.772 355.263 253.892L350.607 250.108C349.155 251.894 348.31 253.962 348.31 256.25H354.31ZM355.193 253.976C356.089 252.951 357.294 251.994 358.872 251.134L355.998 245.866C353.909 247.006 352.114 248.382 350.677 250.024L355.193 253.976ZM358.8 251.171C362.18 249.444 365.465 248.625 368.685 248.625V242.625C364.405 242.625 360.19 243.723 356.07 245.829L358.8 251.171ZM368.685 248.625C372.358 248.625 374.937 249.032 376.608 249.675L378.762 244.075C376.1 243.051 372.678 242.625 368.685 242.625V248.625ZM376.608 249.675C378.467 250.39 380.021 251.333 381.31 252.486L385.31 248.014C383.432 246.334 381.237 245.027 378.762 244.075L376.608 249.675ZM381.278 252.457C384.058 255.018 385.06 257.316 385.06 259.375H391.06C391.06 255.101 388.895 251.316 385.342 248.043L381.278 252.457ZM385.06 259.375C385.06 262.276 384.679 265.234 383.904 268.255L389.716 269.745C390.608 266.266 391.06 262.807 391.06 259.375H385.06ZM383.909 268.237C383.103 271.297 382.093 274.45 380.876 277.697L386.494 279.803C387.777 276.383 388.85 273.036 389.711 269.763L383.909 268.237ZM380.885 277.673C379.657 280.865 378.348 283.973 376.959 286.997L382.411 289.503C383.855 286.36 385.213 283.135 386.485 279.827L380.885 277.673ZM376.965 286.985C373.624 294.167 371.562 298.539 370.752 300.158L376.118 302.842C376.975 301.128 379.079 296.666 382.405 289.515L376.965 286.985ZM370.724 300.216C370.357 300.991 370.053 301.663 369.891 302.116C369.851 302.229 369.783 302.427 369.733 302.656C369.71 302.761 369.664 302.988 369.657 303.273C369.654 303.392 369.609 304.305 370.262 305.175C370.67 305.72 371.284 306.15 372.035 306.312C372.713 306.459 373.274 306.339 373.594 306.236C374.175 306.05 374.55 305.732 374.643 305.654C374.904 305.434 375.089 305.204 375.153 305.124L370.467 301.376C370.474 301.368 370.497 301.339 370.536 301.296C370.567 301.262 370.651 301.171 370.778 301.065C370.846 301.007 371.201 300.702 371.765 300.522C372.077 300.422 372.631 300.302 373.303 300.448C374.048 300.609 374.657 301.036 375.062 301.575C375.706 302.435 375.658 303.329 375.655 303.423C375.649 303.682 375.608 303.874 375.594 303.938C375.562 304.083 375.53 304.167 375.541 304.134C375.588 304.004 375.763 303.593 376.146 302.784L370.724 300.216ZM375.185 305.083C390.461 285.299 399.566 273.714 402.584 270.207L398.036 266.293C394.887 269.953 385.659 281.701 370.435 301.417L375.185 305.083ZM402.579 270.213C408.98 262.814 413.812 257.931 417.136 255.38L413.484 250.62C409.641 253.569 404.474 258.852 398.041 266.287L402.579 270.213ZM417.105 255.404C423.376 250.72 428.966 248.625 433.935 248.625V242.625C427.238 242.625 420.411 245.446 413.515 250.596L417.105 255.404ZM433.935 248.625C439.181 248.625 443.051 250.223 445.89 253.196L450.23 249.054C446.069 244.694 440.522 242.625 433.935 242.625V248.625ZM445.89 253.196C448.761 256.204 450.31 260.245 450.31 265.625H456.31C456.31 259.005 454.359 253.379 450.23 249.054L445.89 253.196ZM450.31 265.625C450.31 270.392 449.093 276.186 446.502 283.068L452.118 285.182C454.86 277.897 456.31 271.358 456.31 265.625H450.31ZM446.502 283.068C443.837 290.149 442.022 295.168 441.081 298.077L446.789 299.923C447.682 297.166 449.45 292.268 452.118 285.182L446.502 283.068ZM446.326 300.812L464.701 276.562L459.919 272.938L441.544 297.188L446.326 300.812ZM464.611 276.675L474.861 264.425L470.259 260.575L460.009 272.825L464.611 276.675ZM474.799 264.496C480.877 257.68 485.966 253.503 490.073 251.596L487.547 246.154C482.321 248.58 476.576 253.487 470.321 260.504L474.799 264.496ZM490.073 251.596C494.602 249.494 497.92 248.625 500.185 248.625V242.625C496.617 242.625 492.352 243.923 487.547 246.154L490.073 251.596ZM500.185 248.625C502.815 248.625 505.368 249.098 507.864 250.052L510.006 244.448C506.835 243.235 503.555 242.625 500.185 242.625V248.625ZM507.89 250.062C510.444 251.011 512.523 252.331 514.189 253.996L518.431 249.754C516.097 247.419 513.26 245.656 509.98 244.438L507.89 250.062ZM514.232 254.038C517.805 257.472 519.685 262.062 519.685 268.125H525.685C525.685 260.688 523.315 254.445 518.388 249.712L514.232 254.038ZM519.685 268.125C519.685 274.153 518.296 280.41 515.438 286.919L520.932 289.331C524.074 282.174 525.685 275.097 525.685 268.125H519.685ZM515.438 286.919C512.451 293.723 509.851 299.291 507.637 303.638L512.983 306.362C515.269 301.875 517.919 296.194 520.932 289.331L515.438 286.919ZM507.648 303.618C505.38 307.985 503.196 312.394 501.097 316.845L506.523 319.405C508.59 315.023 510.74 310.682 512.972 306.382L507.648 303.618ZM501.084 316.873C494.993 330.14 491.685 340.497 491.685 347.625H497.685C497.685 341.92 500.461 332.61 506.536 319.377L501.084 316.873ZM491.685 347.625C491.685 350.205 492.198 352.697 493.734 354.583C495.366 356.585 497.708 357.375 500.185 357.375V351.375C498.995 351.375 498.587 351.04 498.386 350.792C498.088 350.428 497.685 349.545 497.685 347.625H491.685ZM500.185 357.375C504.128 357.375 507.784 356.526 511.089 354.776L508.281 349.474C505.919 350.724 503.242 351.375 500.185 351.375V357.375ZM511.057 354.793C512.476 354.063 513.58 353.548 514.393 353.223C514.799 353.06 515.093 352.961 515.29 352.907C515.52 352.843 515.494 352.875 515.31 352.875V346.875C514.254 346.875 513.092 347.281 512.165 347.652C511.102 348.077 509.811 348.687 508.313 349.457L511.057 354.793ZM515.31 352.875C515.506 352.875 515.556 352.901 515.51 352.885C515.449 352.865 515.305 352.8 515.157 352.653C515.01 352.505 514.945 352.361 514.925 352.3C514.909 352.254 514.935 352.304 514.935 352.5H520.935C520.935 351.163 520.599 349.608 519.4 348.41C518.202 347.211 516.647 346.875 515.31 346.875V352.875ZM514.935 352.5C514.935 358.674 511.866 364.033 504.909 368.62L508.211 373.63C516.42 368.217 520.935 361.159 520.935 352.5H514.935ZM504.886 368.635C500.09 371.859 496.005 373.25 492.56 373.25V379.25C497.615 379.25 502.864 377.224 508.234 373.615L504.886 368.635ZM492.56 373.25C488.595 373.25 485.628 372.769 483.518 371.952L481.352 377.548C484.409 378.731 488.191 379.25 492.56 379.25V373.25ZM483.518 371.952C481.376 371.123 479.404 369.799 477.598 367.921L473.272 372.079C475.633 374.534 478.327 376.377 481.352 377.548L483.518 371.952ZM477.593 367.916C473.512 363.689 471.435 358.415 471.435 351.875H465.435C465.435 359.835 468.025 366.644 473.277 372.084L477.593 367.916ZM471.435 351.875C471.435 344.878 472.32 338.507 474.057 332.741L468.313 331.009C466.384 337.41 465.435 344.372 465.435 351.875H471.435ZM474.057 332.741C475.856 326.772 477.981 321.012 480.43 315.461L474.94 313.039C472.389 318.821 470.18 324.811 468.313 331.009L474.057 332.741ZM480.436 315.446C482.911 309.753 485.38 304.572 487.84 299.897L482.53 297.103C479.99 301.928 477.459 307.247 474.934 313.054L480.436 315.446ZM487.831 299.914C490.423 295.064 492.409 291.179 493.774 288.277L488.346 285.723C487.044 288.488 485.113 292.27 482.539 297.086L487.831 299.914ZM493.788 288.247C496.457 282.41 498.06 277.59 498.06 274.125H492.06C492.06 276.16 490.996 279.924 488.332 285.753L493.788 288.247ZM498.06 274.125C498.06 271.998 497.494 269.862 495.846 268.295C494.227 266.755 492.069 266.25 489.935 266.25V272.25C491.217 272.25 491.622 272.558 491.711 272.642C491.772 272.701 492.06 273.002 492.06 274.125H498.06ZM489.935 266.25C488.034 266.25 486.134 267.015 484.358 268.068C482.539 269.146 480.57 270.695 478.463 272.639C474.247 276.529 469.195 282.268 463.322 289.777L468.048 293.473C473.842 286.065 478.664 280.617 482.532 277.049C484.467 275.263 486.092 274.015 487.418 273.229C488.788 272.417 489.586 272.25 489.935 272.25V266.25ZM463.299 289.806C454.466 301.39 448.292 309.786 444.82 314.951L449.8 318.299C453.162 313.297 459.238 305.027 468.071 293.444L463.299 289.806ZM444.841 314.921L436.216 327.421L441.154 330.829L449.779 318.329L444.841 314.921ZM436.031 327.726C431.178 336.93 427.428 344.637 424.799 350.827L430.321 353.173C432.859 347.197 436.525 339.653 441.339 330.524L436.031 327.726ZM424.814 350.793L418.439 365.293L423.931 367.707L430.306 353.207L424.814 350.793ZM418.441 365.288C416.875 368.831 415.621 371.089 414.692 372.283L419.428 375.967C420.833 374.161 422.328 371.336 423.929 367.712L418.441 365.288ZM414.744 372.218C414.229 372.844 413.508 373.25 412.185 373.25V379.25C415.028 379.25 417.558 378.24 419.376 376.032L414.744 372.218ZM412.185 373.25C410.428 373.25 408.706 372.97 407.009 372.404L405.111 378.096C407.413 378.863 409.775 379.25 412.185 379.25V373.25ZM407.046 372.417C405.389 371.84 404.014 371.107 402.882 370.242L399.238 375.008C400.94 376.31 402.898 377.326 405.074 378.083L407.046 372.417ZM402.85 370.218C399.953 368.064 399.185 366.304 399.185 365H393.185C393.185 369.029 395.667 372.353 399.27 375.032L402.85 370.218ZM399.185 365C399.185 362.792 399.91 359.486 401.619 354.928L396.001 352.822C394.21 357.597 393.185 361.708 393.185 365H399.185ZM401.609 354.955C403.416 350.274 405.641 345.039 408.288 339.247L402.832 336.753C400.146 342.628 397.871 347.976 396.011 352.795L401.609 354.955ZM408.272 339.283L425.772 302.283L420.348 299.717L402.848 336.717L408.272 339.283ZM425.791 302.241C428.932 295.332 431.313 289.634 432.915 285.17C434.469 280.839 435.435 277.293 435.435 274.875H429.435C429.435 276.124 428.838 278.765 427.268 283.143C425.745 287.387 423.438 292.918 420.329 299.759L425.791 302.241ZM435.435 274.875C435.435 272.603 434.923 270.339 433.371 268.636C431.771 266.879 429.556 266.25 427.31 266.25V272.25C428.48 272.25 428.828 272.558 428.936 272.677C429.092 272.848 429.435 273.397 429.435 274.875H435.435ZM439.685 307.5C440.189 307.5 441.118 307.372 441.9 306.59C442.682 305.808 442.81 304.879 442.81 304.375H436.81C436.81 303.954 436.917 303.088 437.657 302.347C438.398 301.607 439.264 301.5 439.685 301.5V307.5ZM442.493 305.717L442.618 305.467L437.252 302.783L437.127 303.033L442.493 305.717ZM437.814 302.004C437.66 302.157 437.446 302.388 437.251 302.68C437.11 302.892 436.685 303.557 436.685 304.5H442.685C442.685 304.968 442.571 305.331 442.486 305.544C442.398 305.763 442.302 305.92 442.244 306.008C442.182 306.1 442.13 306.163 442.103 306.195C442.075 306.228 442.057 306.245 442.056 306.246L437.814 302.004ZM611.87 216.375L614.038 218.449L614.06 218.426L614.081 218.402L611.87 216.375ZM605.62 221.125L606.962 223.808L606.999 223.789L607.037 223.769L605.62 221.125ZM598.245 223.375L598.534 226.361L598.582 226.356L598.629 226.35L598.245 223.375ZM590.87 222.125L589.569 224.828L589.588 224.837L589.607 224.846L590.87 222.125ZM584.995 217.5L587.3 215.579L587.285 215.562L587.27 215.544L584.995 217.5ZM581.62 195.375L579.109 193.733L579.101 193.746L579.093 193.758L581.62 195.375ZM586.87 190.125L588.487 192.652L588.498 192.645L586.87 190.125ZM606.37 187L605.613 189.903L605.628 189.907L605.642 189.91L606.37 187ZM611.87 189.5L610.15 191.958L610.172 191.973L610.194 191.988L611.87 189.5ZM616.245 209.5L613.497 208.298L613.487 208.319L613.478 208.34L616.245 209.5ZM584.37 367.5L586.648 369.452L586.651 369.448L584.37 367.5ZM544.37 364.5L547.098 363.252L547.084 363.221L547.069 363.191L544.37 364.5ZM544.37 341.5L541.491 340.656L541.486 340.673L541.482 340.689L544.37 341.5ZM549.495 326.375L546.701 325.283L546.696 325.295L546.692 325.307L549.495 326.375ZM556.245 310.25L558.985 311.472L558.998 311.443L559.01 311.413L556.245 310.25ZM562.87 294.5L565.635 295.663L565.64 295.652L565.644 295.641L562.87 294.5ZM568.87 263.875L566.298 265.418L566.359 265.521L566.429 265.619L568.87 263.875ZM566.37 261L568.135 258.574L568.113 258.558L568.09 258.542L566.37 261ZM563.87 259.25L565.59 256.792L563.87 259.25ZM564.245 252L561.987 250.024L561.951 250.066L561.917 250.108L564.245 252ZM568.745 248.5L567.38 245.829L567.344 245.847L567.308 245.866L568.745 248.5ZM594.37 281L597.147 282.135L597.15 282.127L594.37 281ZM584.37 304.25L581.65 302.986L581.634 303.019L581.619 303.054L584.37 304.25ZM576.87 321.5L574.119 320.304L574.118 320.305L576.87 321.5ZM609.702 214.301C608.087 215.99 606.257 217.38 604.203 218.481L607.037 223.769C609.65 222.37 611.986 220.594 614.038 218.449L609.702 214.301ZM604.278 218.442C602.245 219.458 600.111 220.109 597.861 220.4L598.629 226.35C601.546 225.974 604.328 225.125 606.962 223.808L604.278 218.442ZM597.956 220.389C595.9 220.588 593.978 220.26 592.133 219.404L589.607 224.846C592.429 226.156 595.424 226.662 598.534 226.361L597.956 220.389ZM592.171 219.422C590.324 218.533 588.704 217.264 587.3 215.579L582.69 219.421C584.62 221.736 586.916 223.551 589.569 224.828L592.171 219.422ZM587.27 215.544C584.014 211.759 582.62 208.218 582.62 204.875H576.62C576.62 210.032 578.809 214.908 582.72 219.456L587.27 215.544ZM582.62 204.875C582.62 200.835 583.273 198.358 584.147 196.992L579.093 193.758C577.301 196.559 576.62 200.415 576.62 204.875H582.62ZM584.131 197.017C585.327 195.188 586.778 193.746 588.487 192.652L585.253 187.598C582.796 189.171 580.747 191.229 579.109 193.733L584.131 197.017ZM588.498 192.645C592.182 190.266 595.371 189.25 598.12 189.25V183.25C593.869 183.25 589.558 184.818 585.242 187.605L588.498 192.645ZM598.12 189.25C601.618 189.25 604.067 189.5 605.613 189.903L607.127 184.097C604.84 183.5 601.789 183.25 598.12 183.25V189.25ZM605.642 189.91C607.291 190.323 608.787 191.004 610.15 191.958L613.59 187.042C611.619 185.662 609.449 184.677 607.098 184.09L605.642 189.91ZM610.194 191.988C613.667 194.327 614.995 196.859 614.995 199.625H620.995C620.995 194.391 618.24 190.173 613.546 187.012L610.194 191.988ZM614.995 199.625C614.995 203.263 614.451 206.117 613.497 208.298L618.993 210.702C620.373 207.55 620.995 203.82 620.995 199.625H614.995ZM613.478 208.34C612.524 210.615 611.251 212.611 609.659 214.348L614.081 218.402C616.156 216.139 617.799 213.552 619.012 210.66L613.478 208.34ZM586.245 354.625C586.464 354.625 586.514 354.661 586.468 354.641C586.404 354.613 586.336 354.558 586.299 354.51C586.275 354.478 586.327 354.53 586.385 354.757C586.444 354.987 586.495 355.348 586.495 355.875H592.495C592.495 354.161 592.182 352.325 591.066 350.865C589.833 349.253 588.039 348.625 586.245 348.625V354.625ZM586.495 355.875C586.495 358.669 585.227 361.878 582.089 365.552L586.651 369.448C590.346 365.122 592.495 360.581 592.495 355.875H586.495ZM582.092 365.548C577.721 370.648 571.88 373.25 564.245 373.25V379.25C573.443 379.25 581.019 376.019 586.648 369.452L582.092 365.548ZM564.245 373.25C559.813 373.25 556.299 372.353 553.553 370.73C550.83 369.12 548.667 366.681 547.098 363.252L541.642 365.748C543.657 370.153 546.598 373.588 550.5 375.895C554.379 378.188 559.01 379.25 564.245 379.25V373.25ZM547.069 363.191C545.982 360.947 545.37 358.087 545.37 354.5H539.37C539.37 358.747 540.092 362.553 541.671 365.809L547.069 363.191ZM545.37 354.5C545.37 350.918 545.981 346.862 547.258 342.311L541.482 340.689C540.092 345.638 539.37 350.249 539.37 354.5H545.37ZM547.249 342.344C548.641 337.594 550.323 332.628 552.298 327.443L546.692 325.307C544.667 330.622 542.932 335.739 541.491 340.656L547.249 342.344ZM552.289 327.467C554.355 322.179 556.587 316.847 558.985 311.472L553.505 309.028C551.07 314.486 548.802 319.905 546.701 325.283L552.289 327.467ZM559.01 311.413L565.635 295.663L560.105 293.337L553.48 309.087L559.01 311.413ZM565.644 295.641C568.078 289.725 569.927 284.76 571.171 280.768C572.39 276.86 573.12 273.613 573.12 271.25H567.12C567.12 272.637 566.641 275.14 565.444 278.982C564.272 282.74 562.495 287.525 560.096 293.359L565.644 295.641ZM573.12 271.25C573.12 269.282 573.012 267.548 572.765 266.092C572.529 264.7 572.12 263.263 571.311 262.131L566.429 265.619C566.424 265.612 566.489 265.704 566.581 265.97C566.67 266.23 566.765 266.597 566.85 267.095C567.02 268.098 567.12 269.468 567.12 271.25H573.12ZM571.442 262.332C570.542 260.831 569.456 259.535 568.135 258.574L564.605 263.426C565.117 263.799 565.698 264.419 566.298 265.418L571.442 262.332ZM568.09 258.542L565.59 256.792L562.15 261.708L564.65 263.458L568.09 258.542ZM565.59 256.792C565.619 256.813 565.651 256.842 565.678 256.875C565.703 256.908 565.708 256.924 565.702 256.909C565.685 256.868 565.62 256.678 565.62 256.25H559.62C559.62 258.23 560.225 260.361 562.15 261.708L565.59 256.792ZM565.62 256.25C565.62 255.538 565.858 254.772 566.573 253.892L561.917 250.108C560.465 251.894 559.62 253.962 559.62 256.25H565.62ZM566.503 253.976C567.399 252.951 568.604 251.994 570.182 251.134L567.308 245.866C565.219 247.006 563.424 248.382 561.987 250.024L566.503 253.976ZM570.11 251.171C573.365 249.508 577.256 248.625 581.87 248.625V242.625C576.484 242.625 571.625 243.659 567.38 245.829L570.11 251.171ZM581.87 248.625C587.831 248.625 591.841 249.422 594.259 250.689C595.424 251.299 596.136 251.974 596.566 252.65C596.988 253.313 597.245 254.143 597.245 255.25H603.245C603.245 253.149 602.737 251.171 601.628 249.428C600.526 247.698 598.941 246.368 597.043 245.374C593.337 243.432 588.159 242.625 581.87 242.625V248.625ZM597.245 255.25C597.245 262.245 595.414 270.435 591.59 279.873L597.15 282.127C601.159 272.232 603.245 263.255 603.245 255.25H597.245ZM591.593 279.865C587.685 289.427 584.372 297.129 581.65 302.986L587.09 305.514C589.868 299.538 593.222 291.74 597.147 282.135L591.593 279.865ZM581.619 303.054L574.119 320.304L579.621 322.696L587.121 305.446L581.619 303.054ZM574.118 320.305C568.628 332.95 565.62 342.598 565.62 348.875H571.62C571.62 343.985 574.112 335.383 579.622 322.695L574.118 320.305ZM565.62 348.875C565.62 351.171 566.196 353.444 567.874 355.121C569.551 356.799 571.824 357.375 574.12 357.375V351.375C572.749 351.375 572.272 351.034 572.116 350.879C571.961 350.723 571.62 350.246 571.62 348.875H565.62ZM574.12 357.375C577.87 357.375 581.133 356.91 583.587 355.683L580.903 350.317C579.69 350.923 577.537 351.375 574.12 351.375V357.375ZM583.587 355.683C584.433 355.26 585.096 354.977 585.595 354.806C586.134 354.621 586.312 354.625 586.245 354.625V348.625C585.345 348.625 584.44 348.858 583.645 349.132C582.81 349.418 581.891 349.823 580.903 350.317L583.587 355.683ZM621.18 361.75L618.363 362.781L618.378 362.823L618.395 362.864L621.18 361.75ZM622.305 332L619.414 331.197L619.41 331.212L619.406 331.227L622.305 332ZM630.18 306.375L627.337 305.416L627.334 305.425L627.331 305.434L630.18 306.375ZM640.68 275.25L637.843 274.274L637.84 274.282L637.837 274.291L640.68 275.25ZM666.555 174.75L663.572 174.43L663.571 174.443L663.569 174.456L666.555 174.75ZM686.305 167L688.118 164.61L688.099 164.595L688.079 164.581L686.305 167ZM690.93 195.75L693.859 196.397L693.861 196.389L690.93 195.75ZM685.43 216.875L688.306 217.728L688.309 217.72L685.43 216.875ZM677.68 241L674.842 240.026L674.84 240.035L677.68 241ZM660.43 291.75L663.267 292.726L663.27 292.715L660.43 291.75ZM660.555 352.125L659.183 349.457L659.167 349.465L659.151 349.474L660.555 352.125ZM657.43 371.125L655.779 368.62L655.768 368.628L655.756 368.635L657.43 371.125ZM628.467 367.921C626.699 366.081 625.183 363.679 623.965 360.636L618.395 362.864C619.844 366.488 621.745 369.586 624.142 372.079L628.467 367.921ZM623.997 360.719C622.891 357.695 622.305 354.138 622.305 350H616.305C616.305 354.695 616.969 358.972 618.363 362.781L623.997 360.719ZM622.305 350C622.305 345.883 623.23 340.175 625.204 332.773L619.406 331.227C617.38 338.825 616.305 345.117 616.305 350H622.305ZM625.196 332.803C627.263 325.361 629.873 316.866 633.029 307.316L627.331 305.434C624.154 315.05 621.514 323.639 619.414 331.197L625.196 332.803ZM633.023 307.334L643.523 276.209L637.837 274.291L627.337 305.416L633.023 307.334ZM643.517 276.226C658.453 232.836 667.172 199.068 669.541 175.044L663.569 174.456C661.271 197.765 652.74 230.997 637.843 274.274L643.517 276.226ZM669.538 175.07C669.872 171.953 670.756 170.068 671.827 168.971C672.839 167.933 674.362 167.25 676.805 167.25V161.25C673.164 161.25 669.937 162.317 667.533 164.779C665.187 167.182 663.988 170.547 663.572 174.43L669.538 175.07ZM676.805 167.25C680.154 167.25 682.657 168.045 684.531 169.419L688.079 164.581C684.953 162.289 681.123 161.25 676.805 161.25V167.25ZM684.492 169.39C688.842 172.69 690.426 175.936 690.307 179.139L696.303 179.361C696.518 173.564 693.435 168.643 688.118 164.61L684.492 169.39ZM690.307 179.139C690.149 183.399 689.394 188.711 687.999 195.111L693.861 196.389C695.3 189.789 696.127 184.101 696.303 179.361L690.307 179.139ZM688.001 195.103C686.601 201.441 684.786 208.416 682.551 216.03L688.309 217.72C690.574 210.001 692.425 202.892 693.859 196.397L688.001 195.103ZM682.554 216.022C680.317 223.56 677.747 231.561 674.842 240.026L680.518 241.974C683.446 233.439 686.043 225.357 688.306 217.728L682.554 216.022ZM674.84 240.035L657.59 290.785L663.27 292.715L680.52 241.965L674.84 240.035ZM657.593 290.774C652.623 305.224 648.879 317.163 646.375 326.572C643.892 335.897 642.555 342.99 642.555 347.625H648.555C648.555 343.843 649.697 337.415 652.173 328.116C654.626 318.899 658.32 307.109 663.267 292.726L657.593 290.774ZM642.555 347.625C642.555 350.205 643.068 352.697 644.604 354.583C646.236 356.585 648.578 357.375 651.055 357.375V351.375C649.865 351.375 649.457 351.04 649.256 350.792C648.958 350.428 648.555 349.545 648.555 347.625H642.555ZM651.055 357.375C654.998 357.375 658.654 356.526 661.959 354.776L659.151 349.474C656.789 350.724 654.112 351.375 651.055 351.375V357.375ZM661.927 354.793C663.346 354.063 664.45 353.548 665.263 353.223C665.669 353.06 665.963 352.961 666.16 352.907C666.39 352.843 666.364 352.875 666.18 352.875V346.875C665.124 346.875 663.962 347.281 663.035 347.652C661.972 348.077 660.681 348.687 659.183 349.457L661.927 354.793ZM666.18 352.875C666.376 352.875 666.426 352.901 666.38 352.885C666.319 352.865 666.175 352.8 666.027 352.653C665.88 352.505 665.815 352.361 665.795 352.3C665.779 352.254 665.805 352.304 665.805 352.5H671.805C671.805 351.163 671.469 349.608 670.27 348.41C669.072 347.211 667.517 346.875 666.18 346.875V352.875ZM665.805 352.5C665.805 358.674 662.736 364.033 655.779 368.62L659.081 373.63C667.29 368.217 671.805 361.159 671.805 352.5H665.805ZM655.756 368.635C650.96 371.859 646.875 373.25 643.43 373.25V379.25C648.485 379.25 653.734 377.224 659.104 373.615L655.756 368.635ZM643.43 373.25C639.465 373.25 636.498 372.769 634.388 371.952L632.222 377.548C635.279 378.731 639.061 379.25 643.43 379.25V373.25ZM634.388 371.952C632.246 371.123 630.274 369.799 628.467 367.921L624.142 372.079C626.503 374.534 629.197 376.377 632.222 377.548L634.388 371.952ZM695.49 331.25L692.493 331.112L692.492 331.129L692.492 331.145L695.49 331.25ZM699.115 310.5L701.975 311.405L701.978 311.395L699.115 310.5ZM707.49 291.25L710.099 292.731L710.103 292.723L710.108 292.716L707.49 291.25ZM719.74 273.625L717.455 271.681L717.452 271.684L719.74 273.625ZM735.115 259L733.318 256.598L733.311 256.603L733.303 256.609L735.115 259ZM799.74 263.25L796.959 264.374L796.965 264.389L796.971 264.404L799.74 263.25ZM802.115 277.5L805.115 277.546V277.545L802.115 277.5ZM798.99 292.625L801.74 293.825L801.744 293.816L801.747 293.807L798.99 292.625ZM790.615 305.25L788.423 303.201L788.422 303.203L790.615 305.25ZM777.99 315.375L776.427 312.814L776.418 312.82L776.408 312.826L777.99 315.375ZM762.115 323L763.111 325.83L763.124 325.825L763.137 325.821L762.115 323ZM724.115 329.5L724.078 326.5L721.844 326.528L721.23 328.676L724.115 329.5ZM724.24 342.625L721.298 343.213L721.3 343.222L721.302 343.23L724.24 342.625ZM727.24 350.25L729.812 348.707L729.796 348.679L729.779 348.652L727.24 350.25ZM768.49 349.25L766.966 346.666L766.939 346.682L766.913 346.698L768.49 349.25ZM776.365 343.375L778.486 345.496L776.365 343.375ZM785.615 343L783.032 344.526L783.074 344.596L783.119 344.664L785.615 343ZM783.615 360.5L785.736 362.621L785.874 362.484L785.993 362.329L783.615 360.5ZM707.24 365.25L705.119 367.371L705.125 367.377L705.131 367.383L707.24 365.25ZM743.24 280.25L740.752 278.574L740.745 278.585L740.738 278.595L743.24 280.25ZM726.74 317L723.862 316.154L722.602 320.437L727.044 319.985L726.74 317ZM762.99 300.5L765.039 302.691L765.051 302.68L765.063 302.669L762.99 300.5ZM698.487 331.388C698.809 324.385 699.974 317.727 701.975 311.405L696.255 309.595C694.089 316.439 692.838 323.615 692.493 331.112L698.487 331.388ZM701.978 311.395C703.997 304.935 706.703 298.715 710.099 292.731L704.881 289.769C701.277 296.119 698.4 302.732 696.252 309.605L701.978 311.395ZM710.108 292.716C713.512 286.636 717.485 280.92 722.028 275.566L717.452 271.684C712.662 277.33 708.468 283.364 704.872 289.784L710.108 292.716ZM722.025 275.569C726.643 270.141 731.611 265.419 736.927 261.391L733.303 256.609C727.619 260.915 722.337 265.942 717.455 271.681L722.025 275.569ZM736.912 261.402C748.429 252.785 759.855 248.625 771.24 248.625V242.625C758.292 242.625 745.635 247.382 733.318 256.598L736.912 261.402ZM771.24 248.625C777.959 248.625 783.313 250.009 787.475 252.583C791.61 255.14 794.789 259.008 796.959 264.374L802.521 262.126C799.941 255.742 795.995 250.797 790.63 247.48C785.292 244.178 778.771 242.625 771.24 242.625V248.625ZM796.971 264.404C798.443 267.937 799.194 272.259 799.115 277.455L805.115 277.545C805.203 271.741 804.371 266.563 802.509 262.096L796.971 264.404ZM799.115 277.454C799.038 282.506 798.069 287.159 796.233 291.443L801.747 293.807C803.911 288.757 805.026 283.327 805.115 277.546L799.115 277.454ZM796.24 291.425C794.383 295.681 791.785 299.605 788.423 303.201L792.807 307.299C796.611 303.229 799.597 298.736 801.74 293.825L796.24 291.425ZM788.422 303.203C785.129 306.731 781.14 309.939 776.427 312.814L779.553 317.936C784.674 314.811 789.101 311.269 792.808 307.297L788.422 303.203ZM776.408 312.826C771.764 315.708 766.662 318.162 761.093 320.179L763.137 325.821C769.068 323.672 774.549 321.042 779.572 317.924L776.408 312.826ZM761.119 320.17C749.616 324.22 737.276 326.337 724.078 326.5L724.152 332.5C737.954 332.329 750.947 330.113 763.111 325.83L761.119 320.17ZM721.23 328.676C720.794 330.202 720.577 332.246 720.492 334.643L726.488 334.857C726.569 332.587 726.769 331.132 727 330.324L721.23 328.676ZM720.492 334.643C720.398 337.263 720.681 340.127 721.298 343.213L727.182 342.037C726.632 339.29 726.415 336.904 726.488 334.857L720.492 334.643ZM721.302 343.23C721.951 346.385 723.077 349.268 724.701 351.848L729.779 348.652C728.57 346.732 727.696 344.532 727.178 342.02L721.302 343.23ZM724.668 351.793C728.19 357.665 733.483 360.75 740.24 360.75V354.75C735.664 354.75 732.29 352.835 729.812 348.707L724.668 351.793ZM740.24 360.75C750.526 360.75 760.483 357.727 770.067 351.802L766.913 346.698C758.164 352.107 749.287 354.75 740.24 354.75V360.75ZM770.014 351.834C773.414 349.829 776.259 347.723 778.486 345.496L774.244 341.254C772.471 343.027 770.066 344.838 766.966 346.666L770.014 351.834ZM778.486 345.496C780.482 343.501 781.52 343.25 781.74 343.25V337.25C778.96 337.25 776.415 339.083 774.244 341.254L778.486 345.496ZM781.74 343.25C781.832 343.25 781.929 343.264 782.097 343.384C782.303 343.53 782.635 343.854 783.032 344.526L788.198 341.474C786.825 339.151 784.715 337.25 781.74 337.25V343.25ZM783.119 344.664C783.934 345.886 784.365 347.299 784.365 349H790.365C790.365 346.201 789.63 343.614 788.111 341.336L783.119 344.664ZM784.365 349C784.365 352.809 783.302 355.987 781.237 358.671L785.993 362.329C788.928 358.513 790.365 354.024 790.365 349H784.365ZM781.494 358.379C771.749 368.124 757.015 373.25 736.74 373.25V379.25C757.965 379.25 774.481 373.876 785.736 362.621L781.494 358.379ZM736.74 373.25C725.132 373.25 716.107 369.799 709.349 363.117L705.131 367.383C713.206 375.368 723.848 379.25 736.74 379.25V373.25ZM709.361 363.129C701.741 355.508 698.01 345.051 698.488 331.355L692.492 331.145C691.97 346.116 696.072 358.325 705.119 367.371L709.361 363.129ZM768.49 259.25C758.225 259.25 749.023 266.294 740.752 278.574L745.728 281.926C753.623 270.206 761.255 265.25 768.49 265.25V259.25ZM740.738 278.595C733.711 289.22 728.097 301.753 723.862 316.154L729.618 317.846C733.716 303.913 739.102 291.946 745.742 281.905L740.738 278.595ZM727.044 319.985C741.615 318.501 754.311 312.721 765.039 302.691L760.941 298.309C751.169 307.445 739.698 312.665 726.436 314.015L727.044 319.985ZM765.063 302.669C774.738 293.422 780.115 284.063 780.115 274.625H774.115C774.115 281.687 770.076 289.578 760.917 298.331L765.063 302.669ZM780.115 274.625C780.115 270.244 779.368 266.424 777.42 263.628C775.334 260.636 772.183 259.25 768.49 259.25V265.25C770.547 265.25 771.708 265.927 772.498 267.059C773.424 268.389 774.115 270.756 774.115 274.625H780.115Z" fill="#F8EF24"/>
</svg>
