<svg width="617" height="126" viewBox="0 0 617 126" fill="none" xmlns="http://www.w3.org/2000/svg">
<path d="M171.859 73.6875C171.859 75.7656 171.32 77.6328 170.242 79.2891C169.18 80.9453 167.617 82.2422 165.555 83.1797C163.492 84.1172 161.047 84.5859 158.219 84.5859C154.828 84.5859 152.031 83.9453 149.828 82.6641C148.266 81.7422 146.992 80.5156 146.008 78.9844C145.039 77.4375 144.555 75.9375 144.555 74.4844C144.555 73.6406 144.844 72.9219 145.422 72.3281C146.016 71.7188 146.766 71.4141 147.672 71.4141C148.406 71.4141 149.023 71.6484 149.523 72.1172C150.039 72.5859 150.477 73.2812 150.836 74.2031C151.273 75.2969 151.742 76.2109 152.242 76.9453C152.758 77.6797 153.477 78.2891 154.398 78.7734C155.32 79.2422 156.531 79.4766 158.031 79.4766C160.094 79.4766 161.766 79 163.047 78.0469C164.344 77.0781 164.992 75.875 164.992 74.4375C164.992 73.2969 164.641 72.375 163.938 71.6719C163.25 70.9531 162.352 70.4062 161.242 70.0312C160.148 69.6562 158.68 69.2578 156.836 68.8359C154.367 68.2578 152.297 67.5859 150.625 66.8203C148.969 66.0391 147.648 64.9844 146.664 63.6562C145.695 62.3125 145.211 60.6484 145.211 58.6641C145.211 56.7734 145.727 55.0938 146.758 53.625C147.789 52.1562 149.281 51.0312 151.234 50.25C153.188 49.4531 155.484 49.0547 158.125 49.0547C160.234 49.0547 162.055 49.3203 163.586 49.8516C165.133 50.3672 166.414 51.0625 167.43 51.9375C168.445 52.7969 169.188 53.7031 169.656 54.6562C170.125 55.6094 170.359 56.5391 170.359 57.4453C170.359 58.2734 170.062 59.0234 169.469 59.6953C168.891 60.3516 168.164 60.6797 167.289 60.6797C166.492 60.6797 165.883 60.4844 165.461 60.0938C165.055 59.6875 164.609 59.0312 164.125 58.125C163.5 56.8281 162.75 55.8203 161.875 55.1016C161 54.3672 159.594 54 157.656 54C155.859 54 154.406 54.3984 153.297 55.1953C152.203 55.9766 151.656 56.9219 151.656 58.0312C151.656 58.7188 151.844 59.3125 152.219 59.8125C152.594 60.3125 153.109 60.7422 153.766 61.1016C154.422 61.4609 155.086 61.7422 155.758 61.9453C156.43 62.1484 157.539 62.4453 159.086 62.8359C161.023 63.2891 162.773 63.7891 164.336 64.3359C165.914 64.8828 167.25 65.5469 168.344 66.3281C169.453 67.1094 170.312 68.1016 170.922 69.3047C171.547 70.4922 171.859 71.9531 171.859 73.6875ZM175.413 69.7969V53.2734C175.413 51.8672 175.725 50.8125 176.35 50.1094C176.991 49.4062 177.827 49.0547 178.858 49.0547C179.936 49.0547 180.788 49.4062 181.413 50.1094C182.053 50.8125 182.373 51.8672 182.373 53.2734V70.1719C182.373 72.0938 182.584 73.7031 183.006 75C183.444 76.2812 184.209 77.2812 185.303 78C186.397 78.7031 187.928 79.0547 189.897 79.0547C192.616 79.0547 194.538 78.3359 195.663 76.8984C196.788 75.4453 197.35 73.25 197.35 70.3125V53.2734C197.35 51.8516 197.663 50.7969 198.288 50.1094C198.913 49.4062 199.748 49.0547 200.795 49.0547C201.842 49.0547 202.686 49.4062 203.327 50.1094C203.983 50.7969 204.311 51.8516 204.311 53.2734V69.7969C204.311 72.4844 204.045 74.7266 203.514 76.5234C202.998 78.3203 202.014 79.8984 200.561 81.2578C199.311 82.4141 197.858 83.2578 196.202 83.7891C194.545 84.3203 192.608 84.5859 190.389 84.5859C187.748 84.5859 185.475 84.3047 183.569 83.7422C181.663 83.1641 180.108 82.2812 178.905 81.0938C177.702 79.8906 176.819 78.3594 176.256 76.5C175.694 74.625 175.413 72.3906 175.413 69.7969ZM218.505 53.2266L231.888 73.4766V53.0391C231.888 51.7109 232.169 50.7188 232.731 50.0625C233.309 49.3906 234.083 49.0547 235.052 49.0547C236.052 49.0547 236.841 49.3906 237.419 50.0625C237.997 50.7188 238.286 51.7109 238.286 53.0391V80.0625C238.286 83.0781 237.036 84.5859 234.536 84.5859C233.911 84.5859 233.348 84.4922 232.848 84.3047C232.348 84.1328 231.88 83.8516 231.442 83.4609C231.005 83.0703 230.598 82.6172 230.223 82.1016C229.848 81.5703 229.473 81.0312 229.098 80.4844L216.044 60.4688V80.6016C216.044 81.9141 215.739 82.9062 215.13 83.5781C214.52 84.25 213.739 84.5859 212.786 84.5859C211.802 84.5859 211.013 84.25 210.419 83.5781C209.825 82.8906 209.528 81.8984 209.528 80.6016V54.0938C209.528 52.9688 209.653 52.0859 209.903 51.4453C210.2 50.7422 210.692 50.1719 211.38 49.7344C212.067 49.2812 212.809 49.0547 213.606 49.0547C214.231 49.0547 214.763 49.1562 215.2 49.3594C215.653 49.5625 216.044 49.8359 216.372 50.1797C216.716 50.5234 217.059 50.9688 217.403 51.5156C217.763 52.0625 218.13 52.6328 218.505 53.2266ZM269.613 73.6875C269.613 75.7656 269.073 77.6328 267.995 79.2891C266.933 80.9453 265.37 82.2422 263.308 83.1797C261.245 84.1172 258.8 84.5859 255.972 84.5859C252.581 84.5859 249.784 83.9453 247.581 82.6641C246.019 81.7422 244.745 80.5156 243.761 78.9844C242.792 77.4375 242.308 75.9375 242.308 74.4844C242.308 73.6406 242.597 72.9219 243.175 72.3281C243.769 71.7188 244.519 71.4141 245.425 71.4141C246.159 71.4141 246.777 71.6484 247.277 72.1172C247.792 72.5859 248.23 73.2812 248.589 74.2031C249.027 75.2969 249.495 76.2109 249.995 76.9453C250.511 77.6797 251.23 78.2891 252.152 78.7734C253.073 79.2422 254.284 79.4766 255.784 79.4766C257.847 79.4766 259.519 79 260.8 78.0469C262.097 77.0781 262.745 75.875 262.745 74.4375C262.745 73.2969 262.394 72.375 261.691 71.6719C261.003 70.9531 260.105 70.4062 258.995 70.0312C257.902 69.6562 256.433 69.2578 254.589 68.8359C252.12 68.2578 250.05 67.5859 248.378 66.8203C246.722 66.0391 245.402 64.9844 244.417 63.6562C243.448 62.3125 242.964 60.6484 242.964 58.6641C242.964 56.7734 243.48 55.0938 244.511 53.625C245.542 52.1562 247.034 51.0312 248.988 50.25C250.941 49.4531 253.238 49.0547 255.878 49.0547C257.988 49.0547 259.808 49.3203 261.339 49.8516C262.886 50.3672 264.167 51.0625 265.183 51.9375C266.198 52.7969 266.941 53.7031 267.409 54.6562C267.878 55.6094 268.113 56.5391 268.113 57.4453C268.113 58.2734 267.816 59.0234 267.222 59.6953C266.644 60.3516 265.917 60.6797 265.042 60.6797C264.245 60.6797 263.636 60.4844 263.214 60.0938C262.808 59.6875 262.363 59.0312 261.878 58.125C261.253 56.8281 260.503 55.8203 259.628 55.1016C258.753 54.3672 257.347 54 255.409 54C253.613 54 252.159 54.3984 251.05 55.1953C249.956 55.9766 249.409 56.9219 249.409 58.0312C249.409 58.7188 249.597 59.3125 249.972 59.8125C250.347 60.3125 250.863 60.7422 251.519 61.1016C252.175 61.4609 252.839 61.7422 253.511 61.9453C254.183 62.1484 255.292 62.4453 256.839 62.8359C258.777 63.2891 260.527 63.7891 262.089 64.3359C263.667 64.8828 265.003 65.5469 266.097 66.3281C267.206 67.1094 268.066 68.1016 268.675 69.3047C269.3 70.4922 269.613 71.9531 269.613 73.6875ZM280.127 53.2734V63.1172H295.15V53.2734C295.15 51.8672 295.463 50.8125 296.088 50.1094C296.728 49.4062 297.564 49.0547 298.595 49.0547C299.642 49.0547 300.486 49.4062 301.127 50.1094C301.783 50.7969 302.111 51.8516 302.111 53.2734V80.3438C302.111 81.7656 301.783 82.8281 301.127 83.5312C300.47 84.2344 299.627 84.5859 298.595 84.5859C297.548 84.5859 296.713 84.2344 296.088 83.5312C295.463 82.8125 295.15 81.75 295.15 80.3438V68.7891H280.127V80.3438C280.127 81.7656 279.798 82.8281 279.142 83.5312C278.486 84.2344 277.642 84.5859 276.611 84.5859C275.564 84.5859 274.728 84.2344 274.103 83.5312C273.478 82.8125 273.166 81.75 273.166 80.3438V53.2734C273.166 51.8672 273.47 50.8125 274.08 50.1094C274.705 49.4062 275.548 49.0547 276.611 49.0547C277.658 49.0547 278.502 49.4062 279.142 50.1094C279.798 50.7969 280.127 51.8516 280.127 53.2734ZM307.469 80.3438V53.2734C307.469 51.8672 307.789 50.8125 308.43 50.1094C309.07 49.4062 309.898 49.0547 310.914 49.0547C311.961 49.0547 312.805 49.4062 313.445 50.1094C314.102 50.7969 314.43 51.8516 314.43 53.2734V80.3438C314.43 81.7656 314.102 82.8281 313.445 83.5312C312.805 84.2344 311.961 84.5859 310.914 84.5859C309.914 84.5859 309.086 84.2344 308.43 83.5312C307.789 82.8125 307.469 81.75 307.469 80.3438ZM328.905 53.2266L342.288 73.4766V53.0391C342.288 51.7109 342.569 50.7188 343.131 50.0625C343.709 49.3906 344.483 49.0547 345.452 49.0547C346.452 49.0547 347.241 49.3906 347.819 50.0625C348.397 50.7188 348.686 51.7109 348.686 53.0391V80.0625C348.686 83.0781 347.436 84.5859 344.936 84.5859C344.311 84.5859 343.748 84.4922 343.248 84.3047C342.748 84.1328 342.28 83.8516 341.842 83.4609C341.405 83.0703 340.998 82.6172 340.623 82.1016C340.248 81.5703 339.873 81.0312 339.498 80.4844L326.444 60.4688V80.6016C326.444 81.9141 326.139 82.9062 325.53 83.5781C324.92 84.25 324.139 84.5859 323.186 84.5859C322.202 84.5859 321.413 84.25 320.819 83.5781C320.225 82.8906 319.928 81.8984 319.928 80.6016V54.0938C319.928 52.9688 320.053 52.0859 320.303 51.4453C320.6 50.7422 321.092 50.1719 321.78 49.7344C322.467 49.2812 323.209 49.0547 324.006 49.0547C324.631 49.0547 325.163 49.1562 325.6 49.3594C326.053 49.5625 326.444 49.8359 326.772 50.1797C327.116 50.5234 327.459 50.9688 327.803 51.5156C328.163 52.0625 328.53 52.6328 328.905 53.2266ZM376.544 55.0078H360.864V63.4453H375.302C376.364 63.4453 377.153 63.6875 377.669 64.1719C378.2 64.6406 378.466 65.2656 378.466 66.0469C378.466 66.8281 378.208 67.4688 377.692 67.9688C377.177 68.4531 376.38 68.6953 375.302 68.6953H360.864V78.4688H377.083C378.177 78.4688 378.997 78.7266 379.544 79.2422C380.106 79.7422 380.387 80.4141 380.387 81.2578C380.387 82.0703 380.106 82.7344 379.544 83.25C378.997 83.75 378.177 84 377.083 84H358.169C356.653 84 355.559 83.6641 354.887 82.9922C354.231 82.3203 353.903 81.2344 353.903 79.7344V53.9062C353.903 52.9062 354.052 52.0938 354.348 51.4688C354.645 50.8281 355.106 50.3672 355.731 50.0859C356.372 49.7891 357.184 49.6406 358.169 49.6406H376.544C377.653 49.6406 378.473 49.8906 379.005 50.3906C379.552 50.875 379.825 51.5156 379.825 52.3125C379.825 53.125 379.552 53.7812 379.005 54.2812C378.473 54.7656 377.653 55.0078 376.544 55.0078ZM400.127 53.2734V65.3203L413.791 51.0703C414.447 50.3828 415.002 49.875 415.455 49.5469C415.923 49.2188 416.541 49.0547 417.306 49.0547C418.306 49.0547 419.111 49.3516 419.72 49.9453C420.345 50.5234 420.658 51.2344 420.658 52.0781C420.658 53.0938 420.134 54.1016 419.087 55.1016L410.627 63.1172L420.377 77.0859C421.064 78.0547 421.58 78.9062 421.923 79.6406C422.267 80.3594 422.439 81.0625 422.439 81.75C422.439 82.5156 422.134 83.1797 421.525 83.7422C420.931 84.3047 420.119 84.5859 419.087 84.5859C418.119 84.5859 417.33 84.3828 416.72 83.9766C416.111 83.5547 415.595 83 415.173 82.3125C414.752 81.625 414.377 81 414.048 80.4375L405.822 67.7812L400.127 73.2422V80.3438C400.127 81.7812 399.798 82.8516 399.142 83.5547C398.486 84.2422 397.642 84.5859 396.611 84.5859C396.017 84.5859 395.447 84.4297 394.9 84.1172C394.353 83.8047 393.931 83.3828 393.634 82.8516C393.416 82.4141 393.283 81.9062 393.236 81.3281C393.189 80.75 393.166 79.9141 393.166 78.8203V53.2734C393.166 51.8672 393.47 50.8125 394.08 50.1094C394.705 49.4062 395.548 49.0547 396.611 49.0547C397.658 49.0547 398.502 49.4062 399.142 50.1094C399.798 50.7969 400.127 51.8516 400.127 53.2734ZM426.531 80.3438V53.2734C426.531 51.8672 426.852 50.8125 427.492 50.1094C428.133 49.4062 428.961 49.0547 429.977 49.0547C431.023 49.0547 431.867 49.4062 432.508 50.1094C433.164 50.7969 433.492 51.8516 433.492 53.2734V80.3438C433.492 81.7656 433.164 82.8281 432.508 83.5312C431.867 84.2344 431.023 84.5859 429.977 84.5859C428.977 84.5859 428.148 84.2344 427.492 83.5312C426.852 82.8125 426.531 81.75 426.531 80.3438ZM443.209 49.6406H452.28C454.639 49.6406 456.663 49.8594 458.35 50.2969C460.038 50.7344 461.569 51.5547 462.944 52.7578C466.522 55.8203 468.311 60.4766 468.311 66.7266C468.311 68.7891 468.131 70.6719 467.772 72.375C467.413 74.0781 466.858 75.6172 466.108 76.9922C465.358 78.3516 464.397 79.5703 463.225 80.6484C462.303 81.4766 461.295 82.1406 460.202 82.6406C459.108 83.1406 457.928 83.4922 456.663 83.6953C455.413 83.8984 453.998 84 452.42 84H443.35C442.084 84 441.131 83.8125 440.491 83.4375C439.85 83.0469 439.428 82.5078 439.225 81.8203C439.038 81.1172 438.944 80.2109 438.944 79.1016V53.9062C438.944 52.4062 439.28 51.3203 439.952 50.6484C440.623 49.9766 441.709 49.6406 443.209 49.6406ZM445.905 55.1484V78.4688H451.178C452.334 78.4688 453.241 78.4375 453.897 78.375C454.553 78.3125 455.233 78.1562 455.936 77.9062C456.639 77.6562 457.248 77.3047 457.764 76.8516C460.092 74.8828 461.256 71.4922 461.256 66.6797C461.256 63.2891 460.741 60.75 459.709 59.0625C458.694 57.375 457.436 56.3047 455.936 55.8516C454.436 55.3828 452.623 55.1484 450.498 55.1484H445.905ZM498.138 73.6875C498.138 75.7656 497.598 77.6328 496.52 79.2891C495.458 80.9453 493.895 82.2422 491.833 83.1797C489.77 84.1172 487.325 84.5859 484.497 84.5859C481.106 84.5859 478.309 83.9453 476.106 82.6641C474.544 81.7422 473.27 80.5156 472.286 78.9844C471.317 77.4375 470.833 75.9375 470.833 74.4844C470.833 73.6406 471.122 72.9219 471.7 72.3281C472.294 71.7188 473.044 71.4141 473.95 71.4141C474.684 71.4141 475.302 71.6484 475.802 72.1172C476.317 72.5859 476.755 73.2812 477.114 74.2031C477.552 75.2969 478.02 76.2109 478.52 76.9453C479.036 77.6797 479.755 78.2891 480.677 78.7734C481.598 79.2422 482.809 79.4766 484.309 79.4766C486.372 79.4766 488.044 79 489.325 78.0469C490.622 77.0781 491.27 75.875 491.27 74.4375C491.27 73.2969 490.919 72.375 490.216 71.6719C489.528 70.9531 488.63 70.4062 487.52 70.0312C486.427 69.6562 484.958 69.2578 483.114 68.8359C480.645 68.2578 478.575 67.5859 476.903 66.8203C475.247 66.0391 473.927 64.9844 472.942 63.6562C471.973 62.3125 471.489 60.6484 471.489 58.6641C471.489 56.7734 472.005 55.0938 473.036 53.625C474.067 52.1562 475.559 51.0312 477.513 50.25C479.466 49.4531 481.763 49.0547 484.403 49.0547C486.513 49.0547 488.333 49.3203 489.864 49.8516C491.411 50.3672 492.692 51.0625 493.708 51.9375C494.723 52.7969 495.466 53.7031 495.934 54.6562C496.403 55.6094 496.638 56.5391 496.638 57.4453C496.638 58.2734 496.341 59.0234 495.747 59.6953C495.169 60.3516 494.442 60.6797 493.567 60.6797C492.77 60.6797 492.161 60.4844 491.739 60.0938C491.333 59.6875 490.888 59.0312 490.403 58.125C489.778 56.8281 489.028 55.8203 488.153 55.1016C487.278 54.3672 485.872 54 483.934 54C482.138 54 480.684 54.3984 479.575 55.1953C478.481 55.9766 477.934 56.9219 477.934 58.0312C477.934 58.7188 478.122 59.3125 478.497 59.8125C478.872 60.3125 479.388 60.7422 480.044 61.1016C480.7 61.4609 481.364 61.7422 482.036 61.9453C482.708 62.1484 483.817 62.4453 485.364 62.8359C487.302 63.2891 489.052 63.7891 490.614 64.3359C492.192 64.8828 493.528 65.5469 494.622 66.3281C495.731 67.1094 496.591 68.1016 497.2 69.3047C497.825 70.4922 498.138 71.9531 498.138 73.6875Z" fill="#004B8D"/>
<path d="M105.403 84.6029C105.66 83.776 104.837 83.5693 104.529 83.1041C104.992 81.9671 104.067 81.502 103.45 80.9335C102.268 79.4864 100.521 79.383 98.876 78.9179C98.6705 78.9179 98.4135 78.9179 98.208 78.9179C97.0774 78.4011 95.9467 77.8843 94.662 77.8843C94.1995 77.5742 93.7369 77.2641 93.1203 77.3674C92.7605 77.2124 92.4522 77.0057 92.0924 76.8506C91.7841 76.6439 91.4244 76.4372 91.116 76.2305C90.9618 76.0754 90.8077 75.9204 90.6535 75.7653C90.3965 74.68 89.3173 73.9565 89.5743 72.7161C90.2424 68.0647 93.0689 64.6538 96.2037 61.4495C102.936 54.5241 104.169 46.1 102.473 36.9524C102.473 36.4355 102.473 35.867 102.011 35.4536C101.959 34.9368 101.959 34.3683 101.394 34.1099C101.034 33.6964 101.086 32.9729 100.366 32.8695C100.366 32.7145 100.315 32.5594 100.264 32.4044C100.161 31.5258 99.4927 31.164 98.8246 30.8022C98.4649 30.2337 97.8482 30.2854 97.3343 30.2337C96.2551 29.4068 95.2273 29.8203 94.1995 30.2854C93.1203 30.2854 92.5036 31.0606 91.9897 31.8359C90.5507 34.1099 88.6492 35.7637 86.2853 36.849C86.1825 36.9007 86.0797 36.9524 85.9769 37.004C85.463 37.004 84.9491 37.0557 84.3838 37.0557C83.7157 37.004 83.0477 36.9524 82.3796 36.9007C82.0712 36.5389 81.7115 36.4355 81.3004 36.5389C80.8378 36.3322 80.3239 36.0738 79.8614 35.867C79.7072 35.712 79.5017 35.5053 79.3475 35.3502C79.2961 34.9368 79.2447 34.5233 78.8336 34.3166C78.5253 33.9548 78.2169 33.5414 77.9086 33.1796C77.703 32.8695 77.4974 32.6111 77.3433 32.301C76.8294 31.2674 76.3155 30.2337 75.8529 29.2001C74.6196 25.1689 74.0543 20.8794 71.7417 17.21C71.3305 15.8662 70.5597 14.7809 69.5832 13.799C69.3263 13.1271 68.9666 12.6103 68.1443 12.662C67.6304 11.7834 66.9109 11.0598 66.0373 10.543C65.8317 10.2329 65.5748 9.92283 65.3692 9.61274C65.0095 8.68247 63.8789 8.68247 63.3136 8.06229C62.4913 7.54548 61.6691 7.02866 60.8468 6.51184C60.4871 6.3568 60.1787 6.15007 59.819 5.99503C58.8939 5.32316 57.9175 4.85803 56.7869 5.01307C56.4272 4.80635 56.1188 4.54794 55.7591 4.34121V4.44457C55.7591 4.44457 55.7591 4.44457 55.7077 4.44457C55.7077 4.39289 55.7077 4.34121 55.7077 4.34121C54.9882 3.61767 54.1146 3.41094 53.1382 3.41094C52.984 3.35926 52.8298 3.35926 52.6243 3.35926C50.4659 2.42899 48.5644 2.73908 46.9199 4.39289C46.6115 4.90971 46.3032 5.47821 45.9435 5.99503C45.9948 7.23539 45.5837 8.52743 46.3546 9.66443C46.406 9.66443 46.406 9.66443 46.406 9.66443C46.3546 10.1812 46.3032 10.7497 46.7657 11.1632C47.1768 13.4889 48.2047 15.6595 49.0269 17.8818C48.9755 18.0369 48.9755 18.1919 49.0269 18.3986C48.8727 20.1558 49.3353 21.9647 48.4616 23.6185C47.331 25.1173 46.0462 26.4093 44.3503 27.2362C43.4767 27.2362 42.6544 27.2362 41.7808 27.2879C41.2669 27.2879 40.753 27.2362 40.2391 27.2362C39.6224 26.5127 38.8515 26.8228 38.0807 26.8228C37.6181 26.7711 37.1042 26.7194 36.6417 26.7194C36.2306 26.2026 35.6139 26.3059 35.0486 26.3059C33.8666 26.3059 32.6846 26.2543 31.5026 26.2543C29.2928 25.4273 27.0316 25.5824 24.8218 26.3059C24.3079 26.3059 23.794 26.3059 23.2801 26.3576C22.4064 26.5127 21.5842 26.7194 20.7105 26.8744C20.5564 26.8744 20.3508 26.8744 20.1966 26.8744C19.0147 27.2362 17.8327 27.5463 16.5993 27.9081C13.2589 28.8383 10.3296 30.5955 7.86284 33.0762C7.5031 33.438 7.19476 33.7481 6.83502 34.1099C5.96137 34.575 5.29329 35.2985 4.77938 36.1771C4.36826 36.3839 4.26548 36.7456 4.26548 37.1591C3.5974 37.5209 3.23766 38.0377 3.34044 38.8129C3.18627 39.123 3.0321 39.4848 2.87792 39.7949C2.41541 40.415 2.10706 41.0869 2.31262 41.8621C2.26123 42.6373 2.05567 43.4126 2.72375 44.0328C2.87792 44.1361 3.08349 44.4462 3.28905 44.7563C3.49461 45.3765 3.85435 45.8933 4.62521 45.8933C5.2419 46.7202 6.21833 46.7719 7.14336 46.9786C10.4324 47.7538 13.8756 48.2707 16.5993 50.5963C16.6507 50.9581 16.8048 51.3199 17.1646 51.4749C17.3701 51.9917 17.5243 52.5085 17.7299 53.077C17.7299 53.2321 17.7299 53.4388 17.7299 53.5939C17.7813 53.6455 17.7813 53.6972 17.8327 53.7489C17.7813 53.6972 17.7813 53.6455 17.7299 53.5939C17.7299 54.9893 17.6785 56.333 17.6785 57.7284C17.6271 57.8834 17.5757 57.9868 17.5757 58.1419C17.4215 58.5036 17.2674 58.8654 17.1132 59.2272C16.959 59.5889 16.8048 59.9507 16.5993 60.2608C16.4451 60.5709 16.2395 60.9327 16.0854 61.2428C15.4687 61.6045 15.1089 62.173 15.0576 62.8449C13.413 64.9122 12.1283 67.1862 10.9977 69.5635C10.381 70.0803 10.124 70.8556 9.91847 71.6308C9.14761 72.5611 8.6337 73.5947 8.42813 74.7834C8.27396 75.1451 8.11979 75.5069 7.96562 75.817C7.65727 76.2821 7.40032 76.7473 7.45171 77.3674C7.29754 77.8843 7.14336 78.4011 6.98919 78.9179C6.98919 79.0729 6.9378 79.2797 6.9378 79.4347C6.68085 80.2616 6.16694 81.0885 6.42389 82.0188C6.42389 83.0524 5.75581 84.0344 6.32111 85.1197C6.32111 86.205 6.11555 87.2903 6.73224 88.2723C6.9378 88.7891 6.68085 89.4093 7.24615 89.8227C7.45171 90.753 7.65727 91.6833 8.42813 92.3551C10.4838 95.8178 12.488 96.1796 15.2631 93.4921C16.6507 92.1484 17.9868 90.7013 19.3744 89.3059C22.0981 86.6185 27.2886 85.8949 32.0165 91.3732C32.5304 92.4068 33.0444 93.3888 33.5583 94.4224C33.918 95.6111 34.2777 96.8514 34.6375 98.0401C35.3569 100.986 36.025 103.88 36.7445 106.826C37.2584 108.221 37.7209 109.565 38.2348 110.961C38.5432 111.943 39.0571 112.821 39.7766 113.545C40.496 115.147 41.5238 116.542 42.9114 117.679C45.5323 120.832 48.7186 123.261 52.6757 124.449C58.8426 126.362 62.6455 122.951 61.6177 116.594C61.1551 113.7 60.4357 110.857 59.9218 108.015C58.4828 99.849 63.9303 94.4224 72.1014 95.8695C75.2876 96.438 78.4739 97.0065 81.6601 97.4716C87.3645 98.2985 92.8633 98.1952 97.7968 94.5775C100.983 92.9236 103.758 90.8564 104.992 87.2903C105.608 86.4117 105.403 85.4815 105.403 84.6029ZM36.6417 28.2698C36.6417 28.2182 36.6417 28.2182 36.6417 28.2698C36.6417 28.2182 36.6417 28.2182 36.6417 28.2698ZM73.3862 27.4946C73.4376 27.598 73.5403 27.7013 73.5917 27.753C73.4889 27.7013 73.3862 27.598 73.3862 27.4946ZM78.1141 35.557C78.1141 35.5053 78.1141 35.4536 78.0627 35.4536C78.1141 35.4536 78.1655 35.4536 78.1655 35.4536C78.2169 35.5053 78.1655 35.5053 78.1141 35.557ZM97.7968 86.8252C97.7968 86.7735 97.7968 86.6702 97.7454 86.6185C97.8482 86.6702 97.8482 86.7735 97.7968 86.8252C97.8482 86.8252 97.8482 86.8252 97.7968 86.8252ZM52.6757 17.8818C52.6243 17.8818 52.5729 17.8818 52.5215 17.8818C52.5729 17.8301 52.6243 17.7785 52.6757 17.7785C52.6757 17.8301 52.6757 17.8818 52.6757 17.8818ZM91.9897 83.0008C91.9383 83.0008 91.9383 83.0008 91.8869 83.0008C91.8869 82.9491 91.8869 82.9491 91.8869 82.8974C91.9383 82.8974 91.9897 82.9491 91.9897 83.0008ZM54.166 14.3158C54.166 14.3675 54.166 14.3675 54.166 14.4191C54.1146 14.3675 54.1146 14.3158 54.1146 14.3158H54.166ZM52.5729 12.7653C52.5729 12.7136 52.5729 12.7136 52.5729 12.7653V12.7653ZM40.2391 33.3346C40.2391 33.3863 40.2391 33.3863 40.2391 33.438C40.1877 33.438 40.1363 33.3863 40.0849 33.3863C40.1877 33.3346 40.1877 33.3346 40.2391 33.3346ZM13.0533 84.5512C13.0019 84.5512 13.0533 84.5512 13.0533 84.5512V84.5512Z" fill="#F8EF24"/>
</svg>
