<svg width="109" height="126" viewBox="0 0 109 126" fill="none" xmlns="http://www.w3.org/2000/svg">
<path d="M105.403 84.6029C105.66 83.776 104.837 83.5693 104.529 83.1041C104.992 81.9671 104.067 81.502 103.45 80.9335C102.268 79.4864 100.521 79.383 98.876 78.9179C98.6705 78.9179 98.4135 78.9179 98.208 78.9179C97.0774 78.4011 95.9467 77.8843 94.662 77.8843C94.1995 77.5742 93.7369 77.2641 93.1203 77.3674C92.7605 77.2124 92.4522 77.0057 92.0924 76.8506C91.7841 76.6439 91.4244 76.4372 91.116 76.2305C90.9618 76.0754 90.8077 75.9204 90.6535 75.7653C90.3965 74.68 89.3173 73.9565 89.5743 72.7161C90.2424 68.0647 93.0689 64.6538 96.2037 61.4495C102.936 54.5241 104.169 46.1 102.473 36.9524C102.473 36.4355 102.473 35.867 102.011 35.4536C101.959 34.9368 101.959 34.3683 101.394 34.1099C101.034 33.6964 101.086 32.9729 100.366 32.8695C100.366 32.7145 100.315 32.5594 100.264 32.4044C100.161 31.5258 99.4927 31.164 98.8246 30.8022C98.4649 30.2337 97.8482 30.2854 97.3343 30.2337C96.2551 29.4068 95.2273 29.8203 94.1995 30.2854C93.1203 30.2854 92.5036 31.0606 91.9897 31.8359C90.5507 34.1099 88.6492 35.7637 86.2853 36.849C86.1825 36.9007 86.0797 36.9524 85.9769 37.004C85.463 37.004 84.9491 37.0557 84.3838 37.0557C83.7157 37.004 83.0477 36.9524 82.3796 36.9007C82.0712 36.5389 81.7115 36.4355 81.3004 36.5389C80.8378 36.3322 80.3239 36.0738 79.8614 35.867C79.7072 35.712 79.5017 35.5053 79.3475 35.3502C79.2961 34.9368 79.2447 34.5233 78.8336 34.3166C78.5253 33.9548 78.2169 33.5414 77.9086 33.1796C77.703 32.8695 77.4974 32.6111 77.3433 32.301C76.8294 31.2674 76.3155 30.2337 75.8529 29.2001C74.6196 25.1689 74.0543 20.8794 71.7417 17.21C71.3305 15.8662 70.5597 14.7809 69.5832 13.799C69.3263 13.1271 68.9666 12.6103 68.1443 12.662C67.6304 11.7834 66.9109 11.0598 66.0373 10.543C65.8317 10.2329 65.5748 9.92283 65.3692 9.61274C65.0095 8.68247 63.8789 8.68247 63.3136 8.06229C62.4913 7.54548 61.6691 7.02866 60.8468 6.51184C60.4871 6.3568 60.1787 6.15007 59.819 5.99503C58.8939 5.32316 57.9175 4.85803 56.7869 5.01307C56.4272 4.80635 56.1188 4.54794 55.7591 4.34121V4.44457C55.7591 4.44457 55.7591 4.44457 55.7077 4.44457C55.7077 4.39289 55.7077 4.34121 55.7077 4.34121C54.9882 3.61767 54.1146 3.41094 53.1382 3.41094C52.984 3.35926 52.8298 3.35926 52.6243 3.35926C50.4659 2.42899 48.5644 2.73908 46.9199 4.39289C46.6115 4.90971 46.3032 5.47821 45.9435 5.99503C45.9948 7.23539 45.5837 8.52743 46.3546 9.66443C46.406 9.66443 46.406 9.66443 46.406 9.66443C46.3546 10.1812 46.3032 10.7497 46.7657 11.1632C47.1768 13.4889 48.2047 15.6595 49.0269 17.8818C48.9755 18.0369 48.9755 18.1919 49.0269 18.3986C48.8727 20.1558 49.3353 21.9647 48.4616 23.6185C47.331 25.1173 46.0462 26.4093 44.3503 27.2362C43.4767 27.2362 42.6544 27.2362 41.7808 27.2879C41.2669 27.2879 40.753 27.2362 40.2391 27.2362C39.6224 26.5127 38.8515 26.8228 38.0807 26.8228C37.6181 26.7711 37.1042 26.7194 36.6417 26.7194C36.2306 26.2026 35.6139 26.3059 35.0486 26.3059C33.8666 26.3059 32.6846 26.2543 31.5026 26.2543C29.2928 25.4273 27.0316 25.5824 24.8218 26.3059C24.3079 26.3059 23.794 26.3059 23.2801 26.3576C22.4064 26.5127 21.5842 26.7194 20.7105 26.8744C20.5564 26.8744 20.3508 26.8744 20.1966 26.8744C19.0147 27.2362 17.8327 27.5463 16.5993 27.9081C13.2589 28.8383 10.3296 30.5955 7.86284 33.0762C7.5031 33.438 7.19476 33.7481 6.83502 34.1099C5.96137 34.575 5.29329 35.2985 4.77938 36.1771C4.36826 36.3839 4.26548 36.7456 4.26548 37.1591C3.5974 37.5209 3.23766 38.0377 3.34044 38.8129C3.18627 39.123 3.0321 39.4848 2.87792 39.7949C2.41541 40.415 2.10706 41.0869 2.31262 41.8621C2.26123 42.6373 2.05567 43.4126 2.72375 44.0328C2.87792 44.1361 3.08349 44.4462 3.28905 44.7563C3.49461 45.3765 3.85435 45.8933 4.62521 45.8933C5.2419 46.7202 6.21833 46.7719 7.14336 46.9786C10.4324 47.7538 13.8756 48.2707 16.5993 50.5963C16.6507 50.9581 16.8048 51.3199 17.1646 51.4749C17.3701 51.9917 17.5243 52.5085 17.7299 53.077C17.7299 53.2321 17.7299 53.4388 17.7299 53.5939C17.7813 53.6455 17.7813 53.6972 17.8327 53.7489C17.7813 53.6972 17.7813 53.6455 17.7299 53.5939C17.7299 54.9893 17.6785 56.333 17.6785 57.7284C17.6271 57.8834 17.5757 57.9868 17.5757 58.1419C17.4215 58.5036 17.2674 58.8654 17.1132 59.2272C16.959 59.5889 16.8048 59.9507 16.5993 60.2608C16.4451 60.5709 16.2395 60.9327 16.0854 61.2428C15.4687 61.6045 15.1089 62.173 15.0576 62.8449C13.413 64.9122 12.1283 67.1862 10.9977 69.5635C10.381 70.0803 10.124 70.8556 9.91847 71.6308C9.14761 72.5611 8.6337 73.5947 8.42813 74.7834C8.27396 75.1451 8.11979 75.5069 7.96562 75.817C7.65727 76.2821 7.40032 76.7473 7.45171 77.3674C7.29754 77.8843 7.14336 78.4011 6.98919 78.9179C6.98919 79.0729 6.9378 79.2797 6.9378 79.4347C6.68085 80.2616 6.16694 81.0885 6.42389 82.0188C6.42389 83.0524 5.75581 84.0344 6.32111 85.1197C6.32111 86.205 6.11555 87.2903 6.73224 88.2723C6.9378 88.7891 6.68085 89.4093 7.24615 89.8227C7.45171 90.753 7.65727 91.6833 8.42813 92.3551C10.4838 95.8178 12.488 96.1796 15.2631 93.4921C16.6507 92.1484 17.9868 90.7013 19.3744 89.3059C22.0981 86.6185 27.2886 85.8949 32.0165 91.3732C32.5304 92.4068 33.0444 93.3888 33.5583 94.4224C33.918 95.6111 34.2777 96.8514 34.6375 98.0401C35.3569 100.986 36.025 103.88 36.7445 106.826C37.2584 108.221 37.7209 109.565 38.2348 110.961C38.5432 111.943 39.0571 112.821 39.7766 113.545C40.496 115.147 41.5238 116.542 42.9114 117.679C45.5323 120.832 48.7186 123.261 52.6757 124.449C58.8426 126.362 62.6455 122.951 61.6177 116.594C61.1551 113.7 60.4357 110.857 59.9218 108.015C58.4828 99.849 63.9303 94.4224 72.1014 95.8695C75.2876 96.438 78.4739 97.0065 81.6601 97.4716C87.3645 98.2985 92.8633 98.1952 97.7968 94.5775C100.983 92.9236 103.758 90.8564 104.992 87.2903C105.608 86.4117 105.403 85.4815 105.403 84.6029ZM36.6417 28.2698C36.6417 28.2182 36.6417 28.2182 36.6417 28.2698C36.6417 28.2182 36.6417 28.2182 36.6417 28.2698ZM73.3862 27.4946C73.4376 27.598 73.5403 27.7013 73.5917 27.753C73.4889 27.7013 73.3862 27.598 73.3862 27.4946ZM78.1141 35.557C78.1141 35.5053 78.1141 35.4536 78.0627 35.4536C78.1141 35.4536 78.1655 35.4536 78.1655 35.4536C78.2169 35.5053 78.1655 35.5053 78.1141 35.557ZM97.7968 86.8252C97.7968 86.7735 97.7968 86.6702 97.7454 86.6185C97.8482 86.6702 97.8482 86.7735 97.7968 86.8252C97.8482 86.8252 97.8482 86.8252 97.7968 86.8252ZM52.6757 17.8818C52.6243 17.8818 52.5729 17.8818 52.5215 17.8818C52.5729 17.8301 52.6243 17.7785 52.6757 17.7785C52.6757 17.8301 52.6757 17.8818 52.6757 17.8818ZM91.9897 83.0008C91.9383 83.0008 91.9383 83.0008 91.8869 83.0008C91.8869 82.9491 91.8869 82.9491 91.8869 82.8974C91.9383 82.8974 91.9897 82.9491 91.9897 83.0008ZM54.166 14.3158C54.166 14.3675 54.166 14.3675 54.166 14.4191C54.1146 14.3675 54.1146 14.3158 54.1146 14.3158H54.166ZM52.5729 12.7653C52.5729 12.7136 52.5729 12.7136 52.5729 12.7653V12.7653ZM40.2391 33.3346C40.2391 33.3863 40.2391 33.3863 40.2391 33.438C40.1877 33.438 40.1363 33.3863 40.0849 33.3863C40.1877 33.3346 40.1877 33.3346 40.2391 33.3346ZM13.0533 84.5512C13.0019 84.5512 13.0533 84.5512 13.0533 84.5512V84.5512Z" fill="#F8EF24"/>
</svg>
