<svg width="44" height="34" viewBox="0 0 44 34" fill="none" xmlns="http://www.w3.org/2000/svg">
<path d="M9.51042 16.9433H10.3125C12.4896 16.9433 14.4375 17.7744 16.1562 19.4367C17.9132 21.0611 18.7917 23.1011 18.7917 25.5567C18.7917 27.9744 17.9132 29.9767 16.1562 31.5633C14.4375 33.1122 12.2986 33.8867 9.73958 33.8867C6.95139 33.8867 4.62153 32.7911 2.75 30.6C0.916667 28.3711 0 25.2167 0 21.1367C0 17.3967 0.802083 13.9022 2.40625 10.6533C4.04861 7.36667 6.03472 4.77889 8.36458 2.89C10.7326 0.963333 12.8333 0 14.6667 0C15.8889 0 16.8438 0.358889 17.5312 1.07667C18.2188 1.79444 18.5625 2.72 18.5625 3.85333C18.5625 5.51556 17.8177 6.74333 16.3281 7.53667C14.3038 8.63222 12.6997 9.91667 11.5156 11.39C10.3316 12.8633 9.66319 14.7144 9.51042 16.9433ZM34.8333 16.9433H35.5781C37.717 16.9433 39.6458 17.7744 41.3646 19.4367C43.1215 21.0611 44 23.1011 44 25.5567C44 27.9367 43.1215 29.9389 41.3646 31.5633C39.6458 33.1878 37.5069 34 34.9479 34C32.1215 34 29.7917 32.8667 27.9583 30.6C26.125 28.3333 25.2083 25.1789 25.2083 21.1367C25.2083 18.2278 25.6858 15.4889 26.6406 12.92C27.5955 10.3511 28.8177 8.12222 30.3073 6.23333C31.8351 4.30667 33.4583 2.79556 35.1771 1.7C36.934 0.566667 38.5 0 39.875 0C41.1354 0 42.0903 0.358889 42.7396 1.07667C43.4271 1.75667 43.7708 2.68222 43.7708 3.85333C43.7708 5.55333 43.026 6.78111 41.5365 7.53667C39.4358 8.70778 37.8507 10.0111 36.7812 11.4467C35.7118 12.8444 35.0625 14.6767 34.8333 16.9433Z" fill="#F8EF24"/>
</svg>
